<svg id="iconfinder_sort-ascending_7122406" xmlns="http://www.w3.org/2000/svg" width="272.175" height="238.153" viewBox="0 0 272.175 238.153">
  <path id="패스_3" data-name="패스 3" d="M19.011,37.022A17.011,17.011,0,0,1,19.011,3H206.131a17.011,17.011,0,1,1,0,34.022Z" transform="translate(-2 201.131)"/>
  <path id="패스_4" data-name="패스 4" d="M19.011,41.022A17.011,17.011,0,0,1,19.011,7h85.055a17.011,17.011,0,0,1,0,34.022Z" transform="translate(-2 129.088)"/>
  <path id="패스_5" data-name="패스 5" d="M19.011,45.022a17.011,17.011,0,0,1,0-34.022H87.055a17.011,17.011,0,1,1,0,34.022Z" transform="translate(-2 57.044)"/>
  <path id="패스_6" data-name="패스 6" d="M61.033,24.011a17.011,17.011,0,0,1,34.022,0v95.02l21.993-21.993a17.011,17.011,0,1,1,24.057,24.057L90.072,172.127a17.011,17.011,0,0,1-24.057,0L14.982,121.094A17.011,17.011,0,0,1,39.039,97.037l21.993,21.993Z" transform="translate(126.088 -7)"/>
</svg>
