<svg xmlns="http://www.w3.org/2000/svg" width="504.46" height="487.596" viewBox="0 0 504.46 487.596">
    <defs>
        <style>
            .cls-14,.cls-3{fill:#d6d8e5}.cls-14{isolation:isolate}.cls-2{fill:#b1b4c4}.cls-4{fill:#9ea1af}.cls-5{fill:#c4c7d6}.cls-8{fill:#e9eaf2}.cls-9{fill:#abf2ff}.cls-10{fill:#00d8ff}.cls-12{fill:none;stroke-miterlimit:10;stroke:#e9eaf2;stroke-width:.31px}.cls-14{opacity:.4}.cls-15{fill:#9ea2b2}
        </style>
    </defs>
    <g id="sec03_img_graph" transform="translate(-1120.66 -1858)">
        <g id="monitor" transform="translate(1273.66 1858)">
            <path id="패스_169" fill="#d6d8e5" d="M320.906 392.277l-67.064-38.723c-4.845-2.8-4.232-7.678 1.353-10.9l43.453-25.079 84.58 48.825-43.452 25.09c-5.596 3.226-14.037 3.573-18.87.787z" transform="translate(-181.178 51.296)" style="isolation:isolate" opacity="0.6"/>
            <path id="패스_170" d="M325.135 389.787l-67.064-38.735c-4.833-2.787-4.232-7.666 1.353-10.892l43.464-25.079 84.581 48.829-43.406 25.079c-5.643 3.237-14.095 3.584-18.928.798z" class="cls-2" transform="translate(-174.45 49.242)"/>
            <path id="패스_171" d="M370.058 357.655V355.1l-3.908 2.255z" class="cls-2" transform="translate(-157.05 55.496)"/>
            <path id="패스_172" d="M254.8 342.552v-2.6l4.012 1.665z" class="cls-2" transform="translate(-174.451 53.128)"/>
            <path id="패스_173" d="M325.135 387.567l-67.064-38.724c-4.833-2.8-4.232-7.666 1.353-10.892l43.464-25.091 84.581 48.84-43.406 25.08c-5.643 3.226-14.095 3.585-18.928.787z" class="cls-3" transform="translate(-174.45 48.895)"/>
            <path id="패스_174" d="M297.984 317.654L287.52 282.92l85.506 49.049 9.32 34.411z" class="cls-4" transform="translate(-169.338 44.216)"/>
            <path id="패스_175" d="M367.554 356.921l2.474-1.422-3.688-2.949z" class="cls-4" transform="translate(-157.02 55.097)"/>
            <path id="패스_176" d="M295.654 318.784L285.19 284.05l85.51 49.05 9.528 34.526z" class="cls-2" transform="translate(-169.702 44.393)"/>
            <path id="패스_177" d="M527.875 470.6L196.846 279.46c-4.625-2.683-8.406-9.875-8.406-16.061V7.366c0-6.2 3.769-9.042 8.406-6.359L527.875 192.1c4.625 2.683 8.406 9.875 8.406 16.061V464.2c-.035 6.183-3.781 9.027-8.406 6.4z" class="cls-5" transform="translate(-184.821 .004)"/>
            <path id="패스_178" d="M483.44 410.995l3.665-2.116-1.584-10.869z" class="cls-5" transform="translate(-138.721 62.201)"/>
            <path id="패스_179" d="M187.93 2.523L191.538.43l5.191 2.97s-5.527.844-5.666.809-3.133-1.686-3.133-1.686z" class="cls-2" transform="translate(-184.901 .071)"/>
            <path id="패스_180" fill="#c8c8c8" d="M525.208 472.065l-330.982-191.1c-4.625-2.683-8.406-9.863-8.406-16.061V8.874c0-6.186 3.758-9.03 8.406-6.348l330.982 191.1c4.625 2.683 8.406 9.875 8.406 16.061V465.74c0 6.16-3.757 9.007-8.406 6.325z" transform="translate(-185.23 .241)"/>
            <path id="패스_181" d="M524.71 472.355l-330.994-191.1c-4.625-2.683-8.406-9.875-8.406-16.061V9.164c0-6.186 3.769-9.03 8.406-6.348L524.71 193.971c4.625 2.671 8.406 9.863 8.406 16.061V466c0 6.193-3.77 9.037-8.406 6.355z" class="cls-3" transform="translate(-185.31 .286)"/>
            <path id="패스_182" fill="#fff" d="M527.984 456.034L189 260.289l.116-250.841c0-2.567 1.8-3.608 4.024-2.313l330.993 191.086a8.9 8.9 0 0 1 4.024 6.938z" transform="translate(-184.733 1.032)"/>
            <path id="패스_183" d="M319.619 112.2L211.022 49.5a3.954 3.954 0 0 1-1.642-3.157v-7.569c0-1.156.728-1.769 1.642-1.249l108.6 62.693a3.992 3.992 0 0 1 1.642 3.157v7.574c-.003 1.214-.743 1.78-1.645 1.251z" class="cls-8" transform="translate(-181.549 5.839)"/>
            <path id="패스_184" d="M291.664 111.038l-80.21-46.309a3.928 3.928 0 0 1-1.653-3.145v-3.769c0-1.156.74-1.781 1.653-1.249l80.21 46.309a3.943 3.943 0 0 1 1.619 3.145v3.769c0 1.211-.717 1.781-1.619 1.249z" class="cls-9" transform="translate(-181.483 8.814)"/>
            <path id="패스_185" d="M291.664 123.383l-80.21-46.251a3.928 3.928 0 0 1-1.653-3.145v-3.792c0-1.156.74-1.781 1.653-1.249l80.21 46.343a3.942 3.942 0 0 1 1.642 3.145v3.766c-.023 1.183-.74 1.727-1.642 1.183z" class="cls-9" transform="translate(-181.483 10.748)"/>
            <path id="패스_186" d="M276.528 127.028l-65.075-37.579A3.928 3.928 0 0 1 209.8 86.3v-3.765c0-1.156.74-1.781 1.653-1.249l65.075 37.567a3.966 3.966 0 0 1 1.653 3.157v3.769c.001 1.214-.739 1.769-1.653 1.249z" class="cls-10" transform="translate(-181.483 12.677)"/>
            <path id="패스_187" d="M319.619 241.958l-108.6-62.693a3.955 3.955 0 0 1-1.642-3.157v-7.574c0-1.214.728-1.769 1.642-1.249l108.6 62.693a3.992 3.992 0 0 1 1.642 3.157v7.574c0 1.215-.74 1.77-1.642 1.249z" class="cls-9" transform="translate(-181.549 26.116)"/>
            <path id="패스_188" d="M291.664 240.791l-80.21-46.251a3.966 3.966 0 0 1-1.653-3.157v-3.769c0-1.214.74-1.769 1.653-1.237l80.21 46.251a3.992 3.992 0 0 1 1.642 3.157v3.769c-.023 1.203-.74 1.758-1.642 1.237z" class="cls-8" transform="translate(-181.483 29.098)"/>
            <path id="패스_189" d="M291.664 253.156l-80.21-46.309a3.955 3.955 0 0 1-1.654-3.147v-3.769c0-1.156.74-1.769 1.653-1.237l80.21 46.251a3.992 3.992 0 0 1 1.642 3.157v3.769c-.022 1.251-.739 1.806-1.641 1.285z" class="cls-8" transform="translate(-181.483 31.024)"/>
            <path id="패스_190" d="M276.528 256.778l-65.075-37.567a3.953 3.953 0 0 1-1.653-3.157v-3.769c0-1.214.74-1.769 1.653-1.237l65.075 37.567a3.966 3.966 0 0 1 1.653 3.157v3.769c.001 1.214-.739 1.734-1.653 1.237z" class="cls-10" transform="translate(-181.483 32.953)"/>
            <path id="패스_191" fill="#f5f6ff" d="M330.009 249.206s11.979 10.06 29.277-3.677c12.349-10.129 23.391-4.348 29.543-.879s15.031 5.6 31.948 36.145c0 0 5.5 9.574 14.592 14.823s13.459 2.683 20.6-8.094 11.829-22.709 24.964-14.916V380.94L328.83 293.214V248.5z" transform="translate(-162.882 37.483)"/>
            <path id="패스_192" d="M315.548 225.082l-104.065-60.126a3.966 3.966 0 0 1-1.653-3.157v-60.045c0-1.156.74-1.769 1.653-1.249l104.064 60.126a3.966 3.966 0 0 1 1.653 3.157v60.068c0 1.191-.739 1.744-1.652 1.226z" class="cls-8" transform="translate(-181.478 15.681)"/>
            <path id="패스_193" d="M328.83 245.76v46.505l152.107 87.807V271.741" class="cls-12" transform="translate(-162.882 38.409)"/>
            <path id="선_1" d="M0 0L0 82.396" class="cls-12" transform="translate(225.727 282.678)"/>
            <path id="선_2" d="M0 0L0 57.143" class="cls-12" transform="translate(272.267 334.791)"/>
            <path id="패스_194" fill="none" stroke="#e9eaf2" stroke-miterlimit="10" stroke-width="1.53px" d="M328.83 248.493c26.987 16.731 30.8-21.09 60.207-4.116S414.382 283.47 436.086 296s22.212-36.422 44.852-23.345" transform="translate(-162.882 37.491)"/>
            <ellipse id="타원_29" cx="2.925" cy="5.076" class="cls-10" rx="2.925" ry="5.076" transform="rotate(-30 632.36 -271.856)"/>
            <ellipse id="타원_30" cx="2.935" cy="5.094" class="cls-10" rx="2.935" ry="5.094" transform="rotate(-29.89 735.863 -436.193)"/>
            <ellipse id="타원_31" cx="2.935" cy="5.094" class="cls-10" rx="2.935" ry="5.094" transform="rotate(-29.89 757.305 -338.135)"/>
            <ellipse id="타원_32" cx="2.925" cy="5.076" class="cls-10" rx="2.925" ry="5.076" transform="rotate(-30 608.639 -158.668)"/>
            <path id="패스_195" d="M333.606 183.4l-6.232-3.6a3.965 3.965 0 0 1-1.653-3.157v-30.058c0-1.214.74-1.769 1.653-1.249l6.232 3.608a3.931 3.931 0 0 1 1.688 3.087v30.121c0 1.214-.775 1.769-1.688 1.248z" class="cls-8" transform="translate(-163.368 22.685)"/>
            <path id="패스_196" d="M346.066 194.79l-6.232-3.608a3.928 3.928 0 0 1-1.653-3.145v-61.282c0-1.156.74-1.781 1.653-1.249l6.232 3.608a3.966 3.966 0 0 1 1.653 3.157v61.282c-.046 1.202-.786 1.757-1.653 1.237z" class="cls-10" transform="translate(-161.421 19.587)"/>
            <path id="패스_197" d="M370.856 208.314l-6.232-3.6a3.932 3.932 0 0 1-1.654-3.157v-55.312c0-1.214.74-1.769 1.654-1.249l6.232 3.6a3.966 3.966 0 0 1 1.653 3.157v55.328c0 1.21-.74 1.765-1.653 1.233z" class="cls-8" transform="translate(-157.547 22.632)"/>
            <path id="패스_198" d="M383.276 214.2l-6.232-3.6a3.965 3.965 0 0 1-1.654-3.157v-45.829c0-1.156.74-1.769 1.654-1.249l6.232 3.608a3.928 3.928 0 0 1 1.654 3.145v45.835c-.001 1.225-.741 1.78-1.654 1.247z" class="cls-10" transform="translate(-155.606 25.035)"/>
            <path id="패스_199" d="M408.006 225.35l-6.244-3.6a3.955 3.955 0 0 1-1.642-3.157v-22.647c0-1.226.729-1.781 1.642-1.249l6.244 3.6a3.992 3.992 0 0 1 1.642 3.157V224.1c0 1.215-.74 1.77-1.642 1.25z" class="cls-8" transform="translate(-151.742 30.398)"/>
            <path id="패스_200" d="M420.41 239.871l-6.186-3.608a3.928 3.928 0 0 1-1.653-3.145v-77.042c0-1.226.74-1.781 1.653-1.249l6.232 3.6a3.955 3.955 0 0 1 1.653 3.157v77.042c-.046 1.21-.786 1.765-1.699 1.245z" class="cls-10" transform="translate(-149.796 24.167)"/>
            <path id="패스_201" d="M450.706 250.011l-6.232-3.608a3.928 3.928 0 0 1-1.653-3.145V220.6c0-1.214.74-1.769 1.653-1.249l6.232 3.608a3.932 3.932 0 0 1 1.653 3.157v22.651c0 1.209-.74 1.764-1.653 1.244z" class="cls-8" transform="translate(-145.069 34.251)"/>
            <path id="패스_202" d="M463.126 258.172l-6.232-3.608a3.932 3.932 0 0 1-1.653-3.157v-30.062c0-1.214.74-1.769 1.653-1.249l6.232 3.6a3.965 3.965 0 0 1 1.654 3.157v30.117c-.001 1.202-.741 1.73-1.654 1.202z" class="cls-10" transform="translate(-143.128 34.368)"/>
        </g>
        <g id="그룹_3" transform="translate(1120.66 1896.985)">
            <path id="패스_3" d="M259.718 347.046l-15.308-8.391L258 330.81l15.308 8.391z" class="cls-14" transform="translate(-192.058 53.112)"/>
            <path id="패스_4" d="M330.638 388.8l-15.308-8.4 13.59-7.834 15.3 8.391z" class="cls-14" transform="translate(-180.672 59.815)"/>
            <path id="패스_5" d="M264.747 363.232L250.31 354.9l45.981-146.88 14.437 8.333z" class="cls-2" transform="translate(-191.111 33.398)"/>
            <path id="패스_6" d="M272.037 359.212l-14.437-8.333L303.581 204l14.426 8.333z" class="cls-15" transform="translate(-189.94 32.752)"/>
            <path id="패스_7" d="M264.747 363.232L250.31 354.9l45.981-146.88 14.437 8.333z" class="cls-2" transform="translate(-191.111 33.398)"/>
            <path id="패스_8" d="M347.909 405.13l-14.542-8.4-19.857-184.89 14.437 8.344z" class="cls-15" transform="translate(-180.964 34.011)"/>
            <path id="패스_9" d="M339.2 410.1l-14.542-8.4L304.8 216.81l14.437 8.333z" class="cls-2" transform="translate(-182.362 34.809)"/>
            <path id="패스_10" d="M470.567 307.036L199.3 150.419l12.255-7.079 271.268 156.616z" class="cls-3" transform="translate(-199.3 23.013)"/>
            <path id="패스_11" d="M470.567 320.185L199.3 163.569V149.41l271.267 156.616z" class="cls-2" transform="translate(-199.3 23.988)"/>
            <path id="패스_12" fill="#fff" stroke="#c9c9c9" d="M462.868 319.43L213.06 175.2V0l249.808 144.233z" transform="translate(-197.091)"/>
            <path id="패스_13" d="M445.493 292.359l-12.453 7.184v-14.379l12.453-7.184z" class="cls-15" transform="translate(-161.773 44.63)"/>
            <path id="패스_14" d="M249.6 47.733l-20.69-11.942V27.83l20.69 11.942z" class="cls-3" transform="translate(-194.546 4.468)"/>
            <path id="패스_15" d="M290.725 71.479L254.33 50.473V42.5l36.395 21.018z" class="cls-3" transform="translate(-190.465 6.823)"/>
            <path id="패스_16" d="M249.6 60.693l-20.69-11.942V40.79l20.69 11.942z" class="cls-3" transform="translate(-194.546 6.549)"/>
            <path id="패스_17" d="M290.725 84.439L254.33 63.433V55.46l36.395 21.018z" class="cls-3" transform="translate(-190.465 8.904)"/>
            <path id="패스_18" d="M249.6 75.565l-20.69-11.942V55.65L249.6 67.6z" class="cls-3" transform="translate(-194.546 8.935)"/>
            <path id="패스_19" d="M290.725 99.309L254.33 78.291V70.33l36.395 21.018z" class="cls-3" transform="translate(-190.465 11.292)"/>
            <path id="패스_20" d="M249.6 90.435l-20.69-11.954V70.52l20.69 11.942z" class="cls-3" transform="translate(-194.546 11.322)"/>
            <path id="패스_21" d="M290.725 114.179L254.33 93.161V85.2l36.395 21.018z" class="cls-3" transform="translate(-190.465 13.679)"/>
            <path id="패스_22" fill="#baff00" d="M308.861 83.915c4.584-5.919 12.766-6.87 22.167-1.462.905.522 1.8 1.091 2.669 1.694l-2.611 28.387-22.306-28.5z" transform="translate(-181.723 12.666)"/>
            <path id="패스_23" fill="#ffce00" d="M352.3 115.184l-24.372-3.377L330.6 83.42c9.98 6.928 18.3 19.37 21.7 31.764z" transform="translate(-178.649 13.393)"/>
            <path id="패스_24" fill="#ff3100" d="M354 122.921c0 12.766-6.963 19.729-16.677 18.464L328 107.88l24.372 3.377A43.412 43.412 0 0 1 354 122.921z" transform="translate(-178.637 17.32)"/>
            <path id="패스_25" d="M309.307 83.336C306.893 86.5 305.5 91.065 305.5 96.8c0 16.619 11.664 36.813 26.054 45.122a25.755 25.755 0 0 0 9.366 3.412l-9.308-33.493-22.166-28.621z" class="cls-10" transform="translate(-182.25 13.361)"/>
            <path id="패스_26" fill="#3100ff" d="M370.936 119.756c4.584-5.919 12.766-6.87 22.167-1.474.905.522 1.787 1.091 2.669 1.706l-2.693 28.387-22.259-28.515z" transform="translate(-171.763 18.419)"/>
            <path id="패스_27" d="M414.372 151.013L390 147.647l2.669-28.387c9.981 6.917 18.291 19.358 21.703 31.753z" class="cls-10" transform="translate(-168.683 19.147)"/>
            <path id="패스_28" fill="#010000" d="M416.078 158.761c0 12.766-6.963 19.729-16.677 18.453L390 143.72l24.372 3.366a44.016 44.016 0 0 1 1.706 11.675z" transform="translate(-168.683 23.074)"/>
            <path id="패스_29" fill="#bcf5ff" d="M371.365 119.164c-2.4 3.18-3.795 7.729-3.795 13.462 0 16.619 11.664 36.824 26.054 45.134a25.531 25.531 0 0 0 9.366 3.4l-9.39-33.481-22.165-28.619z" transform="translate(-172.284 19.115)"/>
            <path id="패스_30" fill="none" stroke="#d6d8e5" stroke-miterlimit="10" stroke-width="1.42px" d="M308.78 192.325s17.652-33.656 62.484 9.284 56.147 9.633 56.147 9.633" transform="translate(-181.723 28.864)"/>
            <ellipse id="타원_2" cx="3.052" cy="5.281" class="cls-3" rx="3.052" ry="5.281" transform="rotate(-30 470.561 -193.75)"/>
            <ellipse id="타원_3" cx="3.052" cy="5.281" class="cls-3" rx="3.052" ry="5.281" transform="rotate(-30 454.595 -134.626)"/>
            <ellipse id="타원_4" cx="3.063" cy="5.299" class="cls-3" rx="3.063" ry="5.299" transform="rotate(-29.89 540.024 -248.353)"/>
            <ellipse id="타원_5" cx="3.052" cy="5.281" class="cls-3" rx="3.052" ry="5.281" transform="rotate(-30 576.138 -309.56)"/>
            <path id="패스_31" d="M235.989 153.3l-7.079-4.1v-24.55l7.079 4.1z" class="cls-3" transform="translate(-194.546 20.013)"/>
            <path id="패스_32" d="M252.891 164.247l-7.091-4.1V126.97l7.091 4.1z" class="cls-3" transform="translate(-191.835 20.385)"/>
            <path id="패스_33" d="M269.781 175.984l-7.091-4.084v-47.56l7.091 4.085z" class="cls-3" transform="translate(-189.123 19.963)"/>
            <path id="패스_34" d="M286.671 187.326l-7.091-4.085V124.18l7.091 4.085z" class="cls-3" transform="translate(-186.411 19.937)"/>
            <path id="패스_35" d="M334.716 385.914l10.108-5.768-12.1-12.7z" class="cls-15" transform="translate(-177.88 58.994)"/>
            <path id="패스_36" d="M262.75 344.062l8.46-4.665-3.25-11.977z" class="cls-15" transform="translate(-189.113 52.567)"/>
        </g>
    </g>
</svg>
