<svg xmlns="http://www.w3.org/2000/svg" width="343.546" height="431.694" viewBox="0 0 343.546 431.694">
    <defs>
        <style>
            .cls-2{fill:#dd990e}.cls-3{fill:#f9cb07}.cls-4{fill:#cc8b09}.cls-5{fill:#e8a30a}.cls-6{fill:#f9ca06}.cls-7{fill:#ffcea9}.cls-8{fill:#00313a}.cls-12{fill:#f4f4f4}.cls-13{fill:#3a2c6d}.cls-15{fill:#e5e5e5}.cls-18{fill:#ededed}.cls-19{fill:#707070}
        </style>
    </defs>
    <g id="sec02_img_human" transform="translate(-299.394 -276.741)">
        <path id="패스_371" fill="#fff" d="M139.976 0c77.306 0 139.976 36.186 139.976 80.825s-62.669 80.825-139.976 80.825S0 125.463 0 80.825 62.669 0 139.976 0z" opacity="0.6" transform="translate(362.989 546.786)"/>
        <g id="Coin-22" transform="translate(299.394 476.647)">
            <ellipse id="타원_34" cx="139.976" cy="80.825" class="cls-2" rx="139.976" ry="80.825" transform="translate(0 34.648)"/>
            <path id="패스_203" d="M295.93 406.5v-36.82l27.664 24.62z" class="cls-2" transform="translate(-295.87 -289.819)"/>
            <path id="패스_204" d="M402.962 370v34.648l-14.118 14.991-6.924-39.645z" class="cls-2" transform="translate(-123.01 -289.175)"/>
            <ellipse id="타원_35" cx="139.976" cy="80.825" class="cls-3" rx="139.976" ry="80.825"/>
            <path id="패스_205" d="M509.325 411.778c-1.415 13.606-11.108 27.092-29.139 37.447-39.133 22.577-102.589 22.577-141.722 0-18.061-10.415-27.754-23.841-29.139-37.447-1.686-15.924 8.037-32.209 29.139-44.341 39.133-22.637 102.589-22.637 141.722 0 21.191 12.132 30.824 28.417 29.139 44.341z" class="cls-4" transform="translate(-269.319 -328.455)"/>
            <path id="패스_206" d="M509.2 407.155c-1.415 13.606-11.108 27.092-29.139 37.447-39.133 22.577-102.589 22.577-141.722 0-18.061-10.415-27.754-23.841-29.139-37.447 1.385-13.606 11.078-27.092 29.139-37.417 39.133-22.637 102.589-22.637 141.722 0 18.181 10.415 27.724 23.811 29.139 37.417z" class="cls-5" transform="translate(-269.194 -323.832)"/>
            <path id="패스_207" d="M373.551 370.913a21.734 21.734 0 0 0-3.672.3c-1.656.241-3.492.572-5.539.993s-4.184.993-6.382 1.656a45.537 45.537 0 0 0-6.261 2.378l16.044 9.3 3.01-1.024c4.094-1.355 7.947-2.529 11.589-3.462a51.5 51.5 0 0 1 10.415-1.716 35.964 35.964 0 0 1 9.573.632 30.03 30.03 0 0 1 9.181 3.582 18.331 18.331 0 0 1 6.924 6.021 8.306 8.306 0 0 1 1.023 6.291 14.038 14.038 0 0 1-3.763 6.2 40.362 40.362 0 0 1-7.345 5.81l10.235 6.021-5.689 3.161-10.325-6.02a83.776 83.776 0 0 1-15.352 5.81 101.839 101.839 0 0 1-16.917 3.161l-5.419-9.663a41.933 41.933 0 0 0 4.515-.361 61.608 61.608 0 0 0 6.743-1.144c2.5-.542 5.117-1.2 7.887-2.017a59.028 59.028 0 0 0 7.857-3.01l-16.014-9.241-2.077.722-2.2.662a88.66 88.66 0 0 1-11.078 3.01 50.257 50.257 0 0 1-9.452 1.264 32.39 32.39 0 0 1-8.308-.783 28.011 28.011 0 0 1-7.736-3.01 19.335 19.335 0 0 1-6.683-5.75 9.359 9.359 0 0 1-1.806-6.2 11.554 11.554 0 0 1 2.649-6.261 27.852 27.852 0 0 1 6.5-6.02l-9.482-5.479 5.569-3.221 9.392 5.419a68.4 68.4 0 0 1 13.817-5.057 98.64 98.64 0 0 1 13.817-2.5zM346.188 387.8a11.834 11.834 0 0 0 6.984 1.505 46.6 46.6 0 0 0 9.573-2.167l-15.051-8.7c-5.54 3.612-6.021 6.743-1.506 9.362zm52.86 4.395a12.379 12.379 0 0 0-7.556-1.355 63.967 63.967 0 0 0-10.506 2.318l15.051 8.639c6.322-3.883 7.345-7.104 3.011-9.602z" class="cls-4" transform="translate(-235.02 -306.524)"/>
            <path id="패스_208" d="M339.05 381.279q.135-2.709 0-5.418l6.171 3.944-2.679 4.094z" class="cls-4" transform="translate(-209.189 -277.395)"/>
            <path id="패스_209" d="M365.765 382.418V377l-13.335 1.024 7.646 5.208z" class="cls-4" transform="translate(-182.292 -275.104)"/>
            <path id="패스_210" d="M363.884 375.839v-5.479l-9.964 3.612z" class="cls-4" transform="translate(-179.297 -288.452)"/>
            <path id="패스_211" d="M343.52 374.221l3.311-3.191 11.68 8.1-.722 2.378s-8.73-3.7-9.031-3.913z" class="cls-4" transform="translate(-200.203 -287.105)"/>
            <path id="패스_212" d="M333.35 368.762l15.533 8.79 3.161-2.318s-1.957-2.228-2.077-2.438a20.722 20.722 0 0 0-4.846-4.034c-1.144-.241-8.519-3.522-8.519-3.522z" class="cls-4" transform="translate(-220.647 -298.744)"/>
            <path id="패스_213" d="M347.7 369.706v-5.419l-7.134-2.318-1.505 4.275.361 1.927z" class="cls-4" transform="translate(-209.169 -305.317)"/>
            <path id="패스_214" d="M326.2 366.858v-5.418l8.248.873-2.649 5.268z" class="cls-4" transform="translate(-235.02 -306.383)"/>
            <path id="패스_215" d="M326.3 373.139v-5.659h9.482l-2.318 5.057-4.124 4.515z" class="cls-4" transform="translate(-234.819 -294.241)"/>
            <path id="패스_216" d="M373.551 369.112a21.744 21.744 0 0 0-3.672.3c-1.656.241-3.492.572-5.539.993s-4.184.963-6.382 1.626a45.675 45.675 0 0 0-6.261 2.408l16.075 9.271 3.01-.993c4.094-1.385 7.947-2.529 11.589-3.492a55.949 55.949 0 0 1 10.415-1.716 37.272 37.272 0 0 1 9.573.662 30.9 30.9 0 0 1 9.181 3.552 18.406 18.406 0 0 1 6.924 6.02 8.277 8.277 0 0 1 1.023 6.291 14.2 14.2 0 0 1-3.763 6.2 39.168 39.168 0 0 1-7.345 5.78l10.235 6.02-5.719 3.221-10.325-6.02a83.9 83.9 0 0 1-15.352 5.78 99.094 99.094 0 0 1-16.917 3.191l-5.419-9.663a41.909 41.909 0 0 0 4.515-.361c2.017-.241 4.274-.6 6.743-1.144s5.117-1.234 7.887-2.017a55.5 55.5 0 0 0 7.857-3.01l-16.015-9.211-2.077.723-2.2.662a94.2 94.2 0 0 1-11.078 3.01 50.26 50.26 0 0 1-9.452 1.264 31.086 31.086 0 0 1-8.308-.783 27.918 27.918 0 0 1-7.736-3.01 19.335 19.335 0 0 1-6.683-5.749 9.414 9.414 0 0 1-1.806-6.2 11.455 11.455 0 0 1 2.649-6.261 27.853 27.853 0 0 1 6.5-6.02l-9.482-5.479 5.569-3.221 9.392 5.418a68.682 68.682 0 0 1 13.817-5.087 108.051 108.051 0 0 1 13.817-2.5zm-27.363 16.858a11.626 11.626 0 0 0 6.984 1.505 46.155 46.155 0 0 0 9.573-2.137l-15.051-8.7c-5.54 3.612-6.021 6.743-1.506 9.332zm52.86 4.425a12.035 12.035 0 0 0-7.556-1.355 60.834 60.834 0 0 0-10.506 2.318L396.037 400q9.514-6.022 3.011-9.605z" class="cls-6" transform="translate(-235.02 -310.142)"/>
        </g>
        <g id="Coin-23" transform="translate(299.394 431.313)">
            <ellipse id="타원_36" cx="139.976" cy="80.825" class="cls-2" rx="139.976" ry="80.825" transform="translate(0 34.648)"/>
            <path id="패스_217" d="M295.93 391.435V354.62l27.664 24.624z" class="cls-2" transform="translate(-295.87 -274.759)"/>
            <path id="패스_218" d="M402.962 354.94v34.618l-14.118 15.021-6.924-39.645z" class="cls-2" transform="translate(-123.01 -274.115)"/>
            <ellipse id="타원_37" cx="139.976" cy="80.825" class="cls-3" rx="139.976" ry="80.825"/>
            <path id="패스_219" d="M509.325 396.723c-1.415 13.606-11.108 27.092-29.139 37.447-39.133 22.577-102.589 22.577-141.722 0-18.061-10.415-27.754-23.841-29.139-37.447-1.686-15.924 8.037-32.209 29.139-44.371 39.133-22.607 102.589-22.607 141.722 0 21.191 12.162 30.824 28.448 29.139 44.371z" class="cls-4" transform="translate(-269.319 -313.4)"/>
            <path id="패스_220" d="M509.2 392.095c-1.415 13.606-11.108 27.092-29.139 37.447-39.133 22.577-102.589 22.577-141.722 0-18.061-10.415-27.754-23.841-29.139-37.447 1.385-13.606 11.078-27.092 29.139-37.417 39.133-22.637 102.589-22.637 141.722 0 18.181 10.415 27.724 23.811 29.139 37.417z" class="cls-5" transform="translate(-269.194 -308.772)"/>
            <path id="패스_221" d="M373.551 355.853a21.75 21.75 0 0 0-3.672.3c-1.656.241-3.492.572-5.539.993s-4.184.993-6.382 1.656a45.548 45.548 0 0 0-6.261 2.378l16.075 9.3 3.01-1.024c4.094-1.355 7.947-2.529 11.589-3.462a51.508 51.508 0 0 1 10.415-1.716 35.967 35.967 0 0 1 9.573.632 30.028 30.028 0 0 1 9.181 3.582 18.332 18.332 0 0 1 6.924 6.02 8.305 8.305 0 0 1 1.023 6.291 14.037 14.037 0 0 1-3.763 6.2 40.353 40.353 0 0 1-7.345 5.81l10.235 6.021-5.719 3.166-10.325-6.02a83.778 83.778 0 0 1-15.352 5.81 101.842 101.842 0 0 1-16.917 3.161l-5.419-9.663a41.917 41.917 0 0 0 4.515-.361 61.586 61.586 0 0 0 6.743-1.144c2.5-.542 5.117-1.2 7.887-2.017a59.032 59.032 0 0 0 7.857-3.01l-16.014-9.241-2.077.722-2.2.662a88.681 88.681 0 0 1-11.078 3.01 50.255 50.255 0 0 1-9.452 1.264 32.394 32.394 0 0 1-8.308-.783 28.013 28.013 0 0 1-7.736-3.01 19.335 19.335 0 0 1-6.683-5.75 9.359 9.359 0 0 1-1.806-6.2 11.554 11.554 0 0 1 2.649-6.261 27.85 27.85 0 0 1 6.5-6.02l-9.482-5.479 5.569-3.221 9.392 5.418a68.392 68.392 0 0 1 13.817-5.057 98.626 98.626 0 0 1 13.817-2.5zm-27.363 16.887a11.835 11.835 0 0 0 6.984 1.505 46.6 46.6 0 0 0 9.573-2.167l-15.051-8.7c-5.54 3.612-6.021 6.743-1.506 9.362zm52.86 4.395a12.035 12.035 0 0 0-7.556-1.355 63.982 63.982 0 0 0-10.506 2.318l15.051 8.639c6.322-3.883 7.345-7.104 3.011-9.602z" class="cls-4" transform="translate(-235.02 -291.464)"/>
            <path id="패스_222" d="M339.05 366.239c.181-.391 0-5.448 0-5.448l6.171 3.973-2.679 4.094z" class="cls-4" transform="translate(-209.189 -262.355)"/>
            <path id="패스_223" d="M365.765 367.358v-5.418l-13.335.993 7.646 5.238z" class="cls-4" transform="translate(-182.292 -260.044)"/>
            <path id="패스_224" d="M363.884 360.779V355.3l-9.964 3.612z" class="cls-4" transform="translate(-179.297 -273.392)"/>
            <path id="패스_225" d="M343.52 359.131l3.311-3.191 11.68 8.1-.722 2.378s-8.73-3.7-9.031-3.913z" class="cls-4" transform="translate(-200.203 -272.105)"/>
            <path id="패스_226" d="M333.35 353.7l15.533 8.79 3.161-2.318s-1.957-2.228-2.077-2.438a20.721 20.721 0 0 0-4.846-4.034c-1.144-.241-8.519-3.522-8.519-3.522z" class="cls-4" transform="translate(-220.647 -283.684)"/>
            <path id="패스_227" d="M347.7 354.646v-5.418l-7.134-2.318-1.505 4.244.361 1.957z" class="cls-4" transform="translate(-209.169 -290.257)"/>
            <path id="패스_228" d="M326.2 351.8v-5.42l8.248.873-2.649 5.268z" class="cls-4" transform="translate(-235.02 -291.323)"/>
            <path id="패스_229" d="M326.3 358.079v-5.659h9.482l-2.318 5.057-4.124 4.515z" class="cls-4" transform="translate(-234.819 -279.181)"/>
            <path id="패스_230" d="M373.551 354.073a21.741 21.741 0 0 0-3.672.3c-1.656.241-3.492.572-5.539.993s-4.184.963-6.382 1.626a45.7 45.7 0 0 0-6.258 2.408l16.075 9.271 3.01-1.024c4.094-1.355 7.947-2.5 11.589-3.462a55.967 55.967 0 0 1 10.415-1.716 37.279 37.279 0 0 1 9.573.662 30.9 30.9 0 0 1 9.181 3.552 18.406 18.406 0 0 1 6.924 6.021 8.277 8.277 0 0 1 1.02 6.296 14.2 14.2 0 0 1-3.763 6.2 39.167 39.167 0 0 1-7.345 5.78l10.235 6.02-5.719 3.191-10.325-6.02a83.906 83.906 0 0 1-15.352 5.78 99.1 99.1 0 0 1-16.917 3.191l-5.419-9.693a33.835 33.835 0 0 0 4.515-.331c2.017-.241 4.274-.632 6.743-1.144s5.117-1.234 7.887-2.017a59.623 59.623 0 0 0 7.857-3.01l-16.014-9.211-2.077.722-2.2.662a94.2 94.2 0 0 1-11.078 3.01 50.257 50.257 0 0 1-9.452 1.264 31.09 31.09 0 0 1-8.308-.783 27.923 27.923 0 0 1-7.736-3.01 19.336 19.336 0 0 1-6.683-5.75 9.414 9.414 0 0 1-1.806-6.2 11.456 11.456 0 0 1 2.649-6.261 27.857 27.857 0 0 1 6.5-6.02l-9.482-5.479 5.569-3.221 9.392 5.418a68.688 68.688 0 0 1 13.82-5.088 108.067 108.067 0 0 1 13.817-2.5zm-27.363 16.857a11.625 11.625 0 0 0 6.984 1.505 46.151 46.151 0 0 0 9.573-2.137l-15.051-8.7c-5.54 3.612-6.021 6.743-1.506 9.332zm52.86 4.425a12.034 12.034 0 0 0-7.556-1.355 60.843 60.843 0 0 0-10.506 2.318l15.051 8.639q9.514-5.838 3.011-9.602z" class="cls-6" transform="translate(-235.02 -295.102)"/>
        </g>
        <g id="Coin-24" transform="translate(308.485 379.929)">
            <ellipse id="타원_38" cx="139.976" cy="80.825" class="cls-2" rx="139.976" ry="80.825" transform="translate(0 34.648)"/>
            <path id="패스_231" d="M298.94 374.365V337.55l27.66 24.624z" class="cls-2" transform="translate(-298.91 -257.689)"/>
            <path id="패스_232" d="M406 337.87v34.648l-14.148 14.991-6.924-39.645z" class="cls-2" transform="translate(-126.05 -257.045)"/>
            <ellipse id="타원_39" cx="139.976" cy="80.825" class="cls-3" rx="139.976" ry="80.825"/>
            <path id="패스_233" d="M512.365 379.648c-1.445 13.636-11.138 27.092-29.169 37.447-39.133 22.577-102.589 22.577-141.722 0-18.061-10.415-27.754-23.811-29.139-37.447-1.686-15.924 8.037-32.21 29.139-44.341 39.133-22.637 102.589-22.637 141.722 0 21.161 12.132 30.824 28.417 29.169 44.341z" class="cls-4" transform="translate(-272.359 -296.325)"/>
            <path id="패스_234" d="M512.24 375.025c-1.445 13.636-11.138 27.092-29.169 37.447-39.133 22.577-102.589 22.577-141.722 0-18.061-10.415-27.754-23.811-29.139-37.447 1.385-13.606 11.108-27.092 29.139-37.417 39.133-22.637 102.589-22.637 141.722 0 18.151 10.415 27.724 23.811 29.169 37.417z" class="cls-5" transform="translate(-272.234 -291.702)"/>
            <path id="패스_235" d="M376.581 338.792a20.825 20.825 0 0 0-3.672.271c-1.656.241-3.492.572-5.539.993s-4.154.993-6.382 1.656a45.533 45.533 0 0 0-6.261 2.378l16.075 9.3 3.01-1.023c4.094-1.355 7.947-2.529 11.589-3.462a51.943 51.943 0 0 1 10.415-1.716 36.06 36.06 0 0 1 9.6.632 31.233 31.233 0 0 1 9.031 3.582 18.333 18.333 0 0 1 6.924 6.021 8.182 8.182 0 0 1 1.023 6.291 13.767 13.767 0 0 1-3.763 6.2 39.449 39.449 0 0 1-7.345 5.81l10.235 6.021-5.629 3.161-10.325-6.02a83.782 83.782 0 0 1-15.352 5.81 101.846 101.846 0 0 1-16.917 3.161l-5.388-9.663a41.927 41.927 0 0 0 4.515-.361 63.082 63.082 0 0 0 6.743-1.144c2.468-.542 5.087-1.2 7.857-2.017a56.368 56.368 0 0 0 7.857-3.01l-16.014-9.241-2.077.722-2.2.662a88.668 88.668 0 0 1-11.078 3.01 50.23 50.23 0 0 1-9.422 1.264 32.61 32.61 0 0 1-8.338-.783 27.516 27.516 0 0 1-7.706-3.01 19.767 19.767 0 0 1-6.713-5.72 9.837 9.837 0 0 1-1.806-6.231 11.463 11.463 0 0 1 2.649-6.231 29.146 29.146 0 0 1 6.5-6.02l-9.482-5.479 5.569-3.221 9.422 5.418a69.031 69.031 0 0 1 13.817-5.057 97.344 97.344 0 0 1 13.817-2.5zm-27.363 16.858a11.835 11.835 0 0 0 6.984 1.505 44.853 44.853 0 0 0 9.6-2.167l-15.051-8.7q-8.308 5.418-1.535 9.3zm52.86 4.4a12.3 12.3 0 0 0-7.525-1.355 64.341 64.341 0 0 0-10.536 2.318l15.051 8.639c6.321-3.888 7.344-7.109 3.01-9.607z" class="cls-4" transform="translate(-238.08 -274.374)"/>
            <path id="패스_236" d="M342.07 349.148c.15-.391 0-5.418 0-5.418l6.02 3.943-2.679 4.124z" class="cls-4" transform="translate(-212.209 -245.265)"/>
            <path id="패스_237" d="M368.775 350.288v-5.418l-13.335 1.023 7.676 5.208z" class="cls-4" transform="translate(-185.332 -242.974)"/>
            <path id="패스_238" d="M366.894 343.709v-5.479l-9.964 3.612z" class="cls-4" transform="translate(-182.337 -256.322)"/>
            <path id="패스_239" d="M346.53 342.131l3.311-3.191 11.68 8.1-.722 2.378s-8.73-3.672-9.031-3.913z" class="cls-4" transform="translate(-203.243 -254.894)"/>
            <path id="패스_240" d="M336.37 336.632l15.5 8.79 3.161-2.318s-1.927-2.228-2.077-2.438a20.2 20.2 0 0 0-4.846-4.034c-1.144-.211-8.519-3.522-8.519-3.522z" class="cls-4" transform="translate(-223.667 -266.614)"/>
            <path id="패스_241" d="M350.709 337.607v-5.449l-7.134-2.318-1.505 4.275.361 1.926z" class="cls-4" transform="translate(-212.209 -273.187)"/>
            <path id="패스_242" d="M329.21 334.728v-5.418l8.248.873-2.649 5.268z" class="cls-4" transform="translate(-238.06 -274.253)"/>
            <path id="패스_243" d="M329.31 340.989v-5.629h9.482l-2.318 5.027-4.094 4.513z" class="cls-4" transform="translate(-237.859 -262.091)"/>
            <path id="패스_244" d="M376.581 336.982a21.754 21.754 0 0 0-3.672.3c-1.656.241-3.492.572-5.539.993s-4.154.963-6.382 1.626a45.7 45.7 0 0 0-6.261 2.408l16.075 9.3 3.01-1.023c4.094-1.385 7.947-2.529 11.589-3.462a54.072 54.072 0 0 1 10.415-1.746 37.51 37.51 0 0 1 9.6.662 30.393 30.393 0 0 1 9.031 3.582 18.067 18.067 0 0 1 6.924 6.021 8.182 8.182 0 0 1 1.023 6.291 13.893 13.893 0 0 1-3.763 6.2 39.448 39.448 0 0 1-7.345 5.81l10.235 6.02-5.629 3.161-10.325-6.021a86.052 86.052 0 0 1-15.352 5.81 101.85 101.85 0 0 1-16.917 3.161l-5.388-9.663a41.873 41.873 0 0 0 4.515-.361c2.017-.241 4.244-.6 6.743-1.144s5.087-1.2 7.857-2.017a56.364 56.364 0 0 0 7.857-3.01l-16.014-9.241-2.077.722-2.2.662a88.664 88.664 0 0 1-11.078 3.01 50.228 50.228 0 0 1-9.422 1.264 34.033 34.033 0 0 1-8.338-.783 28.474 28.474 0 0 1-7.706-3.01 19.462 19.462 0 0 1-6.713-5.75 9.789 9.789 0 0 1-1.806-6.2 11.554 11.554 0 0 1 2.649-6.261 29.146 29.146 0 0 1 6.5-6.02L329.2 332.8l5.569-3.221 9.422 5.421a67.207 67.207 0 0 1 13.817-5.057 97.322 97.322 0 0 1 13.817-2.5zm-27.363 16.888a11.592 11.592 0 0 0 6.984 1.475 44.472 44.472 0 0 0 9.6-2.137l-15.051-8.7q-8.308 5.419-1.535 9.362zm52.86 4.395a12.025 12.025 0 0 0-7.525-1.355 61.233 61.233 0 0 0-10.536 2.318l15.051 8.639c6.322-3.883 7.345-7.1 3.01-9.6z" class="cls-6" transform="translate(-238.08 -278.012)"/>
        </g>
        <g id="Coin-25" transform="translate(305.445 328.544)">
            <ellipse id="타원_40" cx="139.976" cy="80.825" class="cls-2" rx="139.976" ry="80.825" transform="translate(0 34.648)"/>
            <path id="패스_245" d="M297.94 357.325V320.48l27.66 24.654z" class="cls-2" transform="translate(-297.88 -240.619)"/>
            <path id="패스_246" d="M404.992 320.8v34.648l-14.148 15.021-6.923-39.675z" class="cls-2" transform="translate(-125.04 -239.975)"/>
            <ellipse id="타원_41" cx="139.976" cy="80.825" class="cls-3" rx="139.976" ry="80.825"/>
            <path id="패스_247" d="M511.335 362.594c-1.415 13.606-11.108 27.092-29.139 37.417-39.133 22.577-102.589 22.577-141.722 0-18.062-10.411-27.754-23.811-29.139-37.417-1.686-15.954 8.037-32.21 29.139-44.371 39.133-22.607 102.559-22.607 141.722 0 21.161 12.161 30.794 28.416 29.139 44.371z" class="cls-4" transform="translate(-271.329 -279.24)"/>
            <path id="패스_248" d="M511.21 357.97c-1.415 13.606-11.108 27.092-29.139 37.417-39.133 22.577-102.589 22.577-141.722 0-18.061-10.415-27.754-23.811-29.139-37.417 1.385-13.636 11.078-27.092 29.139-37.447 39.133-22.607 102.559-22.607 141.722 0 18.151 10.415 27.724 23.811 29.139 37.447z" class="cls-5" transform="translate(-271.204 -274.617)"/>
            <path id="패스_249" d="M375.561 321.642a20.823 20.823 0 0 0-3.672.271c-1.656.241-3.492.572-5.539.993s-4.184.993-6.382 1.656a45.931 45.931 0 0 0-6.291 2.378l16.044 9.3 3.01-1.023c4.094-1.355 7.947-2.5 11.589-3.462a53.778 53.778 0 0 1 10.415-1.716 35.962 35.962 0 0 1 9.572.632 31.033 31.033 0 0 1 9.031 3.582 18.331 18.331 0 0 1 6.924 6.021 8.333 8.333 0 0 1 1.023 6.291 13.837 13.837 0 0 1-3.763 6.2 39.641 39.641 0 0 1-7.375 5.81l10.235 6.02-5.509 3.161-10.325-6.02a83.266 83.266 0 0 1-15.352 5.81 101.634 101.634 0 0 1-16.948 3.161l-5.388-9.663a26.006 26.006 0 0 0 4.515-.331c2.017-.331 4.274-.632 6.743-1.174s5.117-1.2 7.857-2.017a54.273 54.273 0 0 0 7.887-3.01l-16.014-9.241-2.107.722-2.167.692A95.819 95.819 0 0 1 362.5 349.7a50.261 50.261 0 0 1-9.452 1.264 32.258 32.258 0 0 1-8.308-.783 28.939 28.939 0 0 1-7.736-3.01 20.013 20.013 0 0 1-6.683-5.749 9.668 9.668 0 0 1-1.836-6.2 12.032 12.032 0 0 1 2.649-6.261 28.693 28.693 0 0 1 6.532-6.02l-9.452-5.358 5.569-3.221 9.392 5.448a67.3 67.3 0 0 1 13.817-5.087 98.644 98.644 0 0 1 13.817-2.5zM348.2 338.5a11.768 11.768 0 0 0 6.982 1.5 46.545 46.545 0 0 0 9.572-2.137l-15.051-8.73c-5.539 3.642-6.02 6.743-1.505 9.512zm52.86 4.395a12.046 12.046 0 0 0-7.556-1.325A60.472 60.472 0 0 0 383 343.858l15.051 8.669c6.318-3.913 7.341-7.104 3.007-9.633z" class="cls-4" transform="translate(-237.03 -257.223)"/>
            <path id="패스_250" d="M341.06 332.078c.15-.391 0-5.418 0-5.418l6.02 3.943-2.649 4.124z" class="cls-4" transform="translate(-211.199 -228.195)"/>
            <path id="패스_251" d="M367.745 333.219V327.8l-13.305 1.024 7.646 5.208z" class="cls-4" transform="translate(-184.302 -225.904)"/>
            <path id="패스_252" d="M365.894 326.669v-5.509l-9.964 3.612z" class="cls-4" transform="translate(-181.307 -239.252)"/>
            <path id="패스_253" d="M345.52 325.021l3.341-3.191 11.68 8.1-.723 2.378s-8.73-3.672-9.031-3.883-5.267-3.404-5.267-3.404z" class="cls-4" transform="translate(-202.233 -237.905)"/>
            <path id="패스_254" d="M335.36 319.562l15.5 8.79 3.191-2.288s-1.957-2.258-2.107-2.468a19.921 19.921 0 0 0-4.816-4.034c-1.144-.211-8.519-3.522-8.519-3.522z" class="cls-4" transform="translate(-222.657 -249.544)"/>
            <path id="패스_255" d="M349.729 320.536v-5.448l-7.129-2.318-1.535 4.275.391 1.957z" class="cls-4" transform="translate(-211.199 -256.117)"/>
            <path id="패스_256" d="M328.21 317.659v-5.419l8.248.9-2.679 5.268z" class="cls-4" transform="translate(-237.03 -257.183)"/>
            <path id="패스_257" d="M328.31 323.919v-5.629h9.452l-2.288 5.057-4.124 4.515z" class="cls-4" transform="translate(-236.829 -245.021)"/>
            <path id="패스_258" d="M375.581 319.912a21.749 21.749 0 0 0-3.673.3c-1.656.241-3.492.572-5.539.993s-4.184.993-6.382 1.655a45.96 45.96 0 0 0-6.291 2.378l16.045 9.3 3.01-1.023c4.094-1.355 7.947-2.529 11.589-3.462a51.5 51.5 0 0 1 10.415-1.716 35.974 35.974 0 0 1 9.572.632 30.168 30.168 0 0 1 9.031 3.582 18.332 18.332 0 0 1 6.924 6.02 8.306 8.306 0 0 1 1.023 6.291 14.037 14.037 0 0 1-3.763 6.2 39.649 39.649 0 0 1-7.375 5.81L420.4 362.9l-5.509 3.161-10.325-6.02a85.52 85.52 0 0 1-15.352 5.81 101.64 101.64 0 0 1-16.948 3.161l-5.388-9.663a41.9 41.9 0 0 0 4.515-.361 61.592 61.592 0 0 0 6.743-1.144c2.5-.542 5.117-1.2 7.857-2.017a58.588 58.588 0 0 0 7.887-3.01l-16.014-9.241-2.107.723-2.167.662a90.082 90.082 0 0 1-11.078 3.01 50.258 50.258 0 0 1-9.452 1.264 32.27 32.27 0 0 1-8.308-.783 28.012 28.012 0 0 1-7.736-3.01 19.336 19.336 0 0 1-6.683-5.75 9.57 9.57 0 0 1-1.836-6.2 12.021 12.021 0 0 1 2.649-6.261 28.69 28.69 0 0 1 6.532-6.02l-9.482-5.479 5.569-3.221 9.392 5.418a69.008 69.008 0 0 1 13.817-5.057 98.615 98.615 0 0 1 13.817-2.5zM348.218 336.8a11.766 11.766 0 0 0 6.982 1.5 45.181 45.181 0 0 0 9.572-2.167l-15.051-8.7q-8.275 5.423-1.503 9.367zm52.86 4.395a12.4 12.4 0 0 0-7.556-1.354 63.986 63.986 0 0 0-10.506 2.318l15.051 8.639c6.322-3.884 7.345-7.105 3.011-9.603z" class="cls-6" transform="translate(-237.05 -260.942)"/>
        </g>
        <g id="Men_11" transform="translate(441.808 276.741)">
            <path id="_Контур_22" d="M383.13 370.55a113.559 113.559 0 0 0 16.135 21.945c1.746 2.017 15.051-3.01 12.342-4.545s-11.589-13.666-15.984-21.824a273.048 273.048 0 0 1-9.392-29.8c-2.77-9.994-5.117-24.624-7.134-31.547a13.513 13.513 0 0 0-10.265-10.445c-4.816-1.114-7.947.211-7.074 6.02 1.535 10.262 9.542 50.057 21.372 70.196z" class="cls-7" transform="translate(-306.249 -242.106)"/>
            <path id="패스_259" d="M367.922 371.2c4.154 3.371 10.3.3 10.6.6a183.073 183.073 0 0 0 15.322 12.763c2.589 2.047 6.653 4.786 6.021 8.7-1.294 6.984-12.523 4.847-16.737 2.709s-7.676-5.719-11.68-8.188c-2.86-1.776-5.659-2.709-6.02-6.291-.487-2.193 1.861-10.383 2.494-10.293z" class="cls-8" transform="translate(-298.716 -86.857)"/>
            <path id="패스_260" fill="#f9f6ff" d="M365.4 374.13c.542 3.462 3.311 4.425 6.02 6.171 4.064 2.529 7.646 6.171 11.89 8.308s13.636 3.943 16.376-1.054c-1.475 6.743-12.492 4.636-16.677 2.529s-7.676-5.719-11.68-8.188c-2.86-1.776-5.659-2.709-6.02-6.291a5.06 5.06 0 0 1 .091-1.475z" transform="translate(-298.846 -80.967)"/>
            <path id="패스_261" d="M382.2 363.142c4.154 3.4 11.439-.3 11.74 0a156.4 156.4 0 0 0 13.7 12.372c2.589 2.047 6.653 4.786 6.02 8.7-1.294 6.984-12.523 4.846-16.737 2.709s-7.676-5.689-11.68-8.188c-2.86-1.776-5.689-2.679-6.02-6.291a19.262 19.262 0 0 1 2.977-9.302z" class="cls-8" transform="translate(-270.852 -103.091)"/>
            <path id="패스_262" fill="#fff" d="M379.256 365.9c.542 3.462 3.311 4.395 6.021 6.171 4.064 2.529 7.646 6.171 11.89 8.308s13.666 3.943 16.406-1.054c-1.505 6.743-12.523 4.636-16.707 2.5s-7.676-5.689-11.68-8.188c-2.86-1.746-5.659-2.679-6.021-6.291a6.451 6.451 0 0 1 .091-1.446z" transform="translate(-270.978 -97.511)"/>
            <path id="_Контур_23" fill="#005f70" d="M348.383 333.881c-4.606 28.778 8.188 39.494 24.8 45.635 12.041 4.395 29.019 11.168 29.019 11.168s-.241 6.291-.361 20.47c0 12.492 1.505 58.067 1.505 58.067a13.942 13.942 0 0 0 12.733-.151s6.683-34.919 8.128-50.662c1.926-21.342 5.208-35.31 4.094-39.916-.963-4.034-24.292-15.5-31.7-21.674l48.856 16.2a88.551 88.551 0 0 0-1.415 16.075c.452 16.948 1.385 53.612 1.385 53.612s6.713 4.847 12.432 0c0 0 12.312-72.607 10.807-82.209-1.415-9.031-44.491-27.754-52.077-34.2a12.038 12.038 0 0 0-9.573-2.559z" transform="translate(-334.747 -182.59)"/>
            <g id="_Группа_3" transform="translate(38.47 122.814)">
                <g id="_Группа_4">
                    <path id="_Контур_24" d="M448.384 343.76l-32.842-18.96a1.934 1.934 0 0 0-1.9 0L356 358.059l33.8 19.541z" class="cls-12" transform="translate(-355.999 -303.453)"/>
                    <path id="패스_263" d="M368.5 339.916l-2.5 1.445c-.211 0-.181.3 0 .452l2.378 1.385a.893.893 0 0 0 .783 0l2.529-1.445c.181 0 .181-.331 0-.451l-2.408-1.385a.82.82 0 0 0-.782-.001z" class="cls-13" transform="translate(-336.196 -272.758)"/>
                    <path id="패스_264" d="M369.689 339.236l-2.529 1.445c-.181 0-.181.331 0 .452l2.408 1.385a.894.894 0 0 0 .783 0l2.5-1.445c.211 0 .181-.331 0-.451l-2.378-1.385a.82.82 0 0 0-.784-.001z" class="cls-13" transform="translate(-333.836 -274.125)"/>
                    <path id="패스_265" d="M370.867 338.54l-2.5 1.445c-.211 0-.181.331 0 .451l2.408 1.385a.82.82 0 0 0 .783 0l2.5-1.445c.211 0 .181-.331 0-.451l-2.408-1.385a.893.893 0 0 0-.783 0z" class="cls-13" transform="translate(-331.432 -275.506)"/>
                    <path id="패스_266" d="M372.027 337.876l-2.5 1.445c-.211 0-.181.331 0 .452l2.378 1.385a.959.959 0 0 0 .813 0l2.5-1.445c.211 0 .181-.331 0-.452l-2.378-1.385a.881.881 0 0 0-.813 0z" class="cls-13" transform="translate(-329.1 -276.859)"/>
                    <path id="패스_267" d="M373.207 337.2l-2.5 1.445c-.211 0-.181.331 0 .452l2.378 1.385a.892.892 0 0 0 .783 0l2.529-1.445c.181 0 .181-.331 0-.452l-2.408-1.385a.82.82 0 0 0-.782 0z" class="cls-13" transform="translate(-326.728 -278.226)"/>
                    <path id="패스_268" d="M374.362 336.516l-2.529 1.445c-.181 0 0 .331 0 .452l2.408 1.385a.894.894 0 0 0 .783 0l2.5-1.445c.211 0 .18-.331 0-.452l-2.378-1.385a.82.82 0 0 0-.784 0z" class="cls-13" transform="translate(-324.331 -279.593)"/>
                    <path id="패스_269" d="M375.557 335.836l-2.5 1.445c-.211 0-.181.331 0 .452l2.378 1.385a.959.959 0 0 0 .813 0l2.5-1.445c.211 0 .181-.331 0-.452l-2.378-1.385a.881.881 0 0 0-.813 0z" class="cls-13" transform="translate(-322.004 -280.96)"/>
                    <path id="패스_270" d="M376.767 335.156l-2.5 1.445c-.211 0-.181.331 0 .452l2.378 1.385a.96.96 0 0 0 .813 0l2.5-1.445c.211 0 .181-.331 0-.452l-2.378-1.385a.881.881 0 0 0-.813 0z" class="cls-13" transform="translate(-319.571 -282.327)"/>
                    <path id="패스_271" d="M377.917 334.476l-2.5 1.445c-.211 0-.181.331 0 .452l2.378 1.385a.894.894 0 0 0 .783 0l2.529-1.445c.18 0 .18-.331 0-.451l-2.408-1.385a.82.82 0 0 0-.782-.001z" class="cls-13" transform="translate(-317.26 -283.694)"/>
                    <path id="패스_272" d="M379.1 333.792l-2.529 1.445c-.18 0-.15.331 0 .451l2.408 1.385a.893.893 0 0 0 .783 0l2.5-1.445c.211 0 .181-.331 0-.452l-2.408-1.385a.811.811 0 0 0-.754.001z" class="cls-13" transform="translate(-314.893 -285.056)"/>
                    <path id="패스_273" d="M380.267 333.116l-2.5 1.445c-.211 0-.181.331 0 .451l2.408 1.385a.821.821 0 0 0 .783 0l2.5-1.445c.211 0 .181-.331 0-.452l-2.378-1.385a.881.881 0 0 0-.813.001z" class="cls-13" transform="translate(-312.535 -286.428)"/>
                    <path id="패스_274" d="M381.447 332.436l-2.5 1.445c-.211 0-.181.331 0 .452l2.378 1.385a.881.881 0 0 0 .813 0l2.5-1.445c.211 0 .181-.331 0-.452l-2.378-1.385a.881.881 0 0 0-.813 0z" class="cls-13" transform="translate(-310.163 -287.795)"/>
                    <path id="패스_275" d="M382.627 331.756l-2.5 1.445c-.211 0-.181.331 0 .451l2.378 1.385a.88.88 0 0 0 .813 0l2.5-1.445c.181 0 .181-.331 0-.452l-2.408-1.385a.82.82 0 0 0-.783.001z" class="cls-13" transform="translate(-307.791 -289.162)"/>
                    <path id="패스_276" d="M385.492 330.745l-4.184 2.438c-.211 0-.181.331 0 .452l2.408 1.385a.821.821 0 0 0 .783 0l4.214-2.438c.211 0 .181-.3 0-.452l-2.378-1.385a.964.964 0 0 0-.843 0z" class="cls-13" transform="translate(-305.419 -291.19)"/>
                    <path id="패스_277" d="M369.1 338.24l-2.5 1.445c-.211 0-.181.331 0 .452l2.378 1.385a.88.88 0 0 0 .813 0l2.5-1.445c.211 0 .181-.331 0-.452l-2.378-1.385a.96.96 0 0 0-.813 0z" class="cls-13" transform="translate(-334.99 -276.109)"/>
                    <path id="패스_278" d="M370.277 337.566l-2.5 1.445c-.211 0-.181.331 0 .451l2.378 1.385a.881.881 0 0 0 .813 0l2.5-1.445c.211 0 .181-.331 0-.452l-2.378-1.385a.881.881 0 0 0-.813.001z" class="cls-13" transform="translate(-332.618 -277.482)"/>
                    <path id="패스_279" d="M371.457 336.886l-2.5 1.445c-.211 0-.181.331 0 .452l2.378 1.385a.959.959 0 0 0 .813 0l2.5-1.445c.211 0 .181-.331 0-.452l-2.378-1.385a.881.881 0 0 0-.813 0z" class="cls-13" transform="translate(-330.246 -278.849)"/>
                    <path id="패스_280" d="M372.637 336.206l-2.5 1.445c-.211 0-.181.3 0 .451l2.378 1.385a.96.96 0 0 0 .813 0l2.5-1.445c.211 0 .18-.331 0-.452l-2.378-1.385a.881.881 0 0 0-.813.001z" class="cls-13" transform="translate(-327.874 -280.216)"/>
                    <path id="패스_281" d="M373.767 335.52l-2.5 1.445c-.211 0-.181.331 0 .452l2.378 1.385a.882.882 0 0 0 .813 0l2.5-1.445c.211 0 .181-.3 0-.452l-2.378-1.385a.96.96 0 0 0-.813 0z" class="cls-13" transform="translate(-325.602 -281.577)"/>
                    <path id="패스_282" d="M374.987 334.84l-2.5 1.445c-.211 0-.181.331 0 .452l2.378 1.385a.881.881 0 0 0 .813 0l2.5-1.445c.211 0 .181-.331 0-.452l-2.378-1.385a.959.959 0 0 0-.813 0z" class="cls-13" transform="translate(-323.149 -282.944)"/>
                    <path id="패스_283" d="M376.167 334.166l-2.5 1.445c-.211 0-.181.331 0 .452l2.378 1.385a.881.881 0 0 0 .813 0l2.5-1.445c.211 0 .181-.331 0-.451l-2.378-1.385a.881.881 0 0 0-.813-.001z" class="cls-13" transform="translate(-320.777 -284.317)"/>
                    <path id="패스_284" d="M377.347 333.486l-2.5 1.445c-.211 0-.181.331 0 .452l2.378 1.385a.96.96 0 0 0 .813 0l2.5-1.445c.211 0 .181-.331 0-.451l-2.378-1.385a.881.881 0 0 0-.813-.001z" class="cls-13" transform="translate(-318.405 -285.684)"/>
                    <path id="패스_285" d="M378.527 332.806l-2.5 1.445c-.211 0-.181.3 0 .451l2.378 1.385a.959.959 0 0 0 .813 0l2.5-1.445c.211 0 .181-.331 0-.452l-2.378-1.385a.881.881 0 0 0-.813.001z" class="cls-13" transform="translate(-316.033 -287.051)"/>
                    <path id="패스_286" d="M379.707 332.126l-2.5 1.445c-.211 0-.18.3 0 .452l2.378 1.385a.959.959 0 0 0 .813 0l2.5-1.445c.211 0 .181-.331 0-.452l-2.378-1.385a.881.881 0 0 0-.813 0z" class="cls-13" transform="translate(-313.661 -288.418)"/>
                    <path id="패스_287" d="M380.887 331.421l-2.5 1.475c-.211 0-.181.3 0 .452l2.378 1.385a.959.959 0 0 0 .813 0l2.5-1.445c.211 0 .181-.331 0-.482l-2.378-1.355a.961.961 0 0 0-.813-.03z" class="cls-13" transform="translate(-311.289 -289.789)"/>
                    <path id="패스_288" d="M382.067 330.75l-2.5 1.445c-.211 0-.181.331 0 .482l2.378 1.385a.96.96 0 0 0 .813 0l2.5-1.445c.211 0 .181-.331 0-.482l-2.408-1.385a.893.893 0 0 0-.783 0z" class="cls-13" transform="translate(-308.917 -291.166)"/>
                    <path id="패스_289" d="M369.042 338.925l-4.184 2.438c-.211 0-.181.331 0 .451l2.408 1.385a.913.913 0 0 0 .783 0l4.214-2.438c.211 0 .181-.3 0-.451l-2.378-1.385a.963.963 0 0 0-.843 0z" class="cls-13" transform="translate(-338.488 -274.747)"/>
                    <path id="패스_290" d="M388.164 333.195l-2.5 1.445a.848.848 0 0 1-.753 0l-2.529-1.475c-.211 0-.211-.3 0-.421h.181c.211 0 .211-.271 0-.391l-2.649-1.535c-.211 0-.211-.3 0-.421l1.6-.933a.752.752 0 0 1 .722 0l2.5 1.445.512.3.391.211.361.211 2.167 1.264a.21.21 0 0 1 0 .3z" class="cls-13" transform="translate(-308.241 -293.76)"/>
                    <path id="패스_291" d="M363.937 337.278l-2.5 1.445c-.211 0-.181.331 0 .451l2.378 1.385a.82.82 0 0 0 .783 0l2.529-1.445c.181 0 .15-.331 0-.452l-2.408-1.385a.8.8 0 0 0-.782.001z" class="cls-13" transform="translate(-345.363 -278.067)"/>
                    <path id="패스_292" d="M365.107 336.59l-2.5 1.445c-.211 0-.181.331 0 .452l2.378 1.385a.881.881 0 0 0 .813 0l2.5-1.445c.211 0 .181-.3 0-.452l-2.378-1.385a.959.959 0 0 0-.813 0z" class="cls-13" transform="translate(-343.011 -279.426)"/>
                    <path id="패스_293" d="M366.292 335.92l-2.529 1.445c-.181 0-.15.331 0 .482l2.408 1.355a.893.893 0 0 0 .783 0l2.5-1.475c.211 0 .181-.3 0-.452l-2.378-1.385a.9.9 0 0 0-.784.03z" class="cls-13" transform="translate(-340.644 -280.803)"/>
                    <path id="패스_294" d="M376.3 330.14l-2.529 1.445c-.18 0-.18.331 0 .452l2.408 1.385a.821.821 0 0 0 .783 0l2.5-1.445c.211 0 .181-.331 0-.451l-2.378-1.385a.894.894 0 0 0-.784-.001z" class="cls-13" transform="translate(-320.549 -292.392)"/>
                    <path id="패스_295" d="M377.457 329.46l-2.5 1.445c-.211 0-.181.331 0 .452l2.378 1.385a.881.881 0 0 0 .813 0l2.5-1.445c.211 0 .181-.3 0-.452l-2.408-1.385a.893.893 0 0 0-.783 0z" class="cls-13" transform="translate(-318.184 -293.759)"/>
                    <path id="패스_296" d="M378.627 328.791l-2.5 1.445c-.211 0-.181.331 0 .482l2.408 1.355a.82.82 0 0 0 .783 0l2.5-1.445c.211 0 .181-.331 0-.482l-2.378-1.385a.96.96 0 0 0-.813.03z" class="cls-13" transform="translate(-315.832 -295.136)"/>
                    <path id="패스_297" d="M379.767 328.118l-2.5 1.445c-.211 0-.181.3 0 .452l2.378 1.385a.894.894 0 0 0 .783 0l2.529-1.445c.181 0 .181-.331 0-.482l-2.408-1.355a.805.805 0 0 0-.782 0z" class="cls-13" transform="translate(-313.541 -296.48)"/>
                    <path id="패스_298" d="M368.37 335.06l-3.4 1.987c-.211 0-.181.3 0 .451l2.378 1.385a.958.958 0 0 0 .813 0l3.4-1.987c.211 0 .181-.331 0-.452l-2.378-1.385a.959.959 0 0 0-.813.001z" class="cls-13" transform="translate(-338.267 -282.502)"/>
                    <path id="패스_299" d="M375.71 330.826l-3.4 1.957c-.211 0-.181.331 0 .482l2.378 1.355a.82.82 0 0 0 .783 0l3.432-1.957c.211 0 .181-.331 0-.452l-2.378-1.385a.881.881 0 0 0-.815 0z" class="cls-13" transform="translate(-323.511 -291.031)"/>
                    <path id="패스_300" d="M383.085 331.675l-16.647 9.6c-.211 0-.181.331 0 .482l2.408 1.355a.82.82 0 0 0 .783 0l16.647-9.6c.211 0 .181-.331 0-.452l-2.378-1.385a.9.9 0 0 0-.813 0z" class="cls-13" transform="translate(-335.311 -289.321)"/>
                    <path id="패스_301" d="M368.277 337.406l-2.5 1.445c-.211 0-.181.3 0 .451l2.378 1.385a.959.959 0 0 0 .813 0l2.5-1.445c.211 0 .181-.331 0-.482l-2.378-1.355a.88.88 0 0 0-.813.001z" class="cls-13" transform="translate(-336.638 -277.804)"/>
                    <path id="패스_302" d="M369.457 336.726l-2.5 1.445c-.211 0-.18.3 0 .451l2.378 1.385a.893.893 0 0 0 .783 0l2.529-1.445c.181 0 .181-.331 0-.451l-2.408-1.385a.82.82 0 0 0-.782 0z" class="cls-13" transform="translate(-334.266 -279.171)"/>
                    <path id="패스_303" d="M370.649 336.066l-2.529 1.445c-.18 0-.18.331 0 .452l2.408 1.385a.894.894 0 0 0 .783 0l2.5-1.445c.211 0 .181-.331 0-.451l-2.378-1.385a.82.82 0 0 0-.784-.001z" class="cls-13" transform="translate(-331.906 -280.498)"/>
                    <path id="패스_304" d="M371.767 335.366l-2.5 1.445c-.211 0-.181.331 0 .451l2.378 1.385a.881.881 0 0 0 .813 0l2.5-1.445c.211 0 .181-.331 0-.451l-2.378-1.385a.881.881 0 0 0-.813 0z" class="cls-13" transform="translate(-329.622 -281.905)"/>
                    <path id="패스_305" d="M372.987 334.68l-2.5 1.445c-.211 0-.181.331 0 .452l2.378 1.385a.82.82 0 0 0 .783 0l2.529-1.445c.181 0 .15-.331 0-.452l-2.408-1.385a.893.893 0 0 0-.782 0z" class="cls-13" transform="translate(-327.17 -283.266)"/>
                    <path id="패스_306" d="M374.157 334l-2.5 1.445c-.211 0-.181.331 0 .452l2.408 1.385a.82.82 0 0 0 .783 0l2.5-1.445c.211 0 .181-.331 0-.452L374.969 334a.959.959 0 0 0-.812 0z" class="cls-13" transform="translate(-324.818 -284.633)"/>
                    <path id="패스_307" d="M375.337 333.32l-2.5 1.445c-.211 0-.18.331 0 .452l2.378 1.385a.881.881 0 0 0 .813 0l2.5-1.445c.211 0 .181-.3 0-.452l-2.378-1.385a.96.96 0 0 0-.813 0z" class="cls-13" transform="translate(-322.446 -285.999)"/>
                    <path id="패스_308" d="M376.522 332.634l-2.529 1.445c-.181 0-.151.331 0 .482l2.408 1.355a.821.821 0 0 0 .783 0l2.5-1.445c.211 0 .181-.3 0-.452l-2.408-1.385a.912.912 0 0 0-.754 0z" class="cls-13" transform="translate(-320.079 -287.36)"/>
                    <path id="패스_309" d="M377.687 331.971l-2.5 1.445c-.211 0-.181.331 0 .482l2.378 1.354a.959.959 0 0 0 .813 0l2.5-1.445c.211 0 .181-.331 0-.482l-2.378-1.385a.96.96 0 0 0-.813.031z" class="cls-13" transform="translate(-317.722 -288.744)"/>
                    <path id="패스_310" d="M378.867 331.28l-2.5 1.445c-.211 0-.181.331 0 .482l2.378 1.385a.894.894 0 0 0 .783 0l2.529-1.445c.181 0 .181-.331 0-.482l-2.408-1.385a.893.893 0 0 0-.782 0z" class="cls-13" transform="translate(-315.35 -290.1)"/>
                    <path id="패스_311" d="M380.059 330.59l-2.529 1.445c-.181 0-.181.331 0 .482l2.408 1.385a.893.893 0 0 0 .783 0l2.5-1.445c.211 0 .181-.331 0-.482l-2.378-1.355a.9.9 0 0 0-.784-.03z" class="cls-13" transform="translate(-312.99 -291.457)"/>
                    <path id="패스_312" d="M381.217 329.936l-2.5 1.445c-.211 0-.181.3 0 .452l2.378 1.385a.959.959 0 0 0 .813 0l2.5-1.445c.211 0 .181-.331 0-.482l-2.378-1.355a.881.881 0 0 0-.813 0z" class="cls-13" transform="translate(-310.626 -292.82)"/>
                    <path id="패스_313" d="M368.9 338.054l-5.178 3.01c-.211 0-.181.331 0 .452l2.378 1.384a.893.893 0 0 0 .783 0l5.178-3.01c.211 0 .181-.331 0-.482l-2.408-1.355a.911.911 0 0 0-.753.001z" class="cls-13" transform="translate(-340.779 -276.465)"/>
                    <path id="패스_314" d="M366.557 337.065l-2.5 1.445c-.211 0-.181.331 0 .482l2.408 1.385a.893.893 0 0 0 .783 0l2.529-1.445c.181 0 .151-.331 0-.482l-2.408-1.385a.9.9 0 0 0-.812 0z" class="cls-13" transform="translate(-340.096 -278.486)"/>
                    <path id="패스_315" d="M367.767 336.331l-2.5 1.475c-.211 0-.181.3 0 .451l2.378 1.385a.96.96 0 0 0 .813 0l2.318-1.294c.211 0 .181-.331 0-.482l-2.378-1.354a.969.969 0 0 0-.631-.181z" class="cls-13" transform="translate(-337.663 -279.769)"/>
                    <path id="패스_316" d="M368.907 335.726l-2.5 1.445c-.211 0-.181.3 0 .452l2.378 1.385a.96.96 0 0 0 .813 0l2.5-1.445c.211 0 .181-.331 0-.451l-2.408-1.385a.82.82 0 0 0-.783-.001z" class="cls-13" transform="translate(-335.372 -281.181)"/>
                    <path id="패스_317" d="M370.1 335.066l-2.528 1.445c-.181 0-.181.3 0 .451l2.408 1.385a.892.892 0 0 0 .783 0l2.5-1.445c.211 0 .181-.331 0-.452l-2.378-1.385a.82.82 0 0 0-.785.001z" class="cls-13" transform="translate(-333.012 -282.508)"/>
                    <path id="패스_318" d="M371.257 334.366l-2.5 1.445c-.211 0-.181.331 0 .451l2.378 1.385a.959.959 0 0 0 .813 0l2.5-1.445c.211 0 .18-.331 0-.452l-2.378-1.385a.882.882 0 0 0-.813.001z" class="cls-13" transform="translate(-330.648 -283.915)"/>
                    <path id="패스_319" d="M372.437 333.686l-2.5 1.445c-.211 0-.181.331 0 .452l2.378 1.385a.82.82 0 0 0 .783 0l2.529-1.445c.181 0 .15-.331 0-.452l-2.408-1.385a.82.82 0 0 0-.782 0z" class="cls-13" transform="translate(-328.276 -285.282)"/>
                    <path id="패스_320" d="M373.607 333l-2.5 1.445c-.211 0-.181.331 0 .452l2.378 1.385a.881.881 0 0 0 .813 0l2.5-1.445c.211 0 .181-.331 0-.452L374.419 333a.959.959 0 0 0-.812 0z" class="cls-13" transform="translate(-325.924 -286.643)"/>
                    <path id="패스_321" d="M374.767 332.32l-2.5 1.445c-.211 0-.181.331 0 .452l2.378 1.385a.881.881 0 0 0 .813 0l2.5-1.445c.211 0 .181-.3 0-.452l-2.408-1.385a.893.893 0 0 0-.783 0z" class="cls-13" transform="translate(-323.592 -288.01)"/>
                    <path id="패스_322" d="M375.979 331.64l-2.529 1.445c-.181 0-.181.331 0 .482l2.408 1.355a.821.821 0 0 0 .783 0l2.5-1.445c.211 0 .181-.3 0-.451l-2.378-1.385a.893.893 0 0 0-.784-.001z" class="cls-13" transform="translate(-321.192 -289.377)"/>
                    <path id="패스_323" d="M377.137 330.971l-2.5 1.445c-.211 0-.181.331 0 .482l2.378 1.355a.959.959 0 0 0 .813 0l2.5-1.445c.211 0 .181-.331 0-.482l-2.378-1.385a.96.96 0 0 0-.813.03z" class="cls-13" transform="translate(-318.827 -290.754)"/>
                    <path id="패스_324" d="M378.317 330.28l-2.5 1.445c-.211 0-.181.331 0 .482l2.378 1.385a.894.894 0 0 0 .783 0l2.529-1.445c.181 0 .181-.331 0-.482l-2.407-1.385a.893.893 0 0 0-.783 0z" class="cls-13" transform="translate(-316.456 -292.111)"/>
                    <path id="패스_325" d="M383.882 328.781l-6.893 3.913c-.211 0-.181.3 0 .452l2.408 1.385a.893.893 0 0 0 .783 0l6.893-3.973c.211 0 .181-.331 0-.482l-2.408-1.355a.906.906 0 0 0-.783.06z" class="cls-13" transform="translate(-314.103 -295.187)"/>
                    <path id="패스_326" d="M365.98 337.75l-3.4 1.987c-.211 0-.181.331 0 .452l2.378 1.385a.893.893 0 0 0 .783 0l3.432-1.987c.211 0 .181-.3 0-.451l-2.378-1.385a.959.959 0 0 0-.815-.001z" class="cls-13" transform="translate(-343.071 -277.094)"/>
                    <path id="패스_327" d="M417.472 331.43l-50.3 29.019c-.181 0-.181.3 0 .452l1.2.692a.893.893 0 0 0 .783 0l50.3-29.019c.181 0 .181-.331 0-.482l-1.2-.692a.9.9 0 0 0-.783.03z" class="cls-13" transform="translate(-333.816 -289.829)"/>
                    <path id="_Контур_25" fill="#bfbfbf" d="M364.24 337.861l.331.211 8.7 5 15.443-8.91.3-.181-9-5.208z" transform="translate(-339.435 -294.965)"/>
                    <path id="_Контур_26" d="M364.35 337.83l8.7 5 15.443-8.91-8.7-5.027z" class="cls-15" transform="translate(-339.214 -294.724)"/>
                    <path id="_Контур_27" d="M356 345.229v.783a3.012 3.012 0 0 0 1.6 2.739l30.614 17.67a3.174 3.174 0 0 0 3.161 0l55.418-31.969a3.226 3.226 0 0 0 1.565-2.739v-.783l-58.549 33.8z" class="cls-15" transform="translate(-356 -290.623)"/>
                    <path id="_Контур_28" d="M367.53 391.812a3.859 3.859 0 0 0 3.251-.241l55.148-31.848a3.819 3.819 0 0 0 1.836-2.619l6.021-36.123a4.013 4.013 0 0 0 0-.6 3.674 3.674 0 0 0-1.114-2.679l-57.194 33.113a2.8 2.8 0 0 0-1.355 1.927z" class="cls-12" transform="translate(-332.821 -317.218)"/>
                    <path id="_Контур_29" d="M367.24 391.682l.361.211.512.241 6.532-38.983a2.8 2.8 0 0 1 1.355-1.926l57.194-33.113a3.576 3.576 0 0 0-.753-.572l-57.435 33.112a2.778 2.778 0 0 0-1.355 1.957z" class="cls-15" transform="translate(-333.404 -317.54)"/>
                </g>
            </g>
            <path id="_Контур_30" d="M358.608 291s.723 13.727.421 15.051-6.291 5.238-8.037 6.683 9.452 12.492 15.051 15.051 22.727-4.094 23.028-12.583-3.01-15.623-5.6-15.984S358.608 291 358.608 291z" class="cls-7" transform="translate(-327.964 -248.077)"/>
            <path id="_Контур_31" fill="#1ea9c2" d="M363.792 304.786s9.964 14.81 23.841 16.2c4.365-4.3 4.756-19.657-1.294-24.563 0 0 5.569-4.485 9.362-3.612a19.569 19.569 0 0 1 8.579 10.927 90.148 90.148 0 0 1 5 31.728c-.241 14.54 0 51.174 0 51.174a31.283 31.283 0 0 1-14.63 21.072 45.162 45.162 0 0 1-32.932 4.545 16.311 16.311 0 0 1-12.041-10.686c.632-10.174 4.666-31.156 3.01-43.979s-4.395-22.366-5.087-32.721 1.355-10.175 6.562-13.847a82.742 82.742 0 0 1 9.63-6.238z" transform="translate(-334.683 -244.675)"/>
            <path id="_Контур_32" d="M387.041 409.444a71.357 71.357 0 0 0-7.766-4.455 16.015 16.015 0 0 1-6.683-4.064c-2.438-2.378-6.442-11.409-9.272-20.229a90.262 90.262 0 0 1-3.371-30.584c1.2-12.342 5.659-29.651 6.8-36.755s-1.174-9.934-4.485-12.553c-3.883-3.01-9.241-1.716-12.041 8.248a192.235 192.235 0 0 0-6.382 42.143 96.163 96.163 0 0 0 4.816 31.186 113.486 113.486 0 0 0 11.89 24.473c1.385 2.318 1.806 4.365 3.883 9.031a31.917 31.917 0 0 0 9.031 12.041c3.492 2.529 5.117 2.86 6.02 2.378s.843-1.716-.632-3.01a25.967 25.967 0 0 1-6.2-6.954s3.01 3.01 5.027 4.726a26.611 26.611 0 0 0 5.81 3.7c2.047.9 4.877-.813 3.432-2.2s-3.01-2.047-5.81-4.545a26.331 26.331 0 0 1-4.154-4.485 47.811 47.811 0 0 0 6.5 4.124 10.692 10.692 0 0 0 6.021 1.6c1.054 0 2.378-1.535.361-3.01a37.666 37.666 0 0 1-7.706-5.238c-2.228-2.228-3.492-4.094-2.86-4.124s1.836 1.324 4.425 2.167 5.418 0 5.75-1.355.035-1.052-2.404-2.256z" class="cls-7" transform="translate(-341.978 -231.241)"/>
            <path id="_Контур_33" d="M390.709 296.265c-1.656-10.656-9.3-18.694-20.289-18.061a21.072 21.072 0 0 0-10.747 38.591 21.963 21.963 0 0 0 1.716 4.666c3.883 4.546 15.593 7.345 18.964 6.863a10.112 10.112 0 0 0 8.76-7.164c3.613-8.49 2.469-19.66 1.596-24.895z" class="cls-7" transform="translate(-329.03 -273.872)"/>
            <path id="패스_328" fill="#46060f" d="M362.066 319.664l1.023-9.272s-7.586-19.627 10.325-15.864c11.83 2.5 14.78 3.582 18.392-4.365s-9.031-15.051-24.082-13.095a20.834 20.834 0 0 0-18.633 21.072c.302 5.78 1.867 17.611 12.975 21.524z" transform="translate(-331.422 -276.741)"/>
            <path id="패스_329" d="M343.22 328.164s9.753 9.723 21.343 6.923c1.655-1.114 5.6-23.841 5.6-23.841s0-12.613-9.633-12.282-17.31 29.2-17.31 29.2z" class="cls-18" transform="translate(-343.22 -232.08)"/>
            <path id="패스_330" d="M376.284 321.839a10.718 10.718 0 0 0 7.225-3.251c-.391-5.087-6.893-24.413-20.018-25.858a24.089 24.089 0 0 1 8.218 9.874 127.864 127.864 0 0 1 4.575 19.235z" class="cls-18" transform="translate(-302.473 -244.6)"/>
            <ellipse id="타원_59" cx="2.497" cy="4.161" class="cls-19" rx="2.497" ry="4.161" transform="translate(47.686 25.095)"/>
            <ellipse id="타원_60" cx="1.665" cy="3.329" class="cls-19" rx="1.665" ry="3.329" transform="translate(57.673 23.431)"/>
            <path id="패스_384" fill="none" stroke="#707070" stroke-linecap="round" d="M31.287 25.351s3.39 5.614 5.4 3.919a7.626 7.626 0 0 0 2.226-4.77" transform="translate(20.791 16.284)"/>
        </g>
    </g>
</svg>
