<svg xmlns="http://www.w3.org/2000/svg" width="95.885" height="187.4" viewBox="0 0 95.885 187.4">
    <defs>
        <style>
            .cls-1{fill:#d6d8e5;opacity:.3;isolation:isolate}.cls-2{fill:#dd990e}.cls-3{fill:#f9cb07}.cls-4{fill:#cc8b09}.cls-5{fill:#e8a30a}.cls-6{fill:#f9ca06}
        </style>
    </defs>
    <g id="sec03_img_coin" transform="translate(-1054.775 -2235.583)">
        <g id="그룹_59" transform="translate(900.43 1873.753)">
            <ellipse id="타원_78" cx="37.723" cy="21.782" class="cls-1" rx="37.723" ry="21.782" transform="translate(168.57 416.751)"/>
            <g id="Coin-15" transform="translate(172.342 401.743)">
                <ellipse id="타원_79" cx="37.723" cy="21.782" class="cls-2" rx="37.723" ry="21.782" transform="translate(0 9.337)"/>
                <path id="패스_488" d="M173.24 447.482v-9.922l7.447 6.636z" class="cls-2" transform="translate(-173.224 -416.038)"/>
                <path id="패스_489" d="M264.9 437.88v9.337l-3.813 4.04-1.866-10.684z" class="cls-2" transform="translate(-189.453 -416.098)"/>
                <ellipse id="타원_80" cx="37.723" cy="21.782" class="cls-3" rx="37.723" ry="21.782"/>
                <path id="패스_490" d="M240.447 434.865c-.381 3.667-2.993 7.3-7.861 10.092-10.546 6.084-27.639 6.084-38.193 0-4.867-2.807-7.472-6.425-7.845-10.092-.462-4.291 2.166-8.68 7.845-11.95 10.546-6.1 27.647-6.1 38.193 0 5.646 3.262 8.267 7.659 7.861 11.95z" class="cls-4" transform="translate(-175.726 -412.41)"/>
                <path id="패스_491" d="M240.459 435.3c-.381 3.667-2.993 7.3-7.861 10.092-10.546 6.084-27.639 6.084-38.193 0-4.867-2.807-7.472-6.425-7.845-10.092.373-3.667 2.985-7.3 7.845-10.084 10.546-6.1 27.647-6.1 38.193 0 4.827 2.806 7.439 6.416 7.861 10.084z" class="cls-5" transform="translate(-175.738 -412.844)"/>
                <path id="패스_492" d="M216.259 431.841a5.948 5.948 0 0 0-.99.081c-.438.065-.941.154-1.485.268s-1.128.268-1.72.446a12.379 12.379 0 0 0-1.7.641l4.34 2.507.811-.276c1.1-.365 2.142-.681 3.123-.933a13.767 13.767 0 0 1 2.807-.462 9.692 9.692 0 0 1 2.58.17 8.13 8.13 0 0 1 2.434.965 4.991 4.991 0 0 1 1.874 1.622 2.238 2.238 0 0 1 .276 1.7 3.8 3.8 0 0 1-1.022 1.671 10.631 10.631 0 0 1-1.979 1.566l2.758 1.622-1.5.868-2.783-1.622a23.044 23.044 0 0 1-4.137 1.566 27.558 27.558 0 0 1-4.567.852l-1.452-2.6a11.3 11.3 0 0 0 1.217-.1 16.6 16.6 0 0 0 1.817-.308c.665-.146 1.379-.324 2.117-.544a15.191 15.191 0 0 0 2.117-.811l-4.316-2.466-.568.195-.584.178a24.279 24.279 0 0 1-2.985.811 13.544 13.544 0 0 1-2.547.341 8.681 8.681 0 0 1-2.239-.17 7.45 7.45 0 0 1-2.085-.811 5.326 5.326 0 0 1-1.809-1.549 2.617 2.617 0 0 1-.487-1.671 3.167 3.167 0 0 1 .714-1.687 7.732 7.732 0 0 1 1.76-1.622l-2.564-1.476 1.509-.868 2.531 1.46a18.11 18.11 0 0 1 3.724-1.363 26.579 26.579 0 0 1 3.724-.673zm-7.366 4.527a3.171 3.171 0 0 0 1.882.406 12.666 12.666 0 0 0 2.58-.584l-4.056-2.344q-2.24 1.495-.406 2.521zm14.237 1.184a3.3 3.3 0 0 0-2.028-.365 17.244 17.244 0 0 0-2.831.625l4.056 2.328c1.7-1.022 1.979-1.89.8-2.564z" class="cls-4" transform="translate(-178.934 -414.488)"/>
                <path id="패스_493" d="M216.36 445.2v-1.46l1.622 1.063-.714 1.1z" class="cls-4" transform="translate(-181.363 -417.204)"/>
                <path id="패스_494" d="M233.326 446.34v-1.46l-3.586.276 2.061 1.4z" class="cls-4" transform="translate(-183.888 -417.419)"/>
                <path id="패스_495" d="M233.913 439.716v-1.476l-2.693.973z" class="cls-4" transform="translate(-184.168 -416.166)"/>
                <path id="패스_496" d="M220.82 439.8l.9-.86 3.148 2.182-.195.641s-2.353-1-2.434-1.055-1.419-.908-1.419-.908z" class="cls-4" transform="translate(-182.205 -416.298)"/>
                <path id="패스_497" d="M210.66 434.069l4.178 2.369.86-.625s-.527-.6-.568-.657a5.544 5.544 0 0 0-1.3-1.087c-.316-.065-2.3-.949-2.3-.949z" class="cls-4" transform="translate(-180.287 -415.2)"/>
                <path id="패스_498" d="M218.688 431.935v-1.46l-1.915-.625-.413 1.15.1.519z" class="cls-4" transform="translate(-181.363 -414.582)"/>
                <path id="패스_499" d="M203.5 430.78v-1.46l2.231.235-.722 1.42z" class="cls-4" transform="translate(-178.935 -414.482)"/>
                <path id="패스_500" d="M203.61 436.885v-1.525h2.547l-.608 1.33-1.111 1.217z" class="cls-4" transform="translate(-178.956 -415.622)"/>
                <path id="패스_501" d="M216.259 430.031a5.945 5.945 0 0 0-.99.081c-.438.065-.941.154-1.485.268s-1.128.26-1.72.438a12.415 12.415 0 0 0-1.7.649l4.34 2.5.811-.268c1.1-.373 2.142-.681 3.123-.941a15.013 15.013 0 0 1 2.807-.462 10.045 10.045 0 0 1 2.58.178 8.3 8.3 0 0 1 2.434.957 5 5 0 0 1 1.874 1.622 2.231 2.231 0 0 1 .276 1.7 3.848 3.848 0 0 1-1.022 1.7 10.235 10.235 0 0 1-1.979 1.558l2.758 1.622-1.5.876-2.783-1.622a23.038 23.038 0 0 1-4.137 1.558 26.721 26.721 0 0 1-4.567.86l-1.452-2.6a11.3 11.3 0 0 0 1.217-.1c.544-.065 1.152-.162 1.817-.308s1.379-.333 2.117-.544a14.315 14.315 0 0 0 2.117-.811l-4.316-2.491-.568.195-.584.178a25.826 25.826 0 0 1-2.985.811 13.547 13.547 0 0 1-2.547.341 8.655 8.655 0 0 1-2.239-.2 7.736 7.736 0 0 1-2.085-.811 5.327 5.327 0 0 1-1.809-1.549 2.638 2.638 0 0 1-.487-1.671 3.152 3.152 0 0 1 .714-1.687 7.734 7.734 0 0 1 1.76-1.622l-2.564-1.476 1.509-.868 2.531 1.46a18.137 18.137 0 0 1 3.724-1.371 29.124 29.124 0 0 1 3.724-.673zm-7.366 4.543a3.12 3.12 0 0 0 1.882.406 12.542 12.542 0 0 0 2.58-.576l-4.056-2.345c-1.493.974-1.631 1.817-.406 2.515zm14.237 1.193a3.2 3.2 0 0 0-2.028-.365 16.4 16.4 0 0 0-2.831.625l4.056 2.328c1.696-1.055 1.98-1.915.803-2.588z" class="cls-6" transform="translate(-178.934 -414.139)"/>
            </g>
            <g id="Coin-16" transform="translate(172.342 389.526)">
                <ellipse id="타원_81" cx="37.723" cy="21.782" class="cls-2" rx="37.723" ry="21.782" transform="translate(0 9.337)"/>
                <path id="패스_502" d="M173.24 432.422V422.5l7.447 6.636z" class="cls-2" transform="translate(-173.224 -400.978)"/>
                <path id="패스_503" d="M264.9 422.82v9.329l-3.813 4.048-1.866-10.684z" class="cls-2" transform="translate(-189.453 -401.038)"/>
                <ellipse id="타원_82" cx="37.723" cy="21.782" class="cls-3" rx="37.723" ry="21.782"/>
                <path id="패스_504" d="M240.447 419.8c-.381 3.667-2.993 7.3-7.861 10.092-10.546 6.084-27.639 6.084-38.193 0-4.867-2.807-7.472-6.425-7.845-10.092-.462-4.291 2.166-8.68 7.845-11.958 10.546-6.092 27.647-6.092 38.193 0 5.646 3.323 8.267 7.671 7.861 11.958z" class="cls-4" transform="translate(-175.726 -397.349)"/>
                <path id="패스_505" d="M240.459 420.239c-.381 3.667-2.993 7.3-7.861 10.092-10.546 6.084-27.639 6.084-38.193 0-4.867-2.807-7.472-6.425-7.845-10.092.373-3.667 2.985-7.3 7.845-10.084 10.546-6.1 27.647-6.1 38.193 0 4.827 2.807 7.439 6.417 7.861 10.084z" class="cls-5" transform="translate(-175.738 -397.784)"/>
                <path id="패스_506" d="M216.259 416.771a5.948 5.948 0 0 0-.99.081c-.438.065-.941.154-1.485.268s-1.128.268-1.72.446a12.379 12.379 0 0 0-1.7.641l4.34 2.507.811-.276c1.1-.365 2.142-.681 3.123-.933a13.767 13.767 0 0 1 2.807-.462 9.694 9.694 0 0 1 2.58.17 8.109 8.109 0 0 1 2.434.965 4.991 4.991 0 0 1 1.874 1.622 2.238 2.238 0 0 1 .276 1.7 3.8 3.8 0 0 1-1.022 1.671 10.63 10.63 0 0 1-1.979 1.566l2.758 1.622-1.5.868-2.783-1.622a23.044 23.044 0 0 1-4.137 1.566 27.558 27.558 0 0 1-4.567.852l-1.452-2.6a11.3 11.3 0 0 0 1.217-.1 16.593 16.593 0 0 0 1.817-.308c.665-.146 1.379-.324 2.117-.544a15.191 15.191 0 0 0 2.117-.811l-4.316-2.466-.568.195-.584.178a24.279 24.279 0 0 1-2.985.811 13.544 13.544 0 0 1-2.547.341 8.694 8.694 0 0 1-2.239-.211 7.45 7.45 0 0 1-2.085-.811 5.327 5.327 0 0 1-1.809-1.549 2.617 2.617 0 0 1-.487-1.671 3.167 3.167 0 0 1 .714-1.687 7.733 7.733 0 0 1 1.76-1.622l-2.564-1.476 1.509-.868 2.531 1.46a18.11 18.11 0 0 1 3.724-1.363 26.584 26.584 0 0 1 3.724-.673zm-7.366 4.575a3.171 3.171 0 0 0 1.882.406 12.666 12.666 0 0 0 2.58-.584l-4.056-2.344q-2.24 1.423-.406 2.523zm14.237 1.184a3.241 3.241 0 0 0-2.028-.365 17.241 17.241 0 0 0-2.831.625l4.056 2.328c1.7-1.071 1.979-1.939.8-2.612z" class="cls-4" transform="translate(-178.934 -399.419)"/>
                <path id="패스_507" d="M216.36 430.14v-1.46l1.622 1.063-.714 1.1z" class="cls-4" transform="translate(-181.363 -402.144)"/>
                <path id="패스_508" d="M233.326 431.28v-1.46l-3.586.268 2.06 1.412z" class="cls-4" transform="translate(-183.888 -402.359)"/>
                <path id="패스_509" d="M233.913 424.656v-1.476l-2.693.974z" class="cls-4" transform="translate(-184.168 -401.106)"/>
                <path id="패스_510" d="M220.82 424.71l.9-.86 3.148 2.182-.195.641s-2.353-1-2.434-1.055-1.419-.908-1.419-.908z" class="cls-4" transform="translate(-182.205 -401.232)"/>
                <path id="패스_511" d="M210.66 419.009l4.178 2.369.86-.625s-.527-.6-.568-.657a5.545 5.545 0 0 0-1.3-1.087c-.316-.065-2.3-.949-2.3-.949z" class="cls-4" transform="translate(-180.287 -400.14)"/>
                <path id="패스_512" d="M218.688 416.875v-1.46l-1.915-.625-.414 1.144.1.527z" class="cls-4" transform="translate(-181.363 -399.522)"/>
                <path id="패스_513" d="M203.5 415.72v-1.46l2.231.235-.722 1.42z" class="cls-4" transform="translate(-178.935 -399.422)"/>
                <path id="패스_514" d="M203.61 421.825V420.3h2.547l-.608 1.379-1.111 1.217z" class="cls-4" transform="translate(-178.956 -400.562)"/>
                <path id="패스_515" d="M216.259 414.969a5.945 5.945 0 0 0-.99.081c-.438.065-.941.154-1.485.268s-1.128.26-1.72.438a12.419 12.419 0 0 0-1.7.649l4.34 2.5.811-.276c1.1-.365 2.142-.673 3.123-.933a15.015 15.015 0 0 1 2.807-.462 10.045 10.045 0 0 1 2.58.178 8.3 8.3 0 0 1 2.434.957 5 5 0 0 1 1.874 1.622 2.23 2.23 0 0 1 .276 1.7 3.841 3.841 0 0 1-1.022 1.671 10.235 10.235 0 0 1-1.979 1.558l2.758 1.622-1.5.868-2.783-1.622a23.04 23.04 0 0 1-4.137 1.558 26.718 26.718 0 0 1-4.567.86l-1.452-2.6a11.3 11.3 0 0 0 1.217-.1c.544-.065 1.152-.17 1.817-.308s1.379-.333 2.117-.544a15.187 15.187 0 0 0 2.117-.811l-4.316-2.45-.568.195-.584.178a25.814 25.814 0 0 1-2.985.811 13.544 13.544 0 0 1-2.547.341 8.346 8.346 0 0 1-2.239-.211 7.441 7.441 0 0 1-2.085-.811 5.326 5.326 0 0 1-1.809-1.549 2.638 2.638 0 0 1-.487-1.671 3.152 3.152 0 0 1 .714-1.687 7.732 7.732 0 0 1 1.76-1.622l-2.564-1.476 1.509-.868 2.531 1.46a18.135 18.135 0 0 1 3.724-1.371 29.124 29.124 0 0 1 3.724-.673zm-7.366 4.543a3.12 3.12 0 0 0 1.882.406 12.544 12.544 0 0 0 2.58-.576L209.3 417c-1.494.971-1.632 1.814-.407 2.512zm14.237 1.188a3.2 3.2 0 0 0-2.028-.365 16.4 16.4 0 0 0-2.831.625l4.056 2.328c1.696-1.05 1.98-1.91.803-2.588z" class="cls-6" transform="translate(-178.934 -399.077)"/>
            </g>
            <g id="Coin-17" transform="translate(174.784 375.678)">
                <ellipse id="타원_83" cx="37.723" cy="21.535" class="cls-2" rx="37.723" ry="21.535" transform="translate(0 9.231)"/>
                <path id="패스_516" d="M176.25 414.938v-9.809l7.455 6.561z" class="cls-2" transform="translate(-176.234 -383.851)"/>
                <path id="패스_517" d="M267.909 405.445v9.232l-3.813 3.994-1.866-10.563z" class="cls-2" transform="translate(-192.463 -383.911)"/>
                <ellipse id="타원_84" cx="37.723" cy="21.535" class="cls-3" rx="37.723" ry="21.535"/>
                <path id="패스_518" d="M243.447 402.465c-.381 3.633-2.993 7.218-7.853 9.978-10.546 6.015-27.647 6.015-38.193 0-4.867-2.775-7.48-6.345-7.853-9.978-.454-4.243 2.166-8.582 7.853-11.814 10.546-6.032 27.639-6.032 38.193 0 5.647 3.231 8.275 7.571 7.853 11.814z" class="cls-4" transform="translate(-178.734 -380.264)"/>
                <path id="패스_519" d="M243.459 402.894c-.381 3.633-2.993 7.218-7.853 9.978-10.546 6.015-27.647 6.015-38.193 0-4.867-2.775-7.48-6.345-7.853-9.978.373-3.625 2.985-7.218 7.853-9.969 10.546-6.032 27.639-6.032 38.193 0 4.827 2.775 7.439 6.343 7.853 9.969z" class="cls-5" transform="translate(-178.746 -380.693)"/>
                <path id="패스_520" d="M219.281 399.482a5.77 5.77 0 0 0-.99.072c-.446.064-.941.153-1.493.264s-1.128.265-1.72.441a12.565 12.565 0 0 0-1.7.634l4.34 2.478.811-.273c1.1-.361 2.142-.674 3.123-.922a13.987 13.987 0 0 1 2.807-.458 9.827 9.827 0 0 1 2.58.169 8.4 8.4 0 0 1 2.474.955 4.927 4.927 0 0 1 1.866 1.6 2.2 2.2 0 0 1 .276 1.676 3.731 3.731 0 0 1-1.014 1.652 10.658 10.658 0 0 1-1.988 1.548l2.758 1.6-1.5.858-2.783-1.6A23.228 23.228 0 0 1 223 411.73a27.761 27.761 0 0 1-4.559.842L216.977 410a11.294 11.294 0 0 0 1.217-.1 16.979 16.979 0 0 0 1.817-.305c.673-.144 1.379-.32 2.117-.537a15.849 15.849 0 0 0 2.125-.8l-4.365-2.439-.568.193-.584.176a24.565 24.565 0 0 1-2.985.8 13.6 13.6 0 0 1-2.547.337 8.766 8.766 0 0 1-2.239-.209 7.605 7.605 0 0 1-2.085-.8 5.277 5.277 0 0 1-1.8-1.524 2.561 2.561 0 0 1-.495-1.66 3.189 3.189 0 0 1 .714-1.661 7.706 7.706 0 0 1 1.76-1.6l-2.539-1.428 1.5-.858 2.531 1.444a18.7 18.7 0 0 1 3.724-1.347 26.92 26.92 0 0 1 3.724-.666zm-7.374 4.492a3.2 3.2 0 0 0 1.882.4 12.154 12.154 0 0 0 2.58-.578l-4.056-2.318c-1.493.972-1.623 1.774-.406 2.496zm14.245 1.171a3.375 3.375 0 0 0-2.036-.361 17.391 17.391 0 0 0-2.831.617l4.056 2.3c1.704-1.033 1.979-1.89.811-2.556z" class="cls-4" transform="translate(-181.947 -382.319)"/>
                <path id="패스_521" d="M219.37 412.682v-1.443l1.622 1.051-.714 1.1z" class="cls-4" transform="translate(-184.373 -385.004)"/>
                <path id="패스_522" d="M236.336 413.81v-1.444l-3.586.273 2.061 1.388z" class="cls-4" transform="translate(-186.898 -385.217)"/>
                <path id="패스_523" d="M236.925 407.261V405.8l-2.685.962z" class="cls-4" transform="translate(-187.18 -383.978)"/>
                <path id="패스_524" d="M223.83 407.314l.9-.85 3.148 2.157-.195.634s-2.353-.978-2.434-1.042-1.419-.899-1.419-.899z" class="cls-4" transform="translate(-185.215 -384.103)"/>
                <path id="패스_525" d="M213.67 401.678l4.186 2.342.811-.617s-.527-.594-.568-.65a5.357 5.357 0 0 0-1.3-1.075c-.308-.056-2.3-.939-2.3-.939z" class="cls-4" transform="translate(-183.297 -383.022)"/>
                <path id="패스_526" d="M221.706 399.576v-1.452l-1.923-.618-.414 1.139.105.513z" class="cls-4" transform="translate(-184.373 -382.412)"/>
                <path id="패스_527" d="M206.52 398.426v-1.444l2.223.233-.714 1.4z" class="cls-4" transform="translate(-181.947 -382.313)"/>
                <path id="패스_528" d="M206.62 404.464v-1.5h2.547l-.617 1.339-1.111 1.2z" class="cls-4" transform="translate(-181.966 -383.442)"/>
                <path id="패스_529" d="M219.277 397.686a5.777 5.777 0 0 0-.99.08c-.446.064-.941.152-1.493.264s-1.128.264-1.72.433a12.494 12.494 0 0 0-1.7.642l4.34 2.478.811-.273c1.1-.368 2.142-.673 3.123-.922a14.611 14.611 0 0 1 2.807-.465 10.156 10.156 0 0 1 2.58.177 8.15 8.15 0 0 1 2.474.954 4.849 4.849 0 0 1 1.866 1.6 2.193 2.193 0 0 1 .276 1.677 3.772 3.772 0 0 1-1.014 1.652 10.624 10.624 0 0 1-1.988 1.548l2.758 1.6-1.5.858-2.783-1.6a23.811 23.811 0 0 1-4.137 1.548 27.761 27.761 0 0 1-4.559.842l-1.46-2.574a11.518 11.518 0 0 0 1.217-.1c.544-.064 1.152-.161 1.817-.305s1.379-.32 2.117-.537a15.862 15.862 0 0 0 2.125-.8l-4.365-2.438-.568.192-.584.177a24.406 24.406 0 0 1-2.985.8 13.674 13.674 0 0 1-2.547.337 9.188 9.188 0 0 1-2.239-.208 7.917 7.917 0 0 1-2.085-.8 5.2 5.2 0 0 1-1.8-1.532 2.547 2.547 0 0 1-.495-1.652 3.183 3.183 0 0 1 .714-1.668 7.692 7.692 0 0 1 1.76-1.6l-2.555-1.459 1.5-.858 2.531 1.444a18.157 18.157 0 0 1 3.724-1.347 26.911 26.911 0 0 1 3.724-.666zm-7.374 4.5a3.143 3.143 0 0 0 1.882.393 11.987 11.987 0 0 0 2.58-.569l-4.056-2.318q-2.239 1.444-.406 2.495zm14.245 1.171a3.32 3.32 0 0 0-2.036-.36 16.531 16.531 0 0 0-2.831.617l4.056 2.3c1.7-1.034 1.979-1.893.811-2.559z" class="cls-6" transform="translate(-181.944 -381.974)"/>
            </g>
            <g id="Coin-18" transform="translate(173.973 361.83)">
                <ellipse id="타원_85" cx="37.723" cy="21.782" class="cls-2" rx="37.723" ry="21.782" transform="translate(0 9.337)"/>
                <path id="패스_530" d="M175.25 398.29v-9.93l7.45 6.64z" class="cls-2" transform="translate(-175.234 -366.838)"/>
                <path id="패스_531" d="M266.909 388.68v9.337l-3.813 4.048-1.866-10.692z" class="cls-2" transform="translate(-191.463 -366.898)"/>
                <ellipse id="타원_86" cx="37.723" cy="21.782" class="cls-3" rx="37.723" ry="21.782"/>
                <path id="패스_532" d="M242.447 385.675c-.381 3.667-2.993 7.3-7.861 10.084-10.546 6.084-27.647 6.084-38.193 0-4.867-2.807-7.472-6.417-7.845-10.084-.462-4.3 2.166-8.68 7.845-11.958 10.546-6.092 27.647-6.092 38.193 0 5.654 3.277 8.275 7.658 7.861 11.958z" class="cls-4" transform="translate(-177.734 -363.211)"/>
                <path id="패스_533" d="M242.459 386.109c-.381 3.667-2.993 7.3-7.861 10.084-10.546 6.084-27.647 6.084-38.193 0-4.867-2.807-7.472-6.417-7.845-10.084.373-3.675 2.985-7.3 7.845-10.092 10.546-6.092 27.647-6.092 38.193 0 4.835 2.807 7.447 6.425 7.861 10.092z" class="cls-5" transform="translate(-177.746 -363.645)"/>
                <path id="패스_534" d="M218.267 382.641a6.739 6.739 0 0 0-.99.073c-.438.065-.941.154-1.493.268s-1.12.268-1.712.446a12.458 12.458 0 0 0-1.679.649l4.34 2.507.771-.276c1.111-.365 2.15-.673 3.123-.933a14.556 14.556 0 0 1 2.807-.462 9.719 9.719 0 0 1 2.588.17 8.332 8.332 0 0 1 2.434.965 4.869 4.869 0 0 1 1.866 1.622 2.176 2.176 0 0 1 .276 1.7 3.659 3.659 0 0 1-1.014 1.671 10.631 10.631 0 0 1-1.984 1.559l2.758 1.622-1.5.868-2.783-1.622a22.437 22.437 0 0 1-4.137 1.566 27.556 27.556 0 0 1-4.567.852l-1.452-2.6a7.006 7.006 0 0 0 1.217-.089c.544-.089 1.144-.17 1.817-.316s1.371-.324 2.117-.544a14.311 14.311 0 0 0 2.117-.811l-4.308-2.474-.568.195-.592.187a25.29 25.29 0 0 1-2.977.811 13.61 13.61 0 0 1-2.547.341 8.753 8.753 0 0 1-2.247-.211 7.748 7.748 0 0 1-2.077-.811 5.5 5.5 0 0 1-1.809-1.549 2.643 2.643 0 0 1-.487-1.671 3.152 3.152 0 0 1 .714-1.687 7.857 7.857 0 0 1 1.752-1.622l-2.555-1.476 1.509-.868 2.531 1.468a18.137 18.137 0 0 1 3.724-1.371 26.234 26.234 0 0 1 3.724-.673zm-7.366 4.543a3.171 3.171 0 0 0 1.882.406 12.544 12.544 0 0 0 2.58-.576l-4.056-2.353c-1.493.982-1.631 1.85-.406 2.523zm14.237 1.184a3.244 3.244 0 0 0-2.028-.357 16.3 16.3 0 0 0-2.831.617l4.056 2.336c1.696-1.054 1.972-1.914.803-2.596z" class="cls-4" transform="translate(-180.942 -365.28)"/>
                <path id="패스_535" d="M218.37 396v-1.46l1.622 1.063-.722 1.111z" class="cls-4" transform="translate(-183.373 -368.004)"/>
                <path id="패스_536" d="M235.336 397.14v-1.46l-3.586.276 2.061 1.4z" class="cls-4" transform="translate(-185.898 -368.219)"/>
                <path id="패스_537" d="M235.915 390.525v-1.485l-2.685.973z" class="cls-4" transform="translate(-186.178 -366.966)"/>
                <path id="패스_538" d="M222.83 390.57l.892-.86 3.156 2.182-.195.641s-2.353-.99-2.434-1.047-1.419-.916-1.419-.916z" class="cls-4" transform="translate(-184.215 -367.092)"/>
                <path id="패스_539" d="M212.67 384.869l4.178 2.369.86-.617s-.527-.608-.568-.665a5.46 5.46 0 0 0-1.306-1.087c-.308-.057-2.288-.949-2.288-.949z" class="cls-4" transform="translate(-182.297 -366)"/>
                <path id="패스_540" d="M220.7 382.743v-1.468l-1.915-.625-.414 1.152.1.527z" class="cls-4" transform="translate(-183.373 -365.382)"/>
                <path id="패스_541" d="M205.51 381.58v-1.46l2.231.243-.722 1.42z" class="cls-4" transform="translate(-180.945 -365.282)"/>
                <path id="패스_542" d="M205.61 387.647v-1.517h2.555l-.625 1.363-1.1 1.217z" class="cls-4" transform="translate(-180.964 -366.417)"/>
                <path id="패스_543" d="M218.269 380.841a5.858 5.858 0 0 0-.99.081c-.438.065-.941.154-1.493.268s-1.12.268-1.712.446a12.379 12.379 0 0 0-1.7.641l4.34 2.507.771-.276c1.111-.365 2.15-.681 3.123-.933a14 14 0 0 1 2.807-.462 9.719 9.719 0 0 1 2.588.17 8.13 8.13 0 0 1 2.434.965 4.869 4.869 0 0 1 1.866 1.622 2.163 2.163 0 0 1 .276 1.7 3.71 3.71 0 0 1-1.014 1.671 10.631 10.631 0 0 1-1.979 1.566l2.758 1.622-1.5.868-2.783-1.622a23.048 23.048 0 0 1-4.137 1.566 27.559 27.559 0 0 1-4.567.852l-1.452-2.6a11.3 11.3 0 0 0 1.217-.1 17 17 0 0 0 1.817-.308c.665-.146 1.371-.324 2.117-.544a15.184 15.184 0 0 0 2.117-.811l-4.291-2.466-.568.195-.592.178a23.81 23.81 0 0 1-2.977.811 13.61 13.61 0 0 1-2.547.341 8.79 8.79 0 0 1-2.239-.17 7.509 7.509 0 0 1-2.077-.811 5.326 5.326 0 0 1-1.809-1.549 2.617 2.617 0 0 1-.487-1.671 3.167 3.167 0 0 1 .714-1.687 7.855 7.855 0 0 1 1.752-1.622l-2.555-1.476 1.509-.868 2.531 1.46a18.6 18.6 0 0 1 3.724-1.363 26.23 26.23 0 0 1 3.724-.673zm-7.366 4.527a3.171 3.171 0 0 0 1.882.406 12.176 12.176 0 0 0 2.58-.584l-4.056-2.344q-2.24 1.495-.409 2.521zm14.237 1.184a3.3 3.3 0 0 0-2.028-.365 17.241 17.241 0 0 0-2.831.625l4.056 2.328c1.7-1.022 1.971-1.89.8-2.564z" class="cls-6" transform="translate(-180.944 -364.948)"/>
            </g>
        </g>
        <g id="그룹_60" transform="translate(1054.775 1940.554)">
            <ellipse id="타원_87" cx="40.044" cy="23.122" class="cls-1" rx="40.044" ry="23.122" transform="translate(0 436.185)"/>
            <g id="Coin-19" transform="translate(4.797 422.51)">
                <ellipse id="타원_88" cx="40.044" cy="23.122" class="cls-2" rx="40.044" ry="23.122" transform="translate(0 9.912)"/>
                <path id="패스_544" d="M5.59 459.572V449.04l7.905 7.044z" class="cls-2" transform="translate(-5.573 -426.193)"/>
                <path id="패스_545" d="M97.6 449.36v9.912l-4.047 4.289-1.983-11.342z" class="cls-2" transform="translate(-17.51 -426.238)"/>
                <ellipse id="타원_89" cx="40.044" cy="23.122" class="cls-3" rx="40.044" ry="23.122"/>
                <path id="패스_546" d="M76.067 447.362c-.4 3.9-3.178 7.75-8.345 10.713-11.2 6.459-29.348 6.459-40.543 0-5.167-2.98-7.931-6.812-8.327-10.713-.491-4.556 2.3-9.214 8.327-12.685 11.2-6.476 29.348-6.476 40.543 0 6.037 3.47 8.818 8.129 8.345 12.685z" class="cls-4" transform="translate(-7.406 -423.525)"/>
                <path id="패스_547" d="M76.075 447.681c-.4 3.9-3.178 7.75-8.345 10.713-11.2 6.459-29.348 6.459-40.543 0-5.167-2.98-7.931-6.812-8.327-10.713.4-3.892 3.169-7.75 8.327-10.7 11.2-6.476 29.348-6.476 40.543 0 5.17 2.976 7.941 6.808 8.345 10.7z" class="cls-5" transform="translate(-7.415 -423.844)"/>
                <path id="패스_548" d="M49.4 443.46a6.308 6.308 0 0 0-1.051.086c-.465.069-1 .164-1.585.284s-1.188.284-1.817.474a13.142 13.142 0 0 0-1.8.68l4.607 2.661.861-.293c1.171-.388 2.273-.723 3.307-.99a14.855 14.855 0 0 1 2.98-.491 10.317 10.317 0 0 1 2.747.181 8.608 8.608 0 0 1 2.583 1.025 5.3 5.3 0 0 1 1.989 1.722 2.331 2.331 0 0 1 .284 1.8 3.938 3.938 0 0 1-1.076 1.774 11.285 11.285 0 0 1-2.1 1.662l2.928 1.722-1.593.921-2.954-1.722a24.464 24.464 0 0 1-4.392 1.662 29.252 29.252 0 0 1-4.848.9l-1.541-2.782a12 12 0 0 0 1.292-.1 18.037 18.037 0 0 0 1.929-.327c.706-.155 1.455-.344 2.248-.577a16.12 16.12 0 0 0 2.248-.861l-4.573-2.644-.6.207-.629.189a25.264 25.264 0 0 1-3.16.861 14.449 14.449 0 0 1-2.7.362 9.333 9.333 0 0 1-2.385-.224 7.972 7.972 0 0 1-2.2-.861 5.654 5.654 0 0 1-1.92-1.645 2.778 2.778 0 0 1-.517-1.774 3.362 3.362 0 0 1 .758-1.791 8.34 8.34 0 0 1 1.86-1.722l-2.713-1.567 1.6-.921 2.687 1.55a19.745 19.745 0 0 1 3.953-1.447 28.089 28.089 0 0 1 3.953-.715zm-7.819 4.831a3.366 3.366 0 0 0 2 .431 12.929 12.929 0 0 0 2.738-.62l-4.306-2.489c-1.585 1.033-1.722 1.929-.431 2.678zm15.113 1.283a3.5 3.5 0 0 0-2.153-.388 18.307 18.307 0 0 0-3.005.663l4.306 2.472c1.795-1.137 2.088-2.058.848-2.747z" class="cls-4" transform="translate(-9.774 -425.04)"/>
                <path id="패스_549" d="M48.71 456.75v-1.55l1.722 1.128-.766 1.171z" class="cls-4" transform="translate(-11.56 -427.049)"/>
                <path id="패스_550" d="M65.9 457.91v-1.55l-3.806.293 2.187 1.49z" class="cls-4" transform="translate(-13.417 -427.21)"/>
                <path id="패스_551" d="M66.42 451.287v-1.567l-2.85 1.033z" class="cls-4" transform="translate(-13.623 -426.288)"/>
                <path id="패스_552" d="M53.17 451.3l.947-.913 3.35 2.316-.207.68s-2.5-1.051-2.583-1.12-1.507-.963-1.507-.963z" class="cls-4" transform="translate(-12.179 -426.381)"/>
                <path id="패스_553" d="M43 445.608l4.435 2.515.913-.663s-.56-.637-.6-.7a5.886 5.886 0 0 0-1.378-1.154c-.336-.069-2.437-1.008-2.437-1.008z" class="cls-4" transform="translate(-10.767 -425.577)"/>
                <path id="패스_554" d="M51.182 443.543v-1.55l-2.032-.663-.439 1.223.1.551z" class="cls-4" transform="translate(-11.56 -425.123)"/>
                <path id="패스_555" d="M35.85 442.35v-1.55l2.368.25-.766 1.507z" class="cls-4" transform="translate(-9.774 -425.049)"/>
                <path id="패스_556" d="M36 448.459v-1.619h2.67l-.663 1.447-1.145 1.275z" class="cls-4" transform="translate(-9.795 -425.888)"/>
                <path id="패스_557" d="M49.4 441.67a6.308 6.308 0 0 0-1.051.086c-.465.069-1 .164-1.585.284s-1.188.276-1.817.465a13.183 13.183 0 0 0-1.8.689l4.607 2.7.861-.284c1.171-.4 2.273-.723 3.307-1a16.083 16.083 0 0 1 2.98-.491 10.731 10.731 0 0 1 2.747.189 8.809 8.809 0 0 1 2.583 1.016 5.3 5.3 0 0 1 1.989 1.722 2.331 2.331 0 0 1 .284 1.8 3.975 3.975 0 0 1-1.076 1.774 10.865 10.865 0 0 1-2.1 1.653l2.928 1.722-1.593.921-2.954-1.722a24.457 24.457 0 0 1-4.392 1.653 28.362 28.362 0 0 1-4.848.913l-1.541-2.764a11.994 11.994 0 0 0 1.292-.1c.577-.069 1.214-.172 1.929-.327s1.455-.353 2.248-.577a15.191 15.191 0 0 0 2.248-.861l-4.573-2.652-.6.207-.629.189a26.845 26.845 0 0 1-3.16.861 14.447 14.447 0 0 1-2.7.362 9.332 9.332 0 0 1-2.385-.215 8.255 8.255 0 0 1-2.2-.861 5.654 5.654 0 0 1-1.92-1.645 2.8 2.8 0 0 1-.517-1.774 3.346 3.346 0 0 1 .758-1.791 8.34 8.34 0 0 1 1.86-1.722l-2.713-1.567 1.6-.921 2.687 1.55a19.252 19.252 0 0 1 3.953-1.455 30.771 30.771 0 0 1 3.928-.697zm-7.819 4.822a3.306 3.306 0 0 0 2 .431 13.317 13.317 0 0 0 2.738-.611l-4.306-2.489c-1.59 1.033-1.728 1.928-.436 2.669zm15.113 1.266a3.393 3.393 0 0 0-2.153-.388 17.405 17.405 0 0 0-3.005.663l4.306 2.472q2.708-1.679.848-2.747z" class="cls-6" transform="translate(-9.774 -424.799)"/>
            </g>
        </g>
    </g>
</svg>
