<svg xmlns="http://www.w3.org/2000/svg" width="331" height="159.2" viewBox="0 0 331 159.2">
    <defs>
        <style>
            .cls-1{fill:#fff;opacity:.3}.cls-2{fill:#dd990e}.cls-3{fill:#f9cb07}.cls-4{fill:#cc8b09}.cls-5{fill:#e8a30a}.cls-6{fill:#f9ca06}
        </style>
    </defs>
    <g id="sec02_img_coin" transform="translate(-646 -1501.996)">
        <g id="그룹_93">
            <g id="Coin-6" transform="translate(853.084 1575.694)">
                <path id="패스_370" d="M55.13 0c30.447 0 55.13 14.255 55.13 31.838S85.577 63.677 55.13 63.677 0 49.422 0 31.838 24.682 0 55.13 0z" class="cls-1" transform="translate(13.656 21.825)"/>
                <ellipse id="타원_18" cx="55.13" cy="31.838" class="cls-2" rx="55.13" ry="31.838" transform="translate(.016 13.641)"/>
                <path id="패스_107" d="M19.557 480.238V465.73l-10.9 9.7z" class="cls-2" transform="translate(90.703 -434.27)"/>
                <path id="패스_108" d="M73.32 465.97v13.641l5.567 5.914 2.728-15.612z" class="cls-2" transform="translate(-73.32 -434.132)"/>
                <ellipse id="타원_19" cx="55.13" cy="31.838" class="cls-3" rx="55.13" ry="31.838" transform="translate(.016)"/>
                <path id="패스_109" d="M18.661 475.437c.552 5.362 4.384 10.644 11.48 14.744 15.422 8.894 40.417 8.894 55.824 0 7.112-4.1 10.928-9.383 11.48-14.744.662-6.308-3.154-12.694-11.48-17.472-15.407-8.91-40.4-8.91-55.824 0-8.311 4.778-12.111 11.196-11.48 17.472z" class="cls-4" transform="translate(-2.923 -442.605)"/>
                <path id="패스_110" d="M18.64 474.439c.552 5.362 4.384 10.644 11.48 14.744 15.422 8.894 40.417 8.894 55.824 0 7.112-4.1 10.928-9.383 11.48-14.744-.552-5.362-4.368-10.644-11.48-14.744-15.407-8.91-40.4-8.91-55.824 0-7.096 4.1-10.928 9.383-11.48 14.744z" class="cls-5" transform="translate(-2.902 -441.607)"/>
                <path id="패스_111" d="M49.555 463.208a8.131 8.131 0 0 1 1.451.11c.647.095 1.372.221 2.176.394s1.577.378 2.507.647a17.145 17.145 0 0 1 2.476.946l-6.308 3.658-1.135-.41c-1.577-.536-3.154-.993-4.557-1.356a21.184 21.184 0 0 0-4.1-.631 14.193 14.193 0 0 0-3.769.252 12.053 12.053 0 0 0-3.611 1.4 7.218 7.218 0 0 0-2.728 2.4 3.267 3.267 0 0 0-.41 2.476 5.52 5.52 0 0 0 1.577 2.444 14.645 14.645 0 0 0 2.886 2.287l-4.021 2.334 2.192 1.262 3.942-2.4a31.772 31.772 0 0 0 6.04 2.287 39.119 39.119 0 0 0 6.67 1.246l2.129-3.8a16.875 16.875 0 0 1-1.782-.142 26.429 26.429 0 0 1-2.649-.457c-.978-.205-2.018-.473-3.154-.788a21.3 21.3 0 0 1-3.154-1.151l6.308-3.643c.268.095.536.205.82.284l.867.268c1.577.52 3.043.93 4.352 1.23a19.227 19.227 0 0 0 3.722.489 12.332 12.332 0 0 0 3.28-.3 10.8 10.8 0 0 0 3.043-1.23 7.684 7.684 0 0 0 2.681-2.255 3.749 3.749 0 0 0 .725-2.444 4.617 4.617 0 0 0-1.041-2.476 11.242 11.242 0 0 0-2.57-2.318l3.737-2.16-2.208-1.277-3.69 2.145a26.527 26.527 0 0 0-5.44-2 38.335 38.335 0 0 0-5.456-.978zm10.771 6.639a4.55 4.55 0 0 1-2.744.6 19.155 19.155 0 0 1-3.769-.852l5.929-3.422q3.264 2.127.583 3.674zm-20.816 1.735a4.813 4.813 0 0 1 2.965-.52 24.7 24.7 0 0 1 4.147.9l-5.9 3.406c-2.522-1.531-2.915-2.792-1.212-3.786z" class="cls-4" transform="translate(6.158 -437.836)"/>
                <path id="패스_112" d="M43.5 472.515v-2.145l-2.413 1.577 1.041 1.577z" class="cls-4" transform="translate(15.617 -431.593)"/>
                <path id="패스_113" d="M51.15 473.375v-2.145l5.235.41-3.012 2.05z" class="cls-4" transform="translate(-13.13 -431.097)"/>
                <path id="패스_114" d="M52.27 468.4v-2.16l3.927 1.419z" class="cls-4" transform="translate(-14.707 -433.976)"/>
                <path id="패스_115" d="M50.354 468l-1.309-1.246-4.6 3.154.284.93s3.438-1.451 3.548-1.577S50.354 468 50.354 468z" class="cls-4" transform="translate(3.483 -433.682)"/>
                <path id="패스_116" d="M44.164 463.772l-6.119 3.469-1.246-.915s.773-.883.82-.962a7.777 7.777 0 0 1 1.908-1.577c.457-.095 3.359-1.388 3.359-1.388z" class="cls-4" transform="translate(21.72 -436.191)"/>
                <path id="패스_117" d="M41.09 462.989v-2.145l2.807-.915.6 1.687-.142.757z" class="cls-4" transform="translate(14.623 -437.616)"/>
                <path id="패스_118" d="M34.684 461.675v-2.145l-3.264.347 1.057 2.082z" class="cls-4" transform="translate(39.684 -437.847)"/>
                <path id="패스_119" d="M35.222 466.3v-2.22H31.5l.9 1.987 1.577 1.782z" class="cls-4" transform="translate(39.021 -435.222)"/>
                <path id="패스_120" d="M49.571 461.849a8.452 8.452 0 0 1 1.451.126q.963.142 2.176.378c.8.173 1.577.394 2.507.647a19.247 19.247 0 0 1 2.476.946l-6.308 3.654-1.135-.394c-1.577-.536-3.154-.993-4.557-1.372a22.468 22.468 0 0 0-4.116-.678 14.96 14.96 0 0 0-3.769.252 12.114 12.114 0 0 0-3.611 1.419 7.217 7.217 0 0 0-2.728 2.4 3.267 3.267 0 0 0-.41 2.476 5.639 5.639 0 0 0 1.577 2.444 15.246 15.246 0 0 0 2.886 2.287l-4.021 2.318 2.192 1.277 4.069-2.35a34.079 34.079 0 0 0 5.929 2.287 40.618 40.618 0 0 0 6.67 1.246l2.129-3.816a15.648 15.648 0 0 1-1.782-.126c-.788-.095-1.672-.252-2.649-.457s-2.018-.473-3.154-.788a23.34 23.34 0 0 1-3.154-1.167l6.308-3.627.82.284.867.268A43.738 43.738 0 0 0 54.585 473a19.356 19.356 0 0 0 3.722.5 12.276 12.276 0 0 0 3.28-.315 11.274 11.274 0 0 0 3.043-1.214 7.716 7.716 0 0 0 2.681-2.271 3.749 3.749 0 0 0 .725-2.444A4.64 4.64 0 0 0 67 464.8a11.674 11.674 0 0 0-2.57-2.334l3.737-2.16-2.208-1.262-3.69 2.129a27.379 27.379 0 0 0-5.44-1.987 40.818 40.818 0 0 0-5.456-.993zm10.77 6.651a4.542 4.542 0 0 1-2.744.583 17.061 17.061 0 0 1-3.769-.852l5.929-3.422q3.265 2.133.584 3.691zm-20.816 1.735a4.729 4.729 0 0 1 2.965-.536 23.326 23.326 0 0 1 4.147.915l-5.9 3.406c-2.523-1.545-2.917-2.807-1.214-3.785z" class="cls-6" transform="translate(6.143 -438.62)"/>
            </g>
            <g id="Coin-7" transform="translate(848.574 1558.726)">
                <ellipse id="타원_20" cx="55.13" cy="31.838" class="cls-2" rx="55.13" ry="31.838" transform="translate(.016 13.641)"/>
                <path id="패스_121" d="M22.417 469.478V454.97l-10.9 9.7z" class="cls-2" transform="translate(87.843 -423.51)"/>
                <path id="패스_122" d="M76.17 455.21v13.641l5.582 5.914 2.728-15.627z" class="cls-2" transform="translate(-76.17 -423.372)"/>
                <ellipse id="타원_21" cx="55.13" cy="31.838" class="cls-3" rx="55.13" ry="31.838" transform="translate(.016)"/>
                <path id="패스_123" d="M21.523 464.667c.568 5.362 4.384 10.644 11.5 14.76 15.407 8.894 40.4 8.894 55.824 0 7.1-4.116 10.912-9.462 11.464-14.76.662-6.308-3.154-12.615-11.464-17.472-15.422-8.91-40.417-8.91-55.824 0-8.314 4.794-12.146 11.196-11.5 17.472z" class="cls-4" transform="translate(-5.786 -431.851)"/>
                <path id="패스_124" d="M21.5 463.669c.568 5.362 4.384 10.644 11.5 14.76 15.407 8.894 40.4 8.894 55.824 0 7.1-4.116 10.912-9.462 11.464-14.76-.552-5.362-4.368-10.629-11.464-14.744-15.422-8.91-40.417-8.91-55.824 0-7.116 4.116-10.932 9.383-11.5 14.744z" class="cls-5" transform="translate(-5.762 -430.853)"/>
                <path id="패스_125" d="M52.36 452.439a10.393 10.393 0 0 1 1.451.126c.647.095 1.372.221 2.176.394a24.875 24.875 0 0 1 2.523.647 16.891 16.891 0 0 1 2.46.93l-6.308 3.659-1.135-.394c-1.577-.536-3.154-.993-4.557-1.372a22.274 22.274 0 0 0-4.1-.678 14.312 14.312 0 0 0-3.785.268 11.593 11.593 0 0 0-3.6 1.4 7.3 7.3 0 0 0-2.744 2.4 3.249 3.249 0 0 0-.394 2.476 5.449 5.449 0 0 0 1.482 2.444 15.881 15.881 0 0 0 2.9 2.287l-4.029 2.317 2.192 1.277 4.069-2.35a34.157 34.157 0 0 0 6.055 2.286 40.094 40.094 0 0 0 6.67 1.246l2-3.753a16.515 16.515 0 0 1-1.766-.142c-.8-.095-1.687-.252-2.665-.457s-2-.473-3.154-.788a22.376 22.376 0 0 1-3.154-1.151l6.308-3.643.836.284.852.268c1.577.52 3.043.93 4.368 1.23a20.254 20.254 0 0 0 3.722.489 13.1 13.1 0 0 0 3.28-.3 11.753 11.753 0 0 0 3.028-1.23 7.787 7.787 0 0 0 2.649-2.271 3.8 3.8 0 0 0 .71-2.444 4.633 4.633 0 0 0-.82-2.46 11.674 11.674 0 0 0-2.57-2.334l3.737-2.16-2.192-1.262-3.706 2.082a27.376 27.376 0 0 0-5.44-1.987 40.545 40.545 0 0 0-5.44-.993zm10.786 6.655a4.593 4.593 0 0 1-2.76.583 18.036 18.036 0 0 1-3.769-.836l5.929-3.406q3.266 2.105.601 3.658zm-20.816 1.735a4.729 4.729 0 0 1 2.965-.536 23.158 23.158 0 0 1 4.132.915l-5.9 3.406c-2.505-1.547-2.915-2.872-1.196-3.786z" class="cls-4" transform="translate(3.353 -427.081)"/>
                <path id="패스_126" d="M46.413 461.785v-2.145L44 461.217l1.057 1.577z" class="cls-4" transform="translate(12.628 -420.816)"/>
                <path id="패스_127" d="M54.01 462.6v-2.13l5.235.394-3.012 2.05z" class="cls-4" transform="translate(-15.99 -420.337)"/>
                <path id="패스_128" d="M55.12 457.64v-2.16l3.927 1.419z" class="cls-4" transform="translate(-17.541 -423.216)"/>
                <path id="패스_129" d="M53.214 457.242L51.9 455.98l-4.6 3.154.284.946s3.438-1.451 3.548-1.577z" class="cls-4" transform="translate(.623 -422.927)"/>
                <path id="패스_130" d="M47.024 453l-6.1 3.469-1.262-.9s.773-.883.836-.978a8.447 8.447 0 0 1 1.892-1.577c.457-.079 3.359-1.372 3.359-1.372z" class="cls-4" transform="translate(18.86 -425.431)"/>
                <path id="패스_131" d="M43.95 452.214v-2.129l2.807-.915.6 1.672-.142.773z" class="cls-4" transform="translate(11.763 -426.856)"/>
                <path id="패스_132" d="M37.528 450.915v-2.145l-3.248.347 1.041 2.082z" class="cls-4" transform="translate(36.84 -427.087)"/>
                <path id="패스_133" d="M38.072 455.543v-2.223H34.35l.915 1.987 1.577 1.782z" class="cls-4" transform="translate(36.187 -424.462)"/>
                <path id="패스_134" d="M52.5 451.089a8.131 8.131 0 0 1 1.451.11c.647.095 1.372.221 2.176.394s1.656.378 2.523.647a16.962 16.962 0 0 1 2.46.946l-6.31 3.658-1.135-.41c-1.577-.536-3.154-.978-4.557-1.356a20.98 20.98 0 0 0-4.1-.678 14.3 14.3 0 0 0-3.785.252 11.96 11.96 0 0 0-3.6 1.4 7.3 7.3 0 0 0-2.744 2.4 3.263 3.263 0 0 0-.394 2.476 5.356 5.356 0 0 0 1.482 2.444 15.287 15.287 0 0 0 2.87 2.3l-4.037 2.334 2.2 1.265 4.069-2.35a31.953 31.953 0 0 0 6.055 2.287 40.128 40.128 0 0 0 6.67 1.262l2.034-3.832a16.515 16.515 0 0 1-1.766-.142 25.851 25.851 0 0 1-2.665-.457c-.978-.205-2-.473-3.154-.788a20.4 20.4 0 0 1-3.154-1.151l6.308-3.643c.268.095.552.205.836.284l.852.268c1.577.52 3.043.93 4.368 1.23a20.42 20.42 0 0 0 3.722.5 13.107 13.107 0 0 0 3.28-.315 10.775 10.775 0 0 0 3.028-1.23 7.755 7.755 0 0 0 2.649-2.255 3.832 3.832 0 0 0 .71-2.444 4.618 4.618 0 0 0-1.041-2.476 11.676 11.676 0 0 0-2.57-2.318l3.737-2.16-2.192-1.277-3.485 2.145a26.527 26.527 0 0 0-5.44-2 38.161 38.161 0 0 0-5.44-.978zm10.786 6.7a4.6 4.6 0 0 1-2.76.6 19.411 19.411 0 0 1-3.769-.852l5.929-3.422q3.265 2.099.6 3.675zm-20.816 1.736a4.724 4.724 0 0 1 2.965-.52 24.5 24.5 0 0 1 4.132.9l-5.9 3.406c-2.507-1.593-2.917-2.854-1.2-3.848z" class="cls-6" transform="translate(3.214 -427.86)"/>
            </g>
        </g>
        <g id="그룹_92">
            <g id="Coin-6-2" transform="translate(649.426 1583.926)">
                <path id="패스_370-2" d="M41.886 0c23.133 0 41.886 10.83 41.886 24.19S65.019 48.38 41.886 48.38 0 37.55 0 24.19 18.753 0 41.886 0z" class="cls-1" transform="translate(10.376 16.582)"/>
                <ellipse id="타원_18-2" cx="41.886" cy="24.19" class="cls-2" rx="41.886" ry="24.19" transform="translate(.012 10.364)"/>
                <path id="패스_107-2" d="M16.939 476.753V465.73L8.66 473.1z" class="cls-2" transform="translate(66.833 -441.828)"/>
                <path id="패스_108-2" d="M73.32 465.97v10.364l4.229 4.493 2.073-11.861z" class="cls-2" transform="translate(-73.32 -441.78)"/>
                <ellipse id="타원_19-2" cx="41.886" cy="24.19" class="cls-3" rx="41.886" ry="24.19" transform="translate(.012)"/>
                <path id="패스_109-2" d="M18.645 469.635c.419 4.074 3.331 8.087 8.722 11.2 11.718 6.757 30.708 6.757 42.413 0 5.4-3.115 8.3-7.129 8.722-11.2.5-4.792-2.4-9.645-8.722-13.275-11.706-6.769-30.7-6.769-42.413 0-6.314 3.63-9.202 8.506-8.722 13.275z" class="cls-4" transform="translate(-6.687 -444.69)"/>
                <path id="패스_110-2" d="M18.64 469.292c.419 4.074 3.331 8.087 8.722 11.2 11.718 6.757 30.708 6.757 42.413 0 5.4-3.115 8.3-7.129 8.722-11.2-.419-4.074-3.319-8.087-8.722-11.2-11.706-6.769-30.7-6.769-42.413 0-5.391 3.108-8.303 7.126-8.722 11.2z" class="cls-5" transform="translate(-6.683 -444.347)"/>
                <path id="패스_111-2" d="M45.208 462.33a6.176 6.176 0 0 1 1.1.084c.491.072 1.042.168 1.653.3s1.2.288 1.9.491a13.024 13.024 0 0 1 1.881.719l-4.792 2.78-.863-.311c-1.2-.407-2.4-.755-3.463-1.03a16.1 16.1 0 0 0-3.115-.479 10.783 10.783 0 0 0-2.863.192 9.157 9.157 0 0 0-2.744 1.066 5.484 5.484 0 0 0-2.073 1.821 2.483 2.483 0 0 0-.312 1.881 4.194 4.194 0 0 0 1.2 1.857 11.125 11.125 0 0 0 2.193 1.737l-3.055 1.773 1.665.959 3-1.821a24.139 24.139 0 0 0 4.589 1.737 29.724 29.724 0 0 0 5.068.947l1.617-2.887a12.823 12.823 0 0 1-1.354-.108 20.078 20.078 0 0 1-2.013-.347c-.743-.156-1.534-.359-2.4-.6a16.185 16.185 0 0 1-2.4-.875l4.792-2.768c.2.072.407.156.623.216l.659.2c1.2.4 2.312.707 3.307.935a14.608 14.608 0 0 0 2.828.371 9.369 9.369 0 0 0 2.492-.228 8.2 8.2 0 0 0 2.312-.935 5.838 5.838 0 0 0 2.037-1.713 2.848 2.848 0 0 0 .551-1.857 3.508 3.508 0 0 0-.791-1.881 8.541 8.541 0 0 0-1.953-1.761l2.84-1.641-1.677-.971-2.8 1.629a20.154 20.154 0 0 0-4.133-1.522 29.123 29.123 0 0 0-4.145-.743zm8.183 5.044a3.457 3.457 0 0 1-2.085.455 14.553 14.553 0 0 1-2.863-.647l4.5-2.6q2.485 1.618.448 2.792zm-15.815 1.318a3.657 3.657 0 0 1 2.252-.4 18.767 18.767 0 0 1 3.151.683l-4.479 2.592c-1.918-1.167-2.218-2.121-.924-2.875z" class="cls-4" transform="translate(-2.879 -443.052)"/>
                <path id="패스_112-2" d="M42.923 472v-1.63l-1.833 1.2.791 1.2z" class="cls-4" transform="translate(1.994 -440.908)"/>
                <path id="패스_113-2" d="M51.15 472.859v-1.629l3.978.311-2.289 1.559z" class="cls-4" transform="translate(-22.263 -440.738)"/>
                <path id="패스_114-2" d="M52.27 467.881v-1.641l2.983 1.078z" class="cls-4" transform="translate(-23.731 -441.727)"/>
                <path id="패스_115-2" d="M48.933 467.7l-.994-.946-3.5 2.4.216.707s2.612-1.1 2.7-1.2 1.578-.961 1.578-.961z" class="cls-4" transform="translate(-8.029 -441.626)"/>
                <path id="패스_116-2" d="M42.4 463.442l-4.649 2.636-.947-.695s.587-.671.623-.731a5.909 5.909 0 0 1 1.45-1.2c.347-.072 2.552-1.054 2.552-1.054z" class="cls-4" transform="translate(7.662 -442.487)"/>
                <path id="패스_117-2" d="M41.09 462.254v-1.629l2.133-.695.455 1.282-.108.575z" class="cls-4" transform="translate(1.239 -442.977)"/>
                <path id="패스_118-2" d="M33.9 461.159v-1.629l-2.48.264.8 1.582z" class="cls-4" transform="translate(22.603 -443.056)"/>
                <path id="패스_119-2" d="M34.328 465.769v-1.689H31.5l.683 1.51 1.2 1.354z" class="cls-4" transform="translate(22.08 -442.155)"/>
                <path id="패스_120-2" d="M45.22 460.97a6.422 6.422 0 0 1 1.1.1q.731.108 1.653.288c.611.132 1.2.3 1.905.491a14.616 14.616 0 0 1 1.881.719l-4.792 2.78-.863-.3c-1.2-.407-2.4-.755-3.463-1.042a17.069 17.069 0 0 0-3.127-.515 11.364 11.364 0 0 0-2.863.192 9.2 9.2 0 0 0-2.744 1.078 5.484 5.484 0 0 0-2.073 1.821 2.483 2.483 0 0 0-.312 1.881 4.284 4.284 0 0 0 1.2 1.857 11.586 11.586 0 0 0 2.193 1.737l-3.055 1.761 1.665.97L36.617 473a25.9 25.9 0 0 0 4.5 1.737 30.856 30.856 0 0 0 5.068.946l1.617-2.9a11.887 11.887 0 0 1-1.354-.1c-.6-.072-1.27-.192-2.013-.347s-1.534-.359-2.4-.6a17.733 17.733 0 0 1-2.4-.887l4.792-2.756.623.216.659.2a33.205 33.205 0 0 0 3.307.923 14.7 14.7 0 0 0 2.828.383 9.324 9.324 0 0 0 2.492-.24 8.564 8.564 0 0 0 2.312-.923 5.862 5.862 0 0 0 2.037-1.725 2.848 2.848 0 0 0 .551-1.857 3.525 3.525 0 0 0-.791-1.869 8.868 8.868 0 0 0-1.953-1.773l2.84-1.641-1.677-.958-2.8 1.617a20.8 20.8 0 0 0-4.134-1.51 31.009 31.009 0 0 0-4.145-.755zm8.183 5.056a3.451 3.451 0 0 1-2.085.443 12.961 12.961 0 0 1-2.863-.647l4.5-2.6q2.485 1.617.445 2.804zm-15.815 1.318a3.593 3.593 0 0 1 2.252-.407 17.728 17.728 0 0 1 3.151.695l-4.481 2.588c-1.917-1.174-2.217-2.133-.923-2.875z" class="cls-6" transform="translate(-2.89 -443.321)"/>
            </g>
            <g id="Coin-7-2" transform="translate(646 1571.034)">
                <ellipse id="타원_20-2" cx="41.886" cy="24.19" class="cls-2" rx="41.886" ry="24.19" transform="translate(.012 10.364)"/>
                <path id="패스_121-2" d="M19.8 465.993V454.97l-8.279 7.368z" class="cls-2" transform="translate(63.973 -431.068)"/>
                <path id="패스_122-2" d="M76.17 455.21v10.364l4.241 4.493 2.073-11.873z" class="cls-2" transform="translate(-76.17 -431.02)"/>
                <ellipse id="타원_21-2" cx="41.886" cy="24.19" class="cls-3" rx="41.886" ry="24.19" transform="translate(.012)"/>
                <path id="패스_123-2" d="M21.507 458.865c.431 4.074 3.331 8.087 8.734 11.214 11.706 6.757 30.7 6.757 42.413 0 5.392-3.127 8.291-7.189 8.71-11.214.5-4.792-2.4-9.585-8.71-13.275-11.718-6.769-30.708-6.769-42.413 0-6.314 3.642-9.226 8.51-8.734 13.275z" class="cls-4" transform="translate(-9.549 -433.932)"/>
                <path id="패스_124-2" d="M21.5 458.522c.431 4.074 3.331 8.087 8.734 11.214 11.706 6.757 30.7 6.757 42.413 0 5.392-3.127 8.291-7.189 8.71-11.214-.419-4.074-3.319-8.075-8.71-11.2-11.718-6.769-30.708-6.769-42.413 0-5.403 3.125-8.303 7.126-8.734 11.2z" class="cls-5" transform="translate(-9.543 -433.589)"/>
                <path id="패스_125-2" d="M48.012 451.56a7.892 7.892 0 0 1 1.1.1c.491.072 1.042.168 1.653.3a18.9 18.9 0 0 1 1.917.491 12.829 12.829 0 0 1 1.869.707l-4.792 2.78-.863-.3c-1.2-.407-2.4-.755-3.463-1.042a16.923 16.923 0 0 0-3.115-.515 10.873 10.873 0 0 0-2.875.2 8.809 8.809 0 0 0-2.732 1.066 5.547 5.547 0 0 0-2.085 1.821 2.469 2.469 0 0 0-.3 1.881 4.14 4.14 0 0 0 1.126 1.857 12.065 12.065 0 0 0 2.2 1.737l-3.059 1.757 1.665.97 3.091-1.785a25.952 25.952 0 0 0 4.6 1.737 30.463 30.463 0 0 0 5.068.947l1.522-2.852a12.549 12.549 0 0 1-1.342-.108c-.611-.072-1.282-.192-2.025-.347s-1.522-.359-2.4-.6a17 17 0 0 1-2.4-.875l4.792-2.768.635.216.647.2c1.2.4 2.312.707 3.319.934a15.385 15.385 0 0 0 2.828.371 9.95 9.95 0 0 0 2.492-.228 8.929 8.929 0 0 0 2.3-.935 5.916 5.916 0 0 0 2.013-1.725 2.883 2.883 0 0 0 .539-1.857 3.52 3.52 0 0 0-.623-1.869 8.869 8.869 0 0 0-1.953-1.773l2.84-1.641-1.665-.958-2.816 1.581a20.8 20.8 0 0 0-4.133-1.51 30.806 30.806 0 0 0-4.133-.755zm8.2 5.056a3.49 3.49 0 0 1-2.1.443 13.7 13.7 0 0 1-2.863-.635l4.5-2.588q2.483 1.6.458 2.78zm-15.815 1.318a3.593 3.593 0 0 1 2.252-.407 17.594 17.594 0 0 1 3.139.695l-4.488 2.587c-1.9-1.174-2.214-2.18-.908-2.875z" class="cls-4" transform="translate(-5.683 -432.294)"/>
                <path id="패스_126-2" d="M45.833 461.269v-1.629L44 460.838l.8 1.2z" class="cls-4" transform="translate(-.976 -430.142)"/>
                <path id="패스_127-2" d="M54.01 462.087v-1.617l3.978.3-2.288 1.557z" class="cls-4" transform="translate(-25.123 -429.978)"/>
                <path id="패스_128-2" d="M55.12 457.121v-1.641l2.983 1.078z" class="cls-4" transform="translate(-26.569 -430.967)"/>
                <path id="패스_129-2" d="M51.793 456.939l-.994-.958-3.5 2.4.216.719s2.612-1.1 2.7-1.2z" class="cls-4" transform="translate(-10.889 -430.868)"/>
                <path id="패스_130-2" d="M45.255 452.67l-4.637 2.636-.958-.683s.587-.671.635-.743a6.419 6.419 0 0 1 1.438-1.2c.347-.06 2.552-1.042 2.552-1.042z" class="cls-4" transform="translate(4.802 -431.727)"/>
                <path id="패스_131-2" d="M43.95 451.482v-1.617l2.133-.695.455 1.27-.108.587z" class="cls-4" transform="translate(-1.621 -432.217)"/>
                <path id="패스_132-2" d="M36.748 450.4v-1.63l-2.468.264.791 1.582z" class="cls-4" transform="translate(19.755 -432.296)"/>
                <path id="패스_133-2" d="M37.178 455.009v-1.689H34.35l.695 1.51 1.2 1.354z" class="cls-4" transform="translate(19.242 -431.395)"/>
                <path id="패스_134-2" d="M48.151 450.21a6.179 6.179 0 0 1 1.1.084c.491.072 1.042.168 1.653.3s1.258.288 1.917.491a12.89 12.89 0 0 1 1.869.719l-4.792 2.78-.863-.311c-1.2-.407-2.4-.743-3.463-1.03a15.94 15.94 0 0 0-3.115-.515 10.867 10.867 0 0 0-2.875.192 9.087 9.087 0 0 0-2.732 1.066 5.547 5.547 0 0 0-2.085 1.821 2.479 2.479 0 0 0-.3 1.881 4.07 4.07 0 0 0 1.126 1.857 11.615 11.615 0 0 0 2.181 1.749l-3.067 1.773 1.665.958 3.091-1.785a24.278 24.278 0 0 0 4.6 1.737 30.492 30.492 0 0 0 5.068.959l1.546-2.911a12.549 12.549 0 0 1-1.342-.108 19.647 19.647 0 0 1-2.025-.347c-.743-.156-1.522-.359-2.4-.6a15.5 15.5 0 0 1-2.4-.875l4.792-2.768c.2.072.419.156.635.216l.647.2c1.2.4 2.312.707 3.319.935a15.516 15.516 0 0 0 2.828.383 9.958 9.958 0 0 0 2.492-.24 8.186 8.186 0 0 0 2.3-.935 5.892 5.892 0 0 0 2.013-1.713 2.912 2.912 0 0 0 .539-1.857 3.508 3.508 0 0 0-.791-1.881 8.871 8.871 0 0 0-1.953-1.761l2.84-1.641-1.665-.97-2.648 1.629a20.156 20.156 0 0 0-4.133-1.522 29 29 0 0 0-4.133-.743zm8.2 5.092a3.494 3.494 0 0 1-2.1.455 14.745 14.745 0 0 1-2.863-.647l4.5-2.6q2.483 1.59.458 2.79zm-15.82 1.318a3.589 3.589 0 0 1 2.252-.4 18.617 18.617 0 0 1 3.139.683l-4.481 2.588c-1.9-1.21-2.217-2.169-.911-2.923z" class="cls-6" transform="translate(-5.822 -432.561)"/>
            </g>
        </g>
        <g id="그룹_91">
            <ellipse id="타원_53" cx="28.018" cy="16.181" fill="#fff" rx="28.018" ry="16.181" transform="translate(759.972 1514.186)" style="isolation:isolate" opacity="0.6"/>
            <g id="Coin-7-3" transform="translate(751.5 1501.996)">
                <ellipse id="타원_20-3" cx="27.108" cy="15.655" class="cls-2" rx="27.108" ry="15.655" transform="translate(.008 6.707)"/>
                <path id="패스_121-3" d="M16.878 462.1v-7.13l-5.358 4.769z" class="cls-2" transform="translate(37.338 -439.501)"/>
                <path id="패스_122-3" d="M76.17 455.21v6.707l2.745 2.908 1.341-7.684z" class="cls-2" transform="translate(-76.17 -439.555)"/>
                <ellipse id="타원_21-3" cx="27.108" cy="15.655" class="cls-3" rx="27.108" ry="15.655" transform="translate(.008)"/>
                <path id="패스_123-3" d="M21.488 452.39c.279 2.636 2.156 5.234 5.653 7.258 7.576 4.373 19.866 4.373 27.449 0 3.489-2.024 5.366-4.653 5.637-7.258.326-3.1-1.551-6.2-5.637-8.591-7.583-4.381-19.874-4.381-27.449 0-4.087 2.357-5.971 5.501-5.653 8.591z" class="cls-4" transform="translate(-13.749 -436.254)"/>
                <path id="패스_124-3" d="M21.5 452.778c.279 2.636 2.156 5.234 5.653 7.258 7.576 4.373 19.866 4.373 27.449 0 3.489-2.024 5.366-4.652 5.637-7.258-.271-2.636-2.148-5.226-5.637-7.25-7.583-4.381-19.874-4.381-27.449 0-3.497 2.024-5.374 4.614-5.653 7.25z" class="cls-5" transform="translate(-13.761 -436.642)"/>
                <path id="패스_125-3" d="M43.16 450.579a5.1 5.1 0 0 1 .713.062c.318.047.675.109 1.07.194a12.215 12.215 0 0 1 1.241.318 8.3 8.3 0 0 1 1.21.458l-3.1 1.8-.558-.194c-.775-.264-1.551-.489-2.241-.675a10.949 10.949 0 0 0-2.016-.333 7.038 7.038 0 0 0-1.861.132 5.7 5.7 0 0 0-1.768.69 3.59 3.59 0 0 0-1.349 1.179 1.6 1.6 0 0 0-.194 1.217 2.679 2.679 0 0 0 .729 1.2 7.809 7.809 0 0 0 1.427 1.124l-1.985 1.14 1.078.628 2-1.155a16.8 16.8 0 0 0 2.978 1.124 19.711 19.711 0 0 0 3.28.613l.985-1.846a8.1 8.1 0 0 1-.868-.07c-.4-.047-.83-.124-1.31-.225s-.985-.233-1.551-.388a11.007 11.007 0 0 1-1.551-.566l3.1-1.791.411.14.419.132c.775.256 1.5.457 2.148.6a9.958 9.958 0 0 0 1.83.24 6.44 6.44 0 0 0 1.613-.147 5.779 5.779 0 0 0 1.489-.6 3.829 3.829 0 0 0 1.3-1.117 1.866 1.866 0 0 0 .349-1.2 2.278 2.278 0 0 0-.4-1.21 5.738 5.738 0 0 0-1.264-1.148l1.838-1.062-1.078-.62-1.822 1.023a13.458 13.458 0 0 0-2.675-.977 19.931 19.931 0 0 0-2.675-.489zm5.3 3.272a2.259 2.259 0 0 1-1.357.287 8.87 8.87 0 0 1-1.853-.411l2.916-1.675q1.608 1.035.298 1.799zm-10.235.853a2.325 2.325 0 0 1 1.458-.264 11.4 11.4 0 0 1 2.032.45l-2.9 1.675c-1.23-.76-1.432-1.411-.586-1.865z" class="cls-4" transform="translate(-15.765 -438.11)"/>
                <path id="패스_126-3" d="M45.186 460.695v-1.055l-1.186.775.52.775z" class="cls-4" transform="translate(-16.155 -440.549)"/>
                <path id="패스_127-3" d="M54.01 461.517v-1.047l2.574.194-1.484 1.008z" class="cls-4" transform="translate(-35.315 -440.736)"/>
                <path id="패스_128-3" d="M55.12 456.542v-1.062l1.931.7z" class="cls-4" transform="translate(-36.642 -439.615)"/>
                <path id="패스_129-3" d="M50.208 456.6l-.644-.62-2.264 1.551.14.465s1.69-.713 1.745-.775z" class="cls-4" transform="translate(-23.735 -439.727)"/>
                <path id="패스_130-3" d="M43.281 452.307l-3 1.706-.62-.442s.38-.434.411-.481a4.153 4.153 0 0 1 .93-.775c.225-.039 1.652-.675 1.652-.675z" class="cls-4" transform="translate(-10.885 -438.753)"/>
                <path id="패스_131-3" d="M43.95 450.667v-1.047l1.38-.45.295.822-.07.38z" class="cls-4" transform="translate(-16.555 -438.198)"/>
                <path id="패스_132-3" d="M35.877 449.825v-1.055l-1.6.171.512 1.024z" class="cls-4" transform="translate(.691 -438.108)"/>
                <path id="패스_133-3" d="M36.18 454.413v-1.093h-1.83l.45.977.775.876z" class="cls-4" transform="translate(.334 -439.13)"/>
                <path id="패스_134-3" d="M43.3 449.229a4 4 0 0 1 .713.054c.318.047.675.109 1.07.194s.814.186 1.241.318a8.331 8.331 0 0 1 1.21.465l-3.1 1.8-.558-.2c-.775-.264-1.551-.481-2.241-.667a10.322 10.322 0 0 0-2.016-.333 7.034 7.034 0 0 0-1.861.124 5.881 5.881 0 0 0-1.768.69 3.59 3.59 0 0 0-1.349 1.179 1.6 1.6 0 0 0-.194 1.217 2.634 2.634 0 0 0 .729 1.2 7.521 7.521 0 0 0 1.411 1.132l-1.987 1.147 1.078.62 2-1.155a15.709 15.709 0 0 0 2.978 1.124 19.728 19.728 0 0 0 3.28.62l1-1.884a8.112 8.112 0 0 1-.868-.07 12.684 12.684 0 0 1-1.31-.225c-.481-.1-.985-.233-1.551-.388a10.024 10.024 0 0 1-1.551-.566l3.1-1.791c.132.047.271.1.411.14l.419.132c.775.256 1.5.458 2.148.6a10.038 10.038 0 0 0 1.83.248 6.445 6.445 0 0 0 1.613-.155 5.3 5.3 0 0 0 1.489-.6 3.814 3.814 0 0 0 1.3-1.109 1.885 1.885 0 0 0 .349-1.2 2.271 2.271 0 0 0-.512-1.217 5.743 5.743 0 0 0-1.264-1.14l1.838-1.062-1.078-.628-1.711 1.057a13.042 13.042 0 0 0-2.675-.985 18.749 18.749 0 0 0-2.675-.481zm5.3 3.3a2.261 2.261 0 0 1-1.357.295 9.542 9.542 0 0 1-1.853-.419l2.916-1.683q1.608 1.027.294 1.802zm-10.235.853a2.323 2.323 0 0 1 1.458-.256 12.053 12.053 0 0 1 2.032.442l-2.9 1.675c-1.233-.783-1.435-1.4-.589-1.892z" class="cls-6" transform="translate(-15.905 -437.807)"/>
            </g>
        </g>
    </g>
</svg>
