<svg xmlns="http://www.w3.org/2000/svg" width="138.863" height="332.315" viewBox="0 0 138.863 332.315">
    <defs>
        <style>
            .cls-2{fill:#dd990e}.cls-3{fill:#f9cb07}.cls-4{fill:#cc8b09}.cls-5{fill:#e8a30a}.cls-6{fill:#f9ca06}.cls-7{fill:#ffcea9}.cls-8{fill:#ededed}.cls-9{fill:#333}.cls-10{fill:#9c73ff}
        </style>
    </defs>
    <g id="sec03_img_human" transform="translate(-167.21 -106.529)">
        <ellipse id="타원_63" cx="62.551" cy="36.118" rx="62.551" ry="36.118" transform="translate(167.21 366.607)" style="isolation:isolate" fill="#d6d8e5" opacity="0.3"/>
        <g id="Coin-8" transform="translate(172.873 343.793)">
            <ellipse id="타원_64" cx="62.551" cy="36.118" class="cls-2" rx="62.551" ry="36.118" transform="translate(0 15.483)"/>
            <path id="패스_385" d="M171.43 325.892V309.44l12.362 11z" class="cls-2" transform="translate(-171.417 -273.752)"/>
            <path id="패스_386" d="M266.836 309.76v15.47l-6.322 6.712-3.094-17.716z" class="cls-2" transform="translate(-141.735 -273.642)"/>
            <ellipse id="타원_65" cx="62.551" cy="36.118" class="cls-3" rx="62.551" ry="36.118"/>
            <path id="패스_387" d="M274.109 317.622c-.646 6.08-4.977 12.107-13.035 16.734-17.487 10.089-45.844 10.089-63.331 0-8.071-4.654-12.4-10.654-13.021-16.734-.753-7.116 3.592-14.393 13.021-19.828 17.487-10.1 45.844-10.1 63.331 0 9.426 5.435 13.775 12.712 13.035 19.828z" class="cls-4" transform="translate(-166.857 -280.388)"/>
            <path id="패스_388" d="M274.087 316.828c-.646 6.08-4.977 12.107-13.035 16.734-17.487 10.089-45.844 10.089-63.331 0-8.071-4.654-12.4-10.654-13.021-16.734.619-6.08 4.964-12.107 13.021-16.734 17.487-10.1 45.844-10.1 63.331 0 8.058 4.668 12.39 10.654 13.035 16.734z" class="cls-5" transform="translate(-166.836 -279.594)"/>
            <path id="패스_389" d="M222.86 305.363a9.717 9.717 0 0 0-1.641.135c-.74.108-1.56.256-2.475.444s-1.856.444-2.852.726a22.433 22.433 0 0 0-2.8 1.076l7.183 4.157 1.345-.457c1.829-.605 3.551-1.13 5.179-1.547a24.161 24.161 0 0 1 4.654-.78 16.763 16.763 0 0 1 4.291.3 13.58 13.58 0 0 1 4.036 1.6 8.073 8.073 0 0 1 3.094 2.69 3.656 3.656 0 0 1 .457 2.811 6.209 6.209 0 0 1-1.681 2.771 17.593 17.593 0 0 1-3.228 2.623L243 324.6l-2.5 1.439-4.614-2.69a37.445 37.445 0 0 1-6.86 2.6 45.507 45.507 0 0 1-7.56 1.412l-2.408-4.318a18.52 18.52 0 0 0 2-.161c.9-.108 1.91-.269 3.027-.511s2.273-.538 3.511-.9a26.013 26.013 0 0 0 3.511-1.345l-7.156-4.13-.928.323-.982.3a39.628 39.628 0 0 1-4.95 1.345 22.448 22.448 0 0 1-4.21.565 15.148 15.148 0 0 1-3.726-.35 12.724 12.724 0 0 1-3.444-1.345 8.7 8.7 0 0 1-3-2.569 4.375 4.375 0 0 1-.807-2.771 5.163 5.163 0 0 1 1.184-2.8 12.733 12.733 0 0 1 2.906-2.69l-4.291-2.381 2.489-1.439 4.21 2.421a30.181 30.181 0 0 1 6.161-2.26 44.069 44.069 0 0 1 6.174-1.116zm-12.228 7.546a5.288 5.288 0 0 0 3.121.673 20.847 20.847 0 0 0 4.291-.969l-6.726-3.888c-2.489 1.614-2.7 2.959-.686 4.183zm23.621 1.964a5.373 5.373 0 0 0-3.363-.605 28.748 28.748 0 0 0-4.708 1.036l6.726 3.861c2.825-1.735 3.282-3.175 1.345-4.291z" class="cls-4" transform="translate(-160.968 -276.59)"/>
            <path id="패스_390" d="M214.56 318.045c.067-.175 0-2.435 0-2.435l2.69 1.776-1.2 1.829z" class="cls-4" transform="translate(-156.529 -271.623)"/>
            <path id="패스_391" d="M233.886 319.181v-2.421l-5.946.444 3.4 2.341z" class="cls-4" transform="translate(-151.91 -271.226)"/>
            <path id="패스_392" d="M233.873 312.568v-2.448l-4.453 1.614z" class="cls-4" transform="translate(-151.4 -273.518)"/>
            <path id="패스_393" d="M219 312.216l1.48-1.426 5.219 3.619-.323 1.063s-3.9-1.655-4.036-1.749z" class="cls-4" transform="translate(-154.996 -273.286)"/>
            <path id="패스_394" d="M208.86 306.56l6.928 3.941 1.412-1.036s-.861-1-.928-1.09a9.05 9.05 0 0 0-2.166-1.816c-.511-.094-3.807-1.56-3.807-1.56z" class="cls-4" transform="translate(-158.496 -275.285)"/>
            <path id="패스_395" d="M218.421 305.187v-2.421l-3.188-1.036-.673 1.9.161.874z" class="cls-4" transform="translate(-156.529 -276.414)"/>
            <path id="패스_396" d="M201.7 303.621V301.2l3.686.39-1.184 2.354z" class="cls-4" transform="translate(-160.968 -276.597)"/>
            <path id="패스_397" d="M201.8 309.769v-2.529h4.3l-1.036 2.26-1.843 2.018z" class="cls-4" transform="translate(-160.933 -274.512)"/>
            <path id="패스_398" d="M222.86 303.594a9.72 9.72 0 0 0-1.641.135c-.74.108-1.56.256-2.475.444s-1.856.43-2.852.726a20.42 20.42 0 0 0-2.8 1.076l7.183 4.143 1.345-.457c1.829-.605 3.551-1.117 5.179-1.547a25.125 25.125 0 0 1 4.654-.767 16.761 16.761 0 0 1 4.291.3 13.514 13.514 0 0 1 4.036 1.587 8.225 8.225 0 0 1 3.094 2.69 3.645 3.645 0 0 1 .457 2.811 6.209 6.209 0 0 1-1.681 2.771 17.5 17.5 0 0 1-3.282 2.583l4.574 2.69-2.5 1.439-4.614-2.69a37.488 37.488 0 0 1-6.86 2.583 44.281 44.281 0 0 1-7.56 1.426L219 321.2a17.528 17.528 0 0 0 2-.148q1.346-.161 3.027-.525c1.1-.229 2.273-.538 3.511-.888a26.01 26.01 0 0 0 3.511-1.345l-7.156-4.13c-.3.121-.619.229-.928.336l-.982.3a42.091 42.091 0 0 1-4.95 1.345 22.441 22.441 0 0 1-4.21.565 14 14 0 0 1-3.726-.35 12.254 12.254 0 0 1-3.444-1.345 8.861 8.861 0 0 1-3-2.569 4.374 4.374 0 0 1-.807-2.771 5.119 5.119 0 0 1 1.184-2.8 12.73 12.73 0 0 1 2.906-2.69l-4.237-2.448 2.489-1.439 4.21 2.421a30.221 30.221 0 0 1 6.161-2.273 46.194 46.194 0 0 1 6.174-1.117zm-12.228 7.533a5.2 5.2 0 0 0 3.121.673 20.749 20.749 0 0 0 4.291-.955l-6.726-3.888c-2.489 1.614-2.704 3-.686 4.17zm23.621 1.977a5.374 5.374 0 0 0-3.363-.605 27.368 27.368 0 0 0-4.708 1.036l6.726 3.861q4.252-2.623 1.345-4.296z" class="cls-6" transform="translate(-160.968 -277.242)"/>
        </g>
        <g id="Coin-9" transform="translate(172.873 323.535)">
            <ellipse id="타원_66" cx="62.551" cy="36.118" class="cls-2" rx="62.551" ry="36.118" transform="translate(0 15.47)"/>
            <path id="패스_399" d="M171.43 310.832V294.38l12.362 11z" class="cls-2" transform="translate(-171.417 -258.692)"/>
            <path id="패스_400" d="M266.836 294.7v15.47l-6.322 6.712-3.094-17.716z" class="cls-2" transform="translate(-141.735 -258.582)"/>
            <ellipse id="타원_67" cx="62.551" cy="36.118" class="cls-3" rx="62.551" ry="36.118"/>
            <path id="패스_401" d="M274.109 302.562c-.646 6.08-4.977 12.107-13.035 16.734-17.487 10.089-45.844 10.089-63.331 0-8.071-4.654-12.4-10.654-13.021-16.734-.753-7.116 3.592-14.393 13.021-19.828 17.487-10.1 45.844-10.1 63.331 0 9.426 5.435 13.775 12.712 13.035 19.828z" class="cls-4" transform="translate(-166.857 -265.328)"/>
            <path id="패스_402" d="M274.087 301.768c-.646 6.08-4.977 12.107-13.035 16.734-17.487 10.089-45.844 10.089-63.331 0-8.071-4.654-12.4-10.654-13.021-16.734.619-6.08 4.964-12.107 13.021-16.734 17.487-10.1 45.844-10.1 63.331 0 8.058 4.666 12.39 10.641 13.035 16.734z" class="cls-5" transform="translate(-166.836 -264.534)"/>
            <path id="패스_403" d="M222.86 290.327a9.723 9.723 0 0 0-1.641.135c-.74.108-1.56.256-2.475.444s-1.856.444-2.852.726a20.421 20.421 0 0 0-2.8 1.076l7.183 4.157 1.345-.457c1.829-.619 3.551-1.13 5.179-1.547a24.157 24.157 0 0 1 4.654-.78 16.761 16.761 0 0 1 4.291.3 13.58 13.58 0 0 1 4.036 1.6 8.073 8.073 0 0 1 3.094 2.69 3.656 3.656 0 0 1 .457 2.811 6.209 6.209 0 0 1-1.681 2.771 17.625 17.625 0 0 1-3.282 2.6l4.574 2.69-2.5 1.439-4.614-2.69a38.455 38.455 0 0 1-6.86 2.6 45.506 45.506 0 0 1-7.56 1.412L219 307.976a18.484 18.484 0 0 0 2-.161c.9-.108 1.91-.269 3.027-.511s2.273-.538 3.511-.9a26.015 26.015 0 0 0 3.511-1.345l-7.156-4.13-.928.323-.982.3a39.62 39.62 0 0 1-4.95 1.345 22.441 22.441 0 0 1-4.21.565 15.209 15.209 0 0 1-3.726-.35 12.741 12.741 0 0 1-3.444-1.345 8.7 8.7 0 0 1-3-2.569 4.374 4.374 0 0 1-.807-2.771 5.163 5.163 0 0 1 1.184-2.8 12.73 12.73 0 0 1 2.906-2.69l-4.237-2.448 2.489-1.439 4.21 2.421a30.18 30.18 0 0 1 6.161-2.26 44.069 44.069 0 0 1 6.174-1.117zm-12.228 7.546a5.181 5.181 0 0 0 3.121.659 19.879 19.879 0 0 0 4.291-.955l-6.726-3.888c-2.489 1.614-2.7 3.04-.686 4.184zm23.621 1.964a5.374 5.374 0 0 0-3.363-.605 27.365 27.365 0 0 0-4.708 1.036l6.726 3.861c2.825-1.735 3.282-3.175 1.345-4.291z" class="cls-4" transform="translate(-160.968 -261.554)"/>
            <path id="패스_404" d="M214.56 302.985c.067-.175 0-2.435 0-2.435l2.69 1.776-1.2 1.829z" class="cls-4" transform="translate(-156.529 -256.563)"/>
            <path id="패스_405" d="M233.886 304.121V301.7l-5.946.444 3.4 2.341z" class="cls-4" transform="translate(-151.91 -256.166)"/>
            <path id="패스_406" d="M233.873 297.508v-2.448l-4.453 1.614z" class="cls-4" transform="translate(-151.4 -258.458)"/>
            <path id="패스_407" d="M219 297.125l1.48-1.345 5.219 3.605-.323 1.076s-3.9-1.655-4.036-1.749z" class="cls-4" transform="translate(-154.996 -258.209)"/>
            <path id="패스_408" d="M208.86 291.511l6.914 3.9 1.412-1.036s-.861-1-.928-1.09a9.048 9.048 0 0 0-2.166-1.816c-.511-.094-3.807-1.56-3.807-1.56z" class="cls-4" transform="translate(-158.496 -260.235)"/>
            <path id="패스_409" d="M218.421 290.127v-2.421l-3.188-1.036-.673 1.9.161.874z" class="cls-4" transform="translate(-156.529 -261.354)"/>
            <path id="패스_410" d="M201.7 288.561v-2.421l3.686.39-1.184 2.354z" class="cls-4" transform="translate(-160.968 -261.537)"/>
            <path id="패스_411" d="M201.8 294.709v-2.529h4.3l-1.036 2.26-1.843 2.018z" class="cls-4" transform="translate(-160.933 -259.452)"/>
            <path id="패스_412" d="M222.86 288.534a9.713 9.713 0 0 0-1.641.135c-.74.108-1.56.242-2.475.444s-1.856.43-2.852.726a20.42 20.42 0 0 0-2.8 1.076l7.183 4.143 1.345-.457c1.829-.605 3.551-1.117 5.179-1.547a25.122 25.122 0 0 1 4.654-.767 16.759 16.759 0 0 1 4.291.3 13.513 13.513 0 0 1 4.036 1.587 8.225 8.225 0 0 1 3.094 2.69 3.645 3.645 0 0 1 .457 2.811 6.209 6.209 0 0 1-1.681 2.771 17.5 17.5 0 0 1-3.282 2.583l4.574 2.69-2.5 1.439-4.614-2.69a37.488 37.488 0 0 1-6.86 2.583 45.68 45.68 0 0 1-7.56 1.426L219 306.143a17.549 17.549 0 0 0 2-.148q1.346-.161 3.027-.525c1.1-.229 2.273-.538 3.511-.888a26.015 26.015 0 0 0 3.511-1.345l-7.156-4.13c-.3.121-.619.229-.928.323l-.982.309a42.1 42.1 0 0 1-4.95 1.345 22.445 22.445 0 0 1-4.21.565 14 14 0 0 1-3.726-.35 12.253 12.253 0 0 1-3.444-1.345 8.861 8.861 0 0 1-3-2.569 4.383 4.383 0 0 1-.807-2.771 5.119 5.119 0 0 1 1.184-2.8 12.73 12.73 0 0 1 2.906-2.69l-4.237-2.448 2.489-1.439 4.21 2.421a30.223 30.223 0 0 1 6.161-2.273 46.189 46.189 0 0 1 6.174-1.117zm-12.228 7.533a5.2 5.2 0 0 0 3.121.673 20.752 20.752 0 0 0 4.291-.955l-6.726-3.888c-2.489 1.614-2.7 3-.686 4.116zm23.621 1.977a5.374 5.374 0 0 0-3.363-.605 27.368 27.368 0 0 0-4.708 1.036l6.726 3.861q4.252-2.623 1.345-4.291z" class="cls-6" transform="translate(-160.968 -262.182)"/>
        </g>
        <g id="Coin-10" transform="translate(176.922 300.573)">
            <ellipse id="타원_68" cx="62.551" cy="36.118" class="cls-2" rx="62.551" ry="36.118" transform="translate(0 15.483)"/>
            <path id="패스_413" d="M174.44 293.762V277.31l12.362 11z" class="cls-2" transform="translate(-174.427 -241.622)"/>
            <path id="패스_414" d="M269.846 277.63v15.483l-6.322 6.7-3.094-17.713z" class="cls-2" transform="translate(-144.745 -241.512)"/>
            <ellipse id="타원_69" cx="62.551" cy="36.118" class="cls-3" rx="62.551" ry="36.118"/>
            <path id="패스_415" d="M277.116 285.491c-.632 6.08-4.964 12.107-13.035 16.734-17.487 10.089-45.844 10.089-63.331 0-8.071-4.654-12.389-10.654-13.008-16.734-.767-7.116 3.592-14.393 13.008-19.814 17.487-10.116 45.844-10.116 63.331 0 9.43 5.423 13.775 12.698 13.035 19.814z" class="cls-4" transform="translate(-169.865 -248.257)"/>
            <path id="패스_416" d="M277.094 284.7c-.632 6.08-4.964 12.107-13.035 16.734-17.487 10.089-45.844 10.089-63.331 0-8.071-4.654-12.389-10.654-13.008-16.734.619-6.08 4.95-12.107 13.008-16.721 17.487-10.116 45.844-10.116 63.331 0 8.071 4.652 12.403 10.638 13.035 16.721z" class="cls-5" transform="translate(-169.843 -247.463)"/>
            <path id="패스_417" d="M225.863 273.233a9.71 9.71 0 0 0-1.641.134c-.726.108-1.56.256-2.475.444s-1.856.444-2.838.74a19.789 19.789 0 0 0-2.811 1.063l7.2 4.157 1.278-.457c1.829-.605 3.565-1.13 5.179-1.547A23.2 23.2 0 0 1 234.4 277a16.114 16.114 0 0 1 4.291.282 13.48 13.48 0 0 1 4.036 1.6 8.192 8.192 0 0 1 3.094 2.69 3.586 3.586 0 0 1 .457 2.811 6.152 6.152 0 0 1-1.681 2.771 17.629 17.629 0 0 1-3.282 2.6l4.574 2.69-2.5 1.439-4.614-2.69a37.436 37.436 0 0 1-6.86 2.6 45.37 45.37 0 0 1-7.56 1.412l-2.408-4.318a18.74 18.74 0 0 0 2.018-.161 28.166 28.166 0 0 0 3.013-.511c1.1-.242 2.273-.538 3.511-.9a25.178 25.178 0 0 0 3.511-1.352l-7.143-4.13-.942.323-.982.3a39.624 39.624 0 0 1-4.95 1.345 22.347 22.347 0 0 1-4.13.659 14.574 14.574 0 0 1-3.726-.35 12.449 12.449 0 0 1-3.444-1.345 8.7 8.7 0 0 1-3-2.569 4.34 4.34 0 0 1-.807-2.771 5.163 5.163 0 0 1 1.184-2.8 13.026 13.026 0 0 1 2.906-2.69l-4.237-2.448 2.5-1.439 4.2 2.421a30.837 30.837 0 0 1 6.174-2.26 43.49 43.49 0 0 1 6.174-1.117zm-12.214 7.546a5.246 5.246 0 0 0 3.107.673 20.047 20.047 0 0 0 4.291-.969l-6.726-3.888c-2.502 1.615-2.704 3.014-.672 4.185zm23.608 1.964a5.469 5.469 0 0 0-3.363-.605 28.591 28.591 0 0 0-4.695 1.036l6.726 3.861c2.798-1.735 3.269-3.175 1.331-4.291z" class="cls-4" transform="translate(-163.971 -244.46)"/>
            <path id="패스_418" d="M217.57 285.911c.067-.175 0-2.421 0-2.421l2.69 1.762-1.2 1.829z" class="cls-4" transform="translate(-159.539 -239.489)"/>
            <path id="패스_419" d="M236.9 287.051v-2.421l-5.946.457 3.417 2.327z" class="cls-4" transform="translate(-154.92 -239.096)"/>
            <path id="패스_420" d="M236.883 280.438v-2.448l-4.453 1.61z" class="cls-4" transform="translate(-154.41 -241.388)"/>
            <path id="패스_421" d="M222 280.086l1.48-1.426 5.233 3.619-.323 1.063s-3.9-1.655-4.036-1.749z" class="cls-4" transform="translate(-158.01 -241.156)"/>
            <path id="패스_422" d="M211.87 274.376l6.9 4.036 1.426-1.036s-.874-1-.942-1.09a9.025 9.025 0 0 0-2.166-1.8c-.511-.108-3.793-1.574-3.793-1.574z" class="cls-4" transform="translate(-161.506 -243.141)"/>
            <path id="패스_423" d="M221.431 273.057v-2.421l-3.188-1.036-.673 1.91.161.861z" class="cls-4" transform="translate(-159.539 -244.284)"/>
            <path id="패스_424" d="M204.71 271.491v-2.421l3.7.39-1.2 2.354z" class="cls-4" transform="translate(-163.978 -244.467)"/>
            <path id="패스_425" d="M204.81 277.649v-2.529h4.29l-1.036 2.26-1.829 2.018z" class="cls-4" transform="translate(-163.943 -242.378)"/>
            <path id="패스_426" d="M225.884 271.461a9.719 9.719 0 0 0-1.641.135c-.726.108-1.56.256-2.475.444s-1.856.43-2.838.726a20.013 20.013 0 0 0-2.811 1.076l7.2 4.143 1.278-.444c1.829-.619 3.565-1.13 5.179-1.56a25.119 25.119 0 0 1 4.654-.767 16.764 16.764 0 0 1 4.291.3 13.76 13.76 0 0 1 4.036 1.587 8.225 8.225 0 0 1 3.094 2.69 3.587 3.587 0 0 1 .457 2.811 6.209 6.209 0 0 1-1.681 2.771 16.971 16.971 0 0 1-3.282 2.583l4.574 2.69-2.5 1.439-4.614-2.69a37.49 37.49 0 0 1-6.86 2.583 44.023 44.023 0 0 1-7.56 1.426l-2.408-4.318a18.74 18.74 0 0 0 2.018-.161c.9-.108 1.9-.269 3.013-.511s2.273-.552 3.511-.9a23.727 23.727 0 0 0 3.511-1.345l-7.143-4.116-.942.323-.982.3a42.1 42.1 0 0 1-4.95 1.345 22.337 22.337 0 0 1-4.21.565 14.577 14.577 0 0 1-3.726-.336 12.891 12.891 0 0 1-3.444-1.345 8.7 8.7 0 0 1-3-2.569 4.375 4.375 0 0 1-.807-2.771 5.119 5.119 0 0 1 1.184-2.8 13.026 13.026 0 0 1 2.906-2.69l-4.237-2.448 2.5-1.439 4.2 2.421a30.069 30.069 0 0 1 6.174-2.273 47.552 47.552 0 0 1 6.174-1.117zm-12.214 7.533a5.153 5.153 0 0 0 3.107.673 20.749 20.749 0 0 0 4.291-.955l-6.726-3.888c-2.5 1.614-2.7 3.013-.673 4.21zm23.608 1.977a5.3 5.3 0 0 0-3.363-.605 27.191 27.191 0 0 0-4.695 1.036l6.726 3.861q4.237-2.624 1.331-4.292z" class="cls-6" transform="translate(-163.992 -245.109)"/>
        </g>
        <g id="Coin-11" transform="translate(175.564 277.61)">
            <ellipse id="타원_70" cx="62.551" cy="36.118" class="cls-2" rx="62.551" ry="36.118" transform="translate(0 15.483)"/>
            <path id="패스_427" d="M173.44 276.705V260.24l12.36 11.017z" class="cls-2" transform="translate(-173.413 -224.552)"/>
            <path id="패스_428" d="M268.833 260.56v15.483l-6.309 6.7-3.094-17.716z" class="cls-2" transform="translate(-143.731 -224.442)"/>
            <ellipse id="타원_71" cx="62.551" cy="36.118" class="cls-3" rx="62.551" ry="36.118"/>
            <path id="패스_429" d="M276.105 268.435c-.632 6.08-4.964 12.107-13.021 16.721-17.487 10.089-45.844 10.089-63.331 0-8.071-4.654-12.4-10.64-13.021-16.721-.753-7.129 3.592-14.393 13.021-19.828 17.487-10.116 45.844-10.116 63.331 0 9.416 5.434 13.775 12.698 13.021 19.828z" class="cls-4" transform="translate(-168.854 -231.187)"/>
            <path id="패스_430" d="M276.084 267.638c-.632 6.08-4.964 12.107-13.021 16.721-17.487 10.089-45.844 10.089-63.331 0-8.071-4.654-12.4-10.64-13.021-16.721.619-6.094 4.95-12.107 13.021-16.734 17.487-10.1 45.844-10.1 63.331 0 8.057 4.655 12.389 10.641 13.021 16.734z" class="cls-5" transform="translate(-168.833 -230.39)"/>
            <path id="패스_431" d="M224.87 256.19a9.308 9.308 0 0 0-1.641.121c-.74.108-1.56.256-2.475.444s-1.87.444-2.852.74a19.624 19.624 0 0 0-2.8 1.063l7.183 4.157 1.345-.457c1.829-.605 3.551-1.13 5.179-1.547a23.016 23.016 0 0 1 4.654-.767 16.072 16.072 0 0 1 4.278.282 13.862 13.862 0 0 1 4.022 1.6 8.192 8.192 0 0 1 3.094 2.69 3.724 3.724 0 0 1 .457 2.811 6.273 6.273 0 0 1-1.681 2.771 18.031 18.031 0 0 1-3.215 2.623l4.574 2.69-2.5 1.439-4.614-2.69a38.209 38.209 0 0 1-6.86 2.6 45.513 45.513 0 0 1-7.56 1.412l-2.421-4.318a18.731 18.731 0 0 0 2.018-.161 27.515 27.515 0 0 0 3.013-.511c1.117-.242 2.287-.538 3.524-.9a26.376 26.376 0 0 0 3.511-1.345l-7.2-4.13-.928.323-.982.3a40.252 40.252 0 0 1-4.95 1.345 22.458 22.458 0 0 1-4.224.565 14.418 14.418 0 0 1-3.713-.35 12.535 12.535 0 0 1-3.457-1.345 8.776 8.776 0 0 1-2.986-2.556 4.251 4.251 0 0 1-.807-2.785 5.122 5.122 0 0 1 1.184-2.785 12.476 12.476 0 0 1 2.906-2.69l-4.237-2.448 2.489-1.439 4.2 2.421a31.439 31.439 0 0 1 6.174-2.26 44.072 44.072 0 0 1 6.174-1.116zm-12.228 7.533a5.258 5.258 0 0 0 3.121.673 19.923 19.923 0 0 0 4.278-.969l-6.726-3.888c-2.489 1.629-2.691 3.014-.673 4.184zm23.621 1.964a5.532 5.532 0 0 0-3.376-.605 28.591 28.591 0 0 0-4.695 1.036l6.726 3.874q4.251-2.623 1.345-4.3z" class="cls-4" transform="translate(-162.965 -227.404)"/>
            <path id="패스_432" d="M216.56 268.841q.061-1.211 0-2.421l2.758 1.762-1.2 1.843z" class="cls-4" transform="translate(-158.529 -222.419)"/>
            <path id="패스_433" d="M235.9 269.981v-2.421l-5.959.457 3.417 2.327z" class="cls-4" transform="translate(-153.91 -222.026)"/>
            <path id="패스_434" d="M235.883 263.368v-2.448l-4.453 1.614z" class="cls-4" transform="translate(-153.396 -224.318)"/>
            <path id="패스_435" d="M221 263.016l1.48-1.426 5.219 3.619-.323 1.063s-3.9-1.641-4.036-1.749z" class="cls-4" transform="translate(-156.996 -224.086)"/>
            <path id="패스_436" d="M210.86 257.4l6.941 3.928 1.345-1.036s-.874-1-.928-1.09a9.261 9.261 0 0 0-2.166-1.8c-.511-.094-3.807-1.574-3.807-1.574z" class="cls-4" transform="translate(-160.496 -226.075)"/>
            <path id="패스_437" d="M220.434 256v-2.435l-3.188-1.036-.686 1.91.175.861z" class="cls-4" transform="translate(-158.529 -227.214)"/>
            <path id="패스_438" d="M203.71 254.421V252l3.686.39-1.184 2.354z" class="cls-4" transform="translate(-162.965 -227.397)"/>
            <path id="패스_439" d="M203.81 260.566v-2.516h4.29l-1.036 2.246-1.843 2.018z" class="cls-4" transform="translate(-162.93 -225.308)"/>
            <path id="패스_440" d="M224.87 254.363a9.72 9.72 0 0 0-1.641.135c-.74.108-1.56.256-2.475.444s-1.87.444-2.852.726a21.476 21.476 0 0 0-2.8 1.076l7.183 4.157 1.345-.457c1.829-.605 3.551-1.13 5.179-1.547a24.039 24.039 0 0 1 4.654-.78 16.658 16.658 0 0 1 4.278.3 13.49 13.49 0 0 1 4.022 1.6 8.074 8.074 0 0 1 3.094 2.69 3.712 3.712 0 0 1 .457 2.811 6.345 6.345 0 0 1-1.681 2.771 18.03 18.03 0 0 1-3.215 2.623l4.574 2.69-2.5 1.439-4.614-2.69a38.213 38.213 0 0 1-6.86 2.6 45.507 45.507 0 0 1-7.56 1.412l-2.421-4.318a18.739 18.739 0 0 0 2.018-.161c.9-.108 1.91-.269 3.013-.511s2.287-.538 3.524-.9a26.376 26.376 0 0 0 3.511-1.345l-7.156-4.13-.928.323-.982.3a40.26 40.26 0 0 1-4.95 1.345 22.458 22.458 0 0 1-4.224.565 15.043 15.043 0 0 1-3.713-.35 12.935 12.935 0 0 1-3.457-1.345 8.641 8.641 0 0 1-2.986-2.569 4.214 4.214 0 0 1-.807-2.771 5.163 5.163 0 0 1 1.184-2.8 12.445 12.445 0 0 1 2.906-2.69l-4.278-2.381 2.489-1.439 4.2 2.421a30.565 30.565 0 0 1 6.174-2.26 44.067 44.067 0 0 1 6.174-1.117zm-12.228 7.546a5.258 5.258 0 0 0 3.121.673 20.831 20.831 0 0 0 4.278-.969l-6.726-3.888c-2.489 1.615-2.691 2.961-.673 4.185zm23.621 1.964a5.378 5.378 0 0 0-3.376-.605 28.591 28.591 0 0 0-4.695 1.036l6.726 3.861c2.812-1.736 3.282-3.175 1.345-4.291z" class="cls-6" transform="translate(-162.965 -228.011)"/>
        </g>
        <g id="Coin-12" transform="translate(179.626 256.007)">
            <ellipse id="타원_72" cx="62.551" cy="36.118" class="cls-2" rx="62.551" ry="36.118" transform="translate(0 15.47)"/>
            <path id="패스_441" d="M176.45 260.632V244.18l12.362 11z" class="cls-2" transform="translate(-176.437 -208.492)"/>
            <path id="패스_442" d="M271.856 244.5v15.47l-6.322 6.712-3.094-17.716z" class="cls-2" transform="translate(-146.755 -208.382)"/>
            <ellipse id="타원_73" cx="62.551" cy="36.118" class="cls-3" rx="62.551" ry="36.118"/>
            <path id="패스_443" d="M279.129 252.362c-.646 6.08-4.977 12.107-13.035 16.734-17.487 10.089-45.844 10.089-63.331 0-8.071-4.668-12.4-10.654-13.021-16.734-.753-7.116 3.592-14.393 13.021-19.828 17.487-10.1 45.844-10.1 63.331 0 9.43 5.435 13.774 12.658 13.035 19.828z" class="cls-4" transform="translate(-171.877 -215.128)"/>
            <path id="패스_444" d="M279.107 251.568c-.646 6.08-4.977 12.107-13.035 16.734-17.487 10.089-45.844 10.089-63.331 0-8.071-4.668-12.4-10.654-13.021-16.734.619-6.08 4.964-12.107 13.021-16.734 17.487-10.1 45.844-10.1 63.331 0 8.058 4.666 12.39 10.654 13.035 16.734z" class="cls-5" transform="translate(-171.856 -214.334)"/>
            <path id="패스_445" d="M227.88 240.046a9.717 9.717 0 0 0-1.641.135c-.74.108-1.56.256-2.475.444s-1.856.43-2.852.726a20.42 20.42 0 0 0-2.8 1.076l7.183 4.143 1.345-.444c1.829-.619 3.551-1.13 5.179-1.56a25.124 25.124 0 0 1 4.654-.767 16.761 16.761 0 0 1 4.291.3 13.888 13.888 0 0 1 4.036 1.587 8.225 8.225 0 0 1 3.094 2.69 3.656 3.656 0 0 1 .457 2.811 6.209 6.209 0 0 1-1.681 2.771 16.971 16.971 0 0 1-3.282 2.583l4.574 2.69-2.5 1.439-4.614-2.69a38.457 38.457 0 0 1-6.86 2.6 45.508 45.508 0 0 1-7.56 1.412l-2.408-4.318a18.493 18.493 0 0 0 2-.161c.915-.108 1.91-.269 3.027-.511s2.273-.538 3.511-.9a24.247 24.247 0 0 0 3.511-1.345l-7.156-3.941-.928.323-.982.3a42.1 42.1 0 0 1-4.95 1.345 22.448 22.448 0 0 1-4.21.565 14.578 14.578 0 0 1-3.726-.336 12.724 12.724 0 0 1-3.444-1.345 8.7 8.7 0 0 1-3-2.569 4.375 4.375 0 0 1-.807-2.771 5.119 5.119 0 0 1 1.184-2.8 12.73 12.73 0 0 1 2.906-2.69l-4.237-2.448 2.489-1.439 4.21 2.421a30.221 30.221 0 0 1 6.161-2.273 48.289 48.289 0 0 1 6.174-1.116zm-12.228 7.533a5.1 5.1 0 0 0 3.121.673 20.728 20.728 0 0 0 4.291-.955l-6.726-3.888c-2.515 1.668-2.7 3.067-.686 4.224zm23.621 1.977a5.374 5.374 0 0 0-3.363-.605 27.365 27.365 0 0 0-4.708 1.036l6.726 3.861q4.251-2.569 1.345-4.237z" class="cls-4" transform="translate(-165.988 -211.326)"/>
            <path id="패스_446" d="M219.58 252.785v-2.435l2.69 1.776-1.2 1.829z" class="cls-4" transform="translate(-161.549 -206.363)"/>
            <path id="패스_447" d="M238.906 253.921V251.5l-5.946.444 3.417 2.327z" class="cls-4" transform="translate(-156.93 -205.966)"/>
            <path id="패스_448" d="M238.893 247.308v-2.448l-4.453 1.614z" class="cls-4" transform="translate(-156.42 -208.258)"/>
            <path id="패스_449" d="M224 246.942l1.48-1.412 5.219 3.605-.323 1.063s-3.9-1.641-4.036-1.735z" class="cls-4" transform="translate(-160.023 -208.026)"/>
            <path id="패스_450" d="M213.88 241.3l6.928 3.928 1.412-1.022s-.861-1-.928-1.09a9.049 9.049 0 0 0-2.166-1.816c-.511-.094-3.807-1.56-3.807-1.56z" class="cls-4" transform="translate(-163.516 -210.025)"/>
            <path id="패스_451" d="M223.441 239.927v-2.421l-3.188-1.036-.673 1.9.161.874z" class="cls-4" transform="translate(-161.549 -211.154)"/>
            <path id="패스_452" d="M206.72 238.361v-2.421l3.7.39-1.2 2.354z" class="cls-4" transform="translate(-165.988 -211.337)"/>
            <path id="패스_453" d="M206.82 244.5V242h4.28l-1.036 2.26-1.829 2.018z" class="cls-4" transform="translate(-165.953 -209.245)"/>
            <path id="패스_454" d="M227.88 238.334a9.717 9.717 0 0 0-1.641.134c-.74.094-1.56.242-2.475.444s-1.856.43-2.852.726a22.158 22.158 0 0 0-2.8 1.063l7.183 4.157 1.345-.457c1.829-.605 3.551-1.116 5.179-1.547a25.119 25.119 0 0 1 4.654-.767 17.454 17.454 0 0 1 4.291.282 13.957 13.957 0 0 1 4.036 1.6 8.225 8.225 0 0 1 3.094 2.69 3.617 3.617 0 0 1 .457 2.8 6.178 6.178 0 0 1-1.681 2.785 17.5 17.5 0 0 1-3.282 2.583l4.574 2.69-2.5 1.453-4.614-2.69a37.489 37.489 0 0 1-6.86 2.583 44.275 44.275 0 0 1-7.56 1.412l-2.408-4.318a11.408 11.408 0 0 0 2-.148c.888-.148 1.91-.282 3.027-.525s2.273-.538 3.511-.9a24.247 24.247 0 0 0 3.511-1.345l-7.156-4.13c-.3.121-.619.229-.928.323l-.982.309a42.1 42.1 0 0 1-4.95 1.345 22.448 22.448 0 0 1-4.21.565 14.517 14.517 0 0 1-3.726-.35 12.254 12.254 0 0 1-3.444-1.345 8.847 8.847 0 0 1-3-2.569 4.383 4.383 0 0 1-.807-2.771 5.119 5.119 0 0 1 1.184-2.8 12.446 12.446 0 0 1 2.906-2.69l-4.237-2.448 2.489-1.453 4.21 2.435a30.223 30.223 0 0 1 6.161-2.273 46.19 46.19 0 0 1 6.174-1.116zm-12.228 7.533a5.2 5.2 0 0 0 3.121.673 20.728 20.728 0 0 0 4.291-.955l-6.726-3.888c-2.515 1.614-2.7 3.04-.686 4.17zm23.621 1.964a5.379 5.379 0 0 0-3.363-.592 27.362 27.362 0 0 0-4.708 1.036l6.726 3.861c2.8-1.749 3.282-3.175 1.345-4.3z" class="cls-6" transform="translate(-165.988 -211.982)"/>
        </g>
        <g id="Coin-13" transform="translate(176.922 234.39)">
            <ellipse id="타원_74" cx="62.551" cy="36.118" class="cls-2" rx="62.551" ry="36.118" transform="translate(0 15.483)"/>
            <path id="패스_455" d="M174.44 244.575V228.11l12.36 11.017z" class="cls-2" transform="translate(-174.427 -192.422)"/>
            <path id="패스_456" d="M269.846 228.43v15.483l-6.322 6.712-3.094-17.725z" class="cls-2" transform="translate(-144.745 -192.312)"/>
            <ellipse id="타원_75" cx="62.551" cy="36.118" class="cls-3" rx="62.551" ry="36.118"/>
            <path id="패스_457" d="M277.116 236.3c-.632 6.08-4.964 12.107-13.035 16.721-17.487 10.089-45.844 10.089-63.331 0-8.071-4.654-12.389-10.64-13.008-16.721-.767-7.129 3.592-14.393 13.008-19.828 17.487-10.1 45.844-10.1 63.331 0 9.43 5.437 13.775 12.741 13.035 19.828z" class="cls-4" transform="translate(-169.865 -199.054)"/>
            <path id="패스_458" d="M277.094 235.508c-.632 6.08-4.964 12.107-13.035 16.721-17.487 10.089-45.844 10.089-63.331 0-8.071-4.654-12.389-10.64-13.008-16.721.619-6.094 4.95-12.107 13.008-16.734 17.487-10.1 45.844-10.1 63.331 0 8.071 4.655 12.403 10.641 13.035 16.734z" class="cls-5" transform="translate(-169.843 -198.26)"/>
            <path id="패스_459" d="M225.877 224.087a11.173 11.173 0 0 0-1.641.121c-.726.108-1.56.256-2.475.444s-1.856.444-2.838.74a19.789 19.789 0 0 0-2.811 1.063l7.2 4.157 1.278-.457c1.829-.605 3.565-1.116 5.179-1.547a24.136 24.136 0 0 1 4.654-.767 16.15 16.15 0 0 1 4.318.283 13.815 13.815 0 0 1 4.036 1.6 8.192 8.192 0 0 1 3.094 2.69 3.609 3.609 0 0 1 .457 2.811 6.068 6.068 0 0 1-1.686 2.775 17.627 17.627 0 0 1-3.282 2.6l4.574 2.69-2.5 1.439-4.614-2.69a36.567 36.567 0 0 1-6.86 2.6 45.373 45.373 0 0 1-7.56 1.412l-2.408-4.318a11.619 11.619 0 0 0 2.018-.148c.9-.148 1.9-.283 3.013-.525s2.273-.538 3.511-.9a23.732 23.732 0 0 0 3.511-1.345l-7.143-4.13-.942.323-.982.309a42.093 42.093 0 0 1-4.95 1.345 22.333 22.333 0 0 1-4.21.565 14.575 14.575 0 0 1-3.726-.35 12.847 12.847 0 0 1-3.444-1.345 9 9 0 0 1-3-2.569 4.383 4.383 0 0 1-.807-2.771 5.119 5.119 0 0 1 1.184-2.8 13.028 13.028 0 0 1 2.906-2.69l-4.237-2.448 2.5-1.439 4.2 2.435a30.073 30.073 0 0 1 6.174-2.273 43.5 43.5 0 0 1 6.174-1.116zm-12.214 7.533a5.246 5.246 0 0 0 3.107.673 20.749 20.749 0 0 0 4.291-.955l-6.726-3.9c-2.5 1.6-2.7 2.986-.673 4.157zm23.607 1.88a5.379 5.379 0 0 0-3.363-.592 27.032 27.032 0 0 0-4.695 1.022l6.726 3.874c2.799-1.691 3.269-3.117 1.332-4.304z" class="cls-4" transform="translate(-163.985 -195.274)"/>
            <path id="패스_460" d="M217.57 236.711c.067-.175 0-2.421 0-2.421l2.69 1.762-1.2 1.843z" class="cls-4" transform="translate(-159.539 -190.289)"/>
            <path id="패스_461" d="M236.9 237.851v-2.421l-5.946.457 3.417 2.327z" class="cls-4" transform="translate(-154.92 -189.896)"/>
            <path id="패스_462" d="M236.883 231.252v-2.462l-4.453 1.61z" class="cls-4" transform="translate(-154.41 -192.188)"/>
            <path id="패스_463" d="M222 230.886l1.48-1.426 5.233 3.619-.323 1.063s-3.9-1.641-4.036-1.735-2.354-1.521-2.354-1.521z" class="cls-4" transform="translate(-158.01 -191.956)"/>
            <path id="패스_464" d="M211.87 225.244l6.928 3.928 1.426-1.022s-.874-1.009-.942-1.1a9.052 9.052 0 0 0-2.166-1.8c-.511-.094-3.793-1.574-3.793-1.574z" class="cls-4" transform="translate(-161.506 -193.955)"/>
            <path id="패스_465" d="M221.431 223.867v-2.435l-3.188-1.022-.673 1.9.161.874z" class="cls-4" transform="translate(-159.539 -195.08)"/>
            <path id="패스_466" d="M204.71 222.291v-2.421l3.7.39-1.2 2.354z" class="cls-4" transform="translate(-163.978 -195.267)"/>
            <path id="패스_467" d="M204.81 228.435v-2.515h4.29l-1.036 2.26-1.829 2.018z" class="cls-4" transform="translate(-163.943 -193.178)"/>
            <path id="패스_468" d="M225.863 222.233a9.723 9.723 0 0 0-1.641.135c-.726.108-1.56.256-2.475.444s-1.856.444-2.838.74a19.789 19.789 0 0 0-2.811 1.063l7.2 4.157 1.278-.457c1.829-.605 3.565-1.13 5.179-1.547A23.207 23.207 0 0 1 234.4 226a16.118 16.118 0 0 1 4.291.282 13.481 13.481 0 0 1 4.036 1.6 8.192 8.192 0 0 1 3.094 2.69 3.587 3.587 0 0 1 .457 2.811 6.152 6.152 0 0 1-1.681 2.771 17.627 17.627 0 0 1-3.282 2.6l4.574 2.69-2.5 1.439-4.614-2.69a37.438 37.438 0 0 1-6.86 2.6 45.373 45.373 0 0 1-7.56 1.412l-2.408-4.318a18.732 18.732 0 0 0 2.018-.161 28.166 28.166 0 0 0 3.013-.511c1.1-.242 2.273-.538 3.511-.9a25.181 25.181 0 0 0 3.511-1.352l-7.143-4.13-.942.323-.982.3a39.624 39.624 0 0 1-4.95 1.345 22.353 22.353 0 0 1-4.13.659 14.517 14.517 0 0 1-3.726-.35 12.45 12.45 0 0 1-3.444-1.345 8.7 8.7 0 0 1-3-2.569 4.34 4.34 0 0 1-.807-2.771 5.163 5.163 0 0 1 1.184-2.8 13.026 13.026 0 0 1 2.906-2.69l-4.237-2.448 2.5-1.439 4.2 2.421a30.841 30.841 0 0 1 6.174-2.26 43.5 43.5 0 0 1 6.174-1.117zm-12.214 7.546a5.246 5.246 0 0 0 3.107.673 20.046 20.046 0 0 0 4.291-.969l-6.726-3.888c-2.502 1.615-2.704 3.014-.672 4.185zm23.608 1.964a5.469 5.469 0 0 0-3.363-.605 28.594 28.594 0 0 0-4.695 1.036l6.726 3.861c2.798-1.735 3.269-3.175 1.331-4.291z" class="cls-6" transform="translate(-163.971 -195.881)"/>
        </g>
        <g id="Coin-14" transform="translate(180.971 212.786)">
            <ellipse id="타원_76" cx="62.551" cy="36.118" class="cls-2" rx="62.551" ry="36.118" transform="translate(0 15.483)"/>
            <path id="패스_469" d="M177.46 228.5v-16.45l12.349 11z" class="cls-2" transform="translate(-177.433 -176.362)"/>
            <path id="패스_470" d="M272.856 212.37v15.47l-6.322 6.712-3.094-17.716z" class="cls-2" transform="translate(-147.755 -176.252)"/>
            <ellipse id="타원_77" cx="62.551" cy="36.118" class="cls-3" rx="62.551" ry="36.118"/>
            <path id="패스_471" d="M280.126 220.232c-.632 6.08-4.964 12.107-13.035 16.734-17.487 10.089-45.844 10.089-63.331 0-8.071-4.654-12.389-10.654-13.008-16.734-.767-7.116 3.592-14.393 13.008-19.828 17.487-10.1 45.844-10.1 63.331 0 9.43 5.435 13.775 12.712 13.035 19.828z" class="cls-4" transform="translate(-172.875 -182.998)"/>
            <path id="패스_472" d="M280.1 219.437c-.632 6.08-4.964 12.107-13.035 16.734-17.487 10.089-45.844 10.089-63.331 0-8.071-4.654-12.389-10.654-13.008-16.734.619-6.08 4.95-12.107 13.008-16.721 17.487-10.116 45.844-10.116 63.331 0 8.075 4.655 12.407 10.641 13.035 16.721z" class="cls-5" transform="translate(-172.853 -182.203)"/>
            <path id="패스_473" d="M228.88 208.008a9.861 9.861 0 0 0-1.641.134c-.726.108-1.56.256-2.475.444s-1.856.444-2.838.726a22.544 22.544 0 0 0-2.811 1.076l7.2 4.157 1.345-.457c1.829-.605 3.551-1.13 5.165-1.547a24.275 24.275 0 0 1 4.668-.78 16.658 16.658 0 0 1 4.278.3 13.48 13.48 0 0 1 4.036 1.6 8.154 8.154 0 0 1 3.107 2.69 3.711 3.711 0 0 1 .457 2.811 6.369 6.369 0 0 1-1.695 2.771 17.627 17.627 0 0 1-3.282 2.6l4.574 2.69-2.489 1.439-4.614-2.69a38.213 38.213 0 0 1-6.86 2.6 45.7 45.7 0 0 1-7.573 1.412l-2.408-4.358a18.74 18.74 0 0 0 2.018-.161c.9-.108 1.91-.269 3.013-.511s2.273-.538 3.511-.9a25.184 25.184 0 0 0 3.511-1.345l-7.143-4.13-.942.323c-.309.108-.646.2-.982.3a39.471 39.471 0 0 1-4.937 1.345 22.569 22.569 0 0 1-4.224.565 15.147 15.147 0 0 1-3.726-.35 12.893 12.893 0 0 1-3.444-1.345 8.832 8.832 0 0 1-3-2.569 4.375 4.375 0 0 1-.807-2.771 5.252 5.252 0 0 1 1.184-2.8 12.821 12.821 0 0 1 2.919-2.69l-4.251-2.448 2.5-1.439 4.2 2.421a30.031 30.031 0 0 1 6.174-2.26 44.073 44.073 0 0 1 6.174-1.116zm-12.214 7.546a5.258 5.258 0 0 0 3.121.673 21.008 21.008 0 0 0 4.278-.969l-6.726-3.888c-2.516 1.615-2.705 3.014-.674 4.184zm23.608 1.991a5.373 5.373 0 0 0-3.363-.605 28.592 28.592 0 0 0-4.695 1.036l6.726 3.861c2.784-1.763 3.268-3.202 1.331-4.292z" class="cls-4" transform="translate(-166.988 -179.234)"/>
            <path id="패스_474" d="M220.58 220.625v-2.435l2.69 1.776-1.2 1.829z" class="cls-4" transform="translate(-162.549 -174.243)"/>
            <path id="패스_475" d="M239.906 221.791v-2.421l-5.946.444 3.417 2.341z" class="cls-4" transform="translate(-157.93 -173.836)"/>
            <path id="패스_476" d="M239.893 215.178v-2.448l-4.453 1.614z" class="cls-4" transform="translate(-157.42 -176.128)"/>
            <path id="패스_477" d="M225 214.826l1.48-1.426 5.233 3.619-.323 1.063s-3.9-1.655-4.036-1.749-2.354-1.507-2.354-1.507z" class="cls-4" transform="translate(-161.023 -175.896)"/>
            <path id="패스_478" d="M214.88 209.17l6.887 3.941 1.426-1.036s-.874-1-.942-1.09a9.221 9.221 0 0 0-2.152-1.816c-.525-.094-3.807-1.56-3.807-1.56z" class="cls-4" transform="translate(-164.516 -177.895)"/>
            <path id="패스_479" d="M224.441 207.8v-2.421l-3.175-1.036-.686 1.9.161.874z" class="cls-4" transform="translate(-162.549 -179.024)"/>
            <path id="패스_480" d="M207.72 206.231v-2.421l3.7.39-1.2 2.354z" class="cls-4" transform="translate(-166.988 -179.207)"/>
            <path id="패스_481" d="M207.82 212.379v-2.529h4.28l-1.022 2.26-1.843 2.018z" class="cls-4" transform="translate(-166.953 -177.122)"/>
            <path id="패스_482" d="M228.88 206.194a9.858 9.858 0 0 0-1.641.135c-.726.108-1.56.256-2.475.444s-1.856.43-2.838.726a20.591 20.591 0 0 0-2.811 1.076l7.2 4.143 1.345-.457c1.829-.605 3.551-1.116 5.165-1.547a25.148 25.148 0 0 1 4.668-.767 16.658 16.658 0 0 1 4.278.3 13.478 13.478 0 0 1 4.036 1.587 8.285 8.285 0 0 1 3.107 2.69 3.7 3.7 0 0 1 .457 2.811 6.369 6.369 0 0 1-1.695 2.771 17.513 17.513 0 0 1-3.255 2.623l4.574 2.69-2.489 1.439-4.614-2.69a38.2 38.2 0 0 1-6.86 2.583 44.3 44.3 0 0 1-7.573 1.426l-2.408-4.331a17.762 17.762 0 0 0 2.018-.148c.9-.108 1.91-.283 3.013-.525s2.273-.538 3.511-.888a25.182 25.182 0 0 0 3.511-1.345l-7.17-4.13-.942.336-.982.3a41.93 41.93 0 0 1-4.937 1.345 22.569 22.569 0 0 1-4.224.565 14 14 0 0 1-3.726-.35 12.452 12.452 0 0 1-3.444-1.345 8.973 8.973 0 0 1-3-2.569 4.375 4.375 0 0 1-.807-2.771 5.227 5.227 0 0 1 1.184-2.8 12.82 12.82 0 0 1 2.919-2.69l-4.251-2.448 2.5-1.439 4.2 2.421a30.071 30.071 0 0 1 6.174-2.273 46.194 46.194 0 0 1 6.174-1.117zm-12.214 7.533a5.174 5.174 0 0 0 3.121.673 20.8 20.8 0 0 0 4.278-.955l-6.726-3.888c-2.516 1.614-2.705 3-.674 4.17zm23.608 1.977a5.3 5.3 0 0 0-3.363-.605 27.188 27.188 0 0 0-4.695 1.036l6.726 3.865q4.237-2.623 1.332-4.291z" class="cls-6" transform="translate(-166.988 -179.842)"/>
        </g>
        <g id="Men_2" transform="translate(218.857 106.529)">
            <path id="_Контур_15" d="M208.289 132.3c-.282 2.475-3.228 13.129-2.6 16.774s10.761 9.766 10.761 9.766l1.345-6.255-5.569-5.461 1.507-10.344z" class="cls-7" transform="translate(-205.604 -97.633)"/>
            <path id="_Контур_16" d="M215.637 124.606a4.4 4.4 0 0 0-5.609 1.695c-1.48 2.448-3.013 10.856-3.148 12.295a5.9 5.9 0 0 0 5.192 2.394z" class="cls-8" transform="translate(-205.164 -100.431)"/>
            <path id="패스_483" d="M222.188 213.477a8.6 8.6 0 0 0 6.511-.794c1.574 0 10.089-3.592 11.246-.538 1.022 2.69-2.69 5.165-4.641 5.65-4.3 1.036-7.493 3.188-9.214 3.551-1.345.269-2.959.444-4.036-.565-1.131-1.21-1.131-5.716.134-7.304z" class="cls-9" transform="translate(-200.213 -70.497)"/>
            <path id="패스_484" d="M226.021 220.153c1.722-.363 4.91-2.516 9.214-3.551 1.655-.4 4.493-2.22 4.789-4.372.377 2.475-2.959 4.668-4.789 5.112-4.3 1.036-7.493 3.188-9.214 3.551-1.345.269-2.959.444-4.036-.565a2.39 2.39 0 0 1-.565-1.022 5.181 5.181 0 0 0 4.601.847z" class="cls-10" transform="translate(-200.145 -70.043)"/>
            <path id="패스_485" d="M211.918 208.869a8.68 8.68 0 0 0 6.511-.794c1.574 0 10.089-3.605 11.246-.538 1.009 2.69-2.69 5.165-4.641 5.65-4.3 1.036-7.493 3.188-9.214 3.551-1.345.269-2.959.444-4.036-.565-1.184-1.21-1.076-5.703.134-7.304z" class="cls-9" transform="translate(-203.758 -72.09)"/>
            <path id="패스_486" d="M215.751 215.53c1.722-.363 4.91-2.5 9.214-3.551 1.641-.39 4.493-2.206 4.775-4.358.39 2.475-2.946 4.668-4.775 5.112-4.3 1.036-7.493 3.188-9.214 3.551-1.345.269-2.959.444-4.036-.565a2.445 2.445 0 0 1-.565-1.036 5.1 5.1 0 0 0 4.601.847z" class="cls-10" transform="translate(-203.69 -71.634)"/>
            <path id="_Контур_17" fill="#0c6f94" d="M211.741 203.371a52.519 52.519 0 0 1 1.964-9.336s-.578-8.071-.874-15.685c-.336-8.663-3.336-16.29-.969-23.191l26.729 5.932s-1.614 34.544-1.977 38.728a77.576 77.576 0 0 1-1.2 9.7c-1.224 6.726-3.2 22.653-3.2 22.653a9.967 9.967 0 0 1-6.538.726s.2-20.178.39-24.993c.215-5.905.4-5.448.4-5.448l-.888-14.7L225 180.5s-.74 5.381-1.224 10.156c-.417 4.184-1.426 7.963-2.556 15.739-.969 6.726-2.556 20.3-2.556 20.3-2.825 1.641-6.726.283-6.726.283s-.924-17.755-.197-23.607z" transform="translate(-203.756 -89.742)"/>
            <path id="_Контур_18" d="M214.733 130.485c2.045.094 3.551.619 3.807 0a26.065 26.065 0 0 0 .471-3.175c-.242-.592-.444-1.224-.444-1.224-2.556-1.574-3.363-4.345-3.7-7.56-.565-5.5 2.394-10.318 7.9-10.883 5.179-.538 8.972 3.094 9.995 8.071.538 2.462 1.628 7.116.161 11.165-.821 2.26-1.883 4.036-2.946 4.412a23.949 23.949 0 0 1-3.054-.269s-.269 1.533-.457 2.515-.121 1.493 1.829 2.69-2.946 3.686-6.147 3.43-6.807-2.166-7.8-4.237c-1.108-2.285-1.014-5.003.385-4.935z" class="cls-7" transform="translate(-202.847 -106.162)"/>
            <path id="_Контур_19" fill="#f4f4f4" d="M219.36 124.952c-.565 1.345.874 3.121 4.695 4.331s4.17-.35 4.17-.35a74.045 74.045 0 0 1 7.425 3.834c2.3 1.6 3.309 6.242 3.618 14.084.363 9.067.39 22.518.094 24.832 0 0-4.291 4.278-9.779 3.834s-14.716-5.313-16.963-9.067c0-7.95 1-9.241-.3-13.815-2.946-10.492-4.493-14.8-3.067-21.752 1.184-5.744 2.838-6.457 5.112-6.4a46.63 46.63 0 0 1 4.995.469z" transform="translate(-204.528 -100.333)"/>
            <path id="_Контур_20" d="M242.3 152.7c-4.506 1.13-5.569-1.708-6.161-4.036-1.426-5.69-2.206-10.761-3.269-14.057-1.251-3.82-2.569-4.426-4.426-5.165-2.179-.874-4.036.969-3.323 5.825a96.911 96.911 0 0 0 4.13 16.546c.552 1.776 1.816 4.923 3.7 6.443 2.314 1.883 5.825 1.8 11.111.484 2.26-.565 4.735-1.91 9.013-3.9 1.143-.538 2.031-.888 4.237-1.91a15.134 15.134 0 0 0 5.65-4.412c1.143-1.668 1.345-2.448 1.063-2.838s-.821-.363-1.426.336a12.632 12.632 0 0 1-3.242 3s1.412-1.466 2.193-2.421a12.278 12.278 0 0 0 1.695-2.785c.417-.982-.43-2.3-1.063-1.614s-.942 1.412-2.112 2.8a11.419 11.419 0 0 1-2.085 1.991 22.439 22.439 0 0 0 1.924-3.094 5 5 0 0 0 .7-2.785c0-.511-.74-1.116-1.426-.161a17.974 17.974 0 0 1-2.408 3.7c-1.036 1.076-1.91 1.681-1.937 1.345s.619-.874 1-2.125 0-2.556-.686-2.69-.565-.094-1.116 1.063a32.718 32.718 0 0 0-2.045 3.726 7.665 7.665 0 0 1-1.843 3.188c-1.124 1.167-3.613 2.472-7.848 3.546z" class="cls-7" transform="translate(-198.921 -98.692)"/>
            <path id="_Контур_21" d="M227.134 128.81c3-.444 5.125.915 6.457 5.475s2.26 8.286 2.26 8.286a8.07 8.07 0 0 1-5.044 3.349c-3.592.874-4.883-.847-4.883-.847s-1-4.775-1.628-8.071-.888-7.64 2.838-8.192z" class="cls-8" transform="translate(-199.281 -98.865)"/>
            <path id="패스_487" fill="#3a2c6d" d="M232.42 115.382s4.749-7.237-5.542-8.7c-7.425-1.063-12.2 3.713-12.752 8.892-.525 4.937 2.515 10.075 4.722 12.107a8.959 8.959 0 0 0 6.417-.78 38.5 38.5 0 0 0 .135-4.036s-3.621-7.631 7.02-7.483z" transform="translate(-202.683 -106.529)"/>
        </g>
    </g>
</svg>
