<svg xmlns="http://www.w3.org/2000/svg" width="586.288" height="398.499" viewBox="0 0 586.288 398.499">
    <defs>
        <style>
            .cls-4{opacity:.3}.cls-10,.cls-3,.cls-4,.cls-5{isolation:isolate}.cls-2{fill:#b9cc00}.cls-3{opacity:.35}.cls-5{opacity:.15}.cls-7{fill:#839100}.cls-8{fill:#a2c900}.cls-9{fill:#ebedca}.cls-10{opacity:.4}
        </style>
    </defs>
    <g id="sec02_img_dollor" transform="translate(-409.938 -1295.154)">
        <g id="그룹_6" transform="rotate(176 255.277 851.637)">
            <path id="패스_331" d="M147.1 57.776L47.026 0 0 27.153l100.064 57.776z" style="isolation:isolate" fill="#fff" opacity="0.3"/>
            <path id="패스_332" d="M147.1 57.776L47.026 0 0 27.154l100.064 57.77z" class="cls-2" transform="translate(5.311 20.661)"/>
            <ellipse id="타원_42" cx="11.006" cy="19.156" class="cls-3" rx="11.006" ry="19.156" transform="rotate(86.54 21.582 77.179)"/>
            <path id="패스_333" d="M0 23.536L40.8 0l93.044 53.724-40.8 23.536zM121.165 50.4L47.026 7.593a18.355 18.355 0 0 1-12.039-.235L13.124 19.975c2.21 2.139 2.108 4.85-.327 6.928L86.7 69.57a18.293 18.293 0 0 1 12.617.036l21.863-12.623a4.255 4.255 0 0 1-.02-6.585z" class="cls-3" transform="translate(11.937 24.508)"/>
            <ellipse id="타원_43" cx="4.339" cy="2.502" class="cls-3" rx="4.339" ry="2.502" transform="translate(47.916 44.995)"/>
            <path id="패스_334" d="M15.559 5.05a3.582 3.582 0 0 1-1.765.512 9.366 9.366 0 0 1-2.446-.379q-1.5-.394-2.7-.614a14.248 14.248 0 0 0-2.292-.246 8.867 8.867 0 0 0-2.123.2 7.161 7.161 0 0 0-2.006.8Q.532 6.3.527 7.552a3.082 3.082 0 0 0 1.617 2.395L0 11.185l1.6.926 2.175-1.274a9.184 9.184 0 0 0 4.257.752 9.335 9.335 0 0 0 4.185-1.264l-2.9-1.673a5.224 5.224 0 0 1-2.3.752A3.4 3.4 0 0 1 5.1 8.979c-.547-.317-.819-.65-.808-1.023s.292-.691.839-1.023a3.406 3.406 0 0 1 1.663-.45 11.242 11.242 0 0 1 2.584.4q1.678.414 2.875.614a13.246 13.246 0 0 0 2.267.194 8.778 8.778 0 0 0 2.047-.235 7.039 7.039 0 0 0 1.878-.756q1.709-.982 1.709-2.21a3.2 3.2 0 0 0-1.678-2.415l2-1.151L18.88 0l-1.985 1.146a10.266 10.266 0 0 0-4.646-1A9.215 9.215 0 0 0 7.828 1.4l2.9 1.673a5.158 5.158 0 0 1 2.4-.732 4.184 4.184 0 0 1 2.267.573c.588.343.9.7.926 1.074s-.214.755-.762 1.062z" class="cls-2" transform="translate(68.25 57.208)"/>
            <path id="패스_335" d="M47.026 0L0 27.179V44.6l47.026-27.188z" class="cls-2" transform="translate(5.311 3.249)"/>
            <path id="패스_336" d="M47.026 0L0 27.179V44.6l47.026-27.188z" class="cls-4" transform="translate(5.311 3.249)"/>
            <path id="패스_337" d="M100.069 57.8L0 0v17.412l100.069 57.8z" class="cls-2" transform="translate(52.337 3.249)"/>
            <path id="패스_338" d="M100.069 57.8L0 0v17.412l100.069 57.8z" class="cls-5" transform="translate(52.337 3.249)"/>
        </g>
        <g id="그룹_7" transform="rotate(-2 37635.774 -18676.174)">
            <path id="패스_339" fill="#fff" d="M241.123 263.314l-150.3-90.99 70.637-42.764 150.3 90.99z" transform="translate(.275 -44.08)" style="isolation:isolate" opacity="0.6"/>
            <path id="패스_340" d="M241.578 194.994L104.67 115.952 169.011 78.8l136.916 79.049z" class="cls-2" transform="translate(-4.154 -23.636)"/>
            <ellipse id="타원_44" cx="26.21" cy="15.058" class="cls-7" rx="26.21" ry="15.058" transform="rotate(-3.62 1758.203 -2842.577)"/>
            <path id="패스_341" d="M173.442 86.28l-55.822 32.2 127.3 73.505 55.822-32.2zm63.658 95.711l-101.433-58.566c3.01-2.94 2.8-6.664-.567-9.507l29.906-17.27a25.2 25.2 0 0 0 16.416-.259l101.115 58.384c-3.5 3-3.5 7 .084 9.969l-29.913 17.249a25.284 25.284 0 0 0-15.608 0z" class="cls-7" transform="translate(-8.039 -25.88)"/>
            <ellipse id="타원_45" cx="5.936" cy="3.423" class="cls-7" rx="5.936" ry="3.423" transform="translate(158.165 88.829)"/>
            <ellipse id="타원_46" cx="5.936" cy="3.423" class="cls-7" rx="5.936" ry="3.423" transform="translate(230.907 130.825)"/>
            <path id="패스_342" d="M240.4 162.116c.749-.434 1.134-.9 1.162-1.4a3.2 3.2 0 0 0-.889-1.932 16.585 16.585 0 0 1-1.463-2.1 4.306 4.306 0 0 1-.546-1.834 2.647 2.647 0 0 1 .483-1.673 5.665 5.665 0 0 1 1.89-1.589 10.4 10.4 0 0 1 5.278-1.337 13.2 13.2 0 0 1 5.67 1.274l2.933-1.694 2.2 1.267-2.982 1.722c1.4 1.064 1.981 2.184 1.778 3.36s-1.2 2.275-2.982 3.3l-3.962-2.289c1.092-.63 1.687-1.239 1.778-1.813s-.238-1.085-1-1.519a4.582 4.582 0 0 0-2.38-.637 4.762 4.762 0 0 0-2.38.658c-.7.406-1.05.84-1.071 1.316a3.789 3.789 0 0 0 .959 2.037 16.636 16.636 0 0 1 1.449 2.275 3.91 3.91 0 0 1 .469 1.792 2.8 2.8 0 0 1-.56 1.61 5.881 5.881 0 0 1-1.806 1.484 10.311 10.311 0 0 1-5.243 1.344 13.3 13.3 0 0 1-5.719-1.323l-2.73 1.575-2.184-1.26 2.723-1.568c-1.68-1.2-2.464-2.422-2.366-3.668s1.092-2.408 2.968-3.5l3.962 2.289c-1.085.63-1.666 1.26-1.729 1.9s.392 1.232 1.358 1.792a5.3 5.3 0 0 0 2.548.7 4.462 4.462 0 0 0 2.384-.559z" class="cls-8" transform="translate(-41.312 -44.942)"/>
            <path id="패스_343" d="M241.578 240.792L104.67 161.735V131.85l136.908 79.056z" class="cls-2" transform="translate(-4.154 -39.549)"/>
            <path id="패스_344" d="M241.578 240.792L104.67 161.735V131.85l136.908 79.056z" class="cls-4" transform="translate(-4.154 -39.549)"/>
            <path id="패스_345" d="M364.588 221.6l-64.348 37.147v-29.885l64.348-37.152z" class="cls-2" transform="translate(-62.816 -57.504)"/>
            <path id="패스_346" d="M364.588 221.6l-64.348 37.147v-29.885l64.348-37.152z" class="cls-5" transform="translate(-62.816 -57.504)"/>
            <path id="패스_347" d="M206.881 220.551l-23.921-13.679v-30.1l23.921 13.8z" class="cls-9" transform="translate(-27.638 -53.022)"/>
            <path id="패스_348" d="M206.881 220.551l-23.921-13.679v-30.1l23.921 13.8z" class="cls-4" transform="translate(-27.638 -53.022)"/>
            <path id="패스_349" d="M271.53 136.971l-64.67 37.481-23.9-13.8 64.446-37.614z" class="cls-9" transform="translate(-27.638 -36.906)"/>
            <path id="패스_350" d="M255.958 153.5L119.05 74.452 183.391 37.3l136.916 79.049z" class="cls-2" transform="translate(-8.468 -11.188)"/>
            <ellipse id="타원_47" cx="26.21" cy="15.058" class="cls-7" rx="26.21" ry="15.058" transform="rotate(-3.62 1280.342 -3026.272)"/>
            <path id="패스_351" d="M187.815 44.78L132 77.01l127.311 73.505 55.822-32.2zm63.7 95.711L150.047 81.925c3.01-2.94 2.8-6.664-.567-9.507l29.906-17.27a25.1 25.1 0 0 0 16.409-.259l101.122 58.384c-3.5 3-3.5 7 .084 9.969l-29.892 17.27a25.285 25.285 0 0 0-15.625-.021z" class="cls-7" transform="translate(-12.352 -13.432)"/>
            <ellipse id="타원_48" cx="5.936" cy="3.423" class="cls-7" rx="5.936" ry="3.423" transform="translate(168.231 59.777)"/>
            <ellipse id="타원_49" cx="5.936" cy="3.423" class="cls-7" rx="5.936" ry="3.423" transform="translate(240.973 101.773)"/>
            <path id="패스_352" d="M254.755 120.625c.749-.434 1.134-.9 1.162-1.4a3.24 3.24 0 0 0-.889-1.932 16.584 16.584 0 0 1-1.463-2.1 4.278 4.278 0 0 1-.581-1.813 2.647 2.647 0 0 1 .483-1.673 5.665 5.665 0 0 1 1.89-1.589 10.381 10.381 0 0 1 5.278-1.337 13.2 13.2 0 0 1 5.67 1.274l2.933-1.694 2.191 1.267-2.975 1.722c1.4 1.064 1.981 2.184 1.778 3.36s-1.2 2.275-2.982 3.3l-4-2.317c1.1-.63 1.694-1.239 1.785-1.813s-.238-1.078-1-1.519a4.582 4.582 0 0 0-2.38-.637 4.839 4.839 0 0 0-2.38.658c-.7.406-1.05.84-1.071 1.316a3.856 3.856 0 0 0 .952 2.044 15.656 15.656 0 0 1 1.456 2.268 4.027 4.027 0 0 1 .469 1.792 2.8 2.8 0 0 1-.567 1.61 5.748 5.748 0 0 1-1.8 1.484 10.311 10.311 0 0 1-5.243 1.344 13.3 13.3 0 0 1-5.719-1.323l-2.73 1.575-2.184-1.26 2.716-1.568q-2.507-1.8-2.359-3.661t2.968-3.5l3.962 2.289c-1.092.623-1.666 1.253-1.729 1.89s.392 1.232 1.358 1.792a5.3 5.3 0 0 0 2.548.7 4.464 4.464 0 0 0 2.453-.549z" class="cls-8" transform="translate(-45.599 -32.503)"/>
            <path id="패스_353" d="M255.958 199.295L119.05 120.238V90.36l136.908 79.056z" class="cls-2" transform="translate(-8.468 -27.104)"/>
            <path id="패스_354" d="M255.958 199.295L119.05 120.238V90.36l136.908 79.056z" class="cls-10" transform="translate(-8.468 -27.104)"/>
            <path id="패스_355" d="M378.968 180.1l-64.348 37.147v-29.885l64.348-37.152z" class="cls-2" transform="translate(-67.129 -45.056)"/>
            <path id="패스_356" d="M378.968 180.1l-64.348 37.147v-29.885l64.348-37.152z" transform="translate(-67.129 -45.056)" style="isolation:isolate" opacity="0.25"/>
            <path id="패스_357" d="M219.244 177.721l-23.914-13.679v-30.1l23.914 13.8z" class="cls-9" transform="translate(-31.348 -40.175)"/>
            <path id="패스_358" d="M219.244 177.721l-23.914-13.679v-30.1l23.914 13.8z" class="cls-10" transform="translate(-31.348 -40.175)"/>
            <path id="패스_359" d="M283.9 94.141l-64.677 37.481-23.893-13.8 64.439-37.612z" class="cls-9" transform="translate(-31.348 -24.059)"/>
            <path id="패스_360" d="M246.445 116.194L109.53 37.152 173.878 0l136.909 79.049z" class="cls-2" transform="translate(-5.612)"/>
            <ellipse id="타원_50" cx="26.21" cy="15.058" class="cls-3" rx="26.21" ry="15.058" transform="rotate(-3.62 841.713 -2929.893)"/>
            <path id="패스_361" d="M178.3 7.48l-55.822 32.2 127.3 73.505 55.822-32.2zm63.7 95.711L140.527 44.625c3.017-2.94 2.835-6.671-.56-9.507l29.906-17.27a25.154 25.154 0 0 0 16.409-.259L287.4 75.966c-3.5 3.01-3.5 7 .077 9.969L257.568 103.2a25.314 25.314 0 0 0-15.6-.014z" class="cls-3" transform="translate(-9.496 -2.244)"/>
            <ellipse id="타원_51" cx="5.936" cy="3.423" class="cls-3" rx="5.936" ry="3.423" transform="translate(161.574 33.658)"/>
            <ellipse id="타원_52" cx="5.936" cy="3.423" class="cls-3" rx="5.936" ry="3.423" transform="translate(234.309 75.654)"/>
            <path id="패스_362" d="M245.238 83.307c.749-.434 1.141-.9 1.169-1.4a3.211 3.211 0 0 0-.9-1.932 16.933 16.933 0 0 1-1.456-2.1 4.262 4.262 0 0 1-.588-1.813 2.65 2.65 0 0 1 .49-1.673 5.473 5.473 0 0 1 1.887-1.589 10.354 10.354 0 0 1 5.285-1.337 13.058 13.058 0 0 1 5.663 1.274L259.7 71l2.191 1.267-2.975 1.715q2.1 1.61 1.778 3.367c-.21 1.169-1.2 2.275-2.989 3.3l-3.962-2.289c1.1-.637 1.694-1.239 1.785-1.813s-.245-1.085-1-1.519a4.538 4.538 0 0 0-2.38-.637 4.748 4.748 0 0 0-2.38.658c-.7.4-1.057.84-1.071 1.316a3.764 3.764 0 0 0 .952 2.037 16.864 16.864 0 0 1 1.456 2.275 3.9 3.9 0 0 1 .462 1.792 2.677 2.677 0 0 1-.56 1.6 5.688 5.688 0 0 1-1.806 1.5 10.223 10.223 0 0 1-5.236 1.351 13.3 13.3 0 0 1-5.719-1.323l-2.73 1.575-2.184-1.26 2.716-1.568q-2.507-1.792-2.359-3.668t2.961-3.5l3.969 2.289c-1.092.63-1.666 1.26-1.729 1.9s.385 1.225 1.358 1.785a5.221 5.221 0 0 0 2.541.7 4.553 4.553 0 0 0 2.449-.543z" class="cls-2" transform="translate(-42.746 -21.297)"/>
            <path id="패스_363" d="M246.439 161.992L109.53 82.935V53.05l136.909 79.056z" class="cls-2" transform="translate(-5.612 -15.912)"/>
            <path id="패스_364" d="M246.439 161.992L109.53 82.935V53.05l136.909 79.056z" class="cls-4" transform="translate(-5.612 -15.912)"/>
            <path id="패스_365" d="M369.448 142.788L305.1 179.94v-29.878l64.348-37.152z" class="cls-2" transform="translate(-64.274 -33.868)"/>
            <path id="패스_366" d="M369.448 142.788L305.1 179.94v-29.878l64.348-37.152z" class="cls-5" transform="translate(-64.274 -33.868)"/>
            <path id="패스_367" d="M213.474 143.111l-23.914-13.679V99.33l23.914 13.8z" class="cls-9" transform="translate(-29.617 -29.794)"/>
            <path id="패스_368" d="M213.474 143.111l-23.914-13.679V99.33l23.914 13.8z" class="cls-4" transform="translate(-29.617 -29.794)"/>
            <path id="패스_369" d="M278.13 59.531l-64.677 37.481-23.893-13.8L254 45.6z" class="cls-9" transform="translate(-29.617 -13.678)"/>
        </g>
    </g>
</svg>
